<svg width="15" height="15" viewBox="0 0 15 15" fill="none" xmlns="http://www.w3.org/2000/svg">
    <path id="Union" fill-rule="evenodd" clip-rule="evenodd"
          d="M8.37536 7.42049L14.8265 13.8305C15.0594 14.0619 15.0594 14.4387 14.8265 14.6674C14.5963 14.8988 14.2171 14.8988 13.9842 14.6674L7.16747 7.89411C7.03747 7.76494 6.9806 7.59003 6.99685 7.42049C6.9806 7.25096 7.03747 7.07604 7.16747 6.94687L13.9842 0.173571C14.2144 -0.057857 14.5936 -0.057857 14.8265 0.173571C15.0594 0.402308 15.0594 0.779051 14.8265 1.01048L8.37536 7.42049ZM1.38122 7.57951L7.83233 13.9895C8.06524 14.2209 8.06524 14.5977 7.83233 14.8264C7.60212 15.0579 7.22297 15.0579 6.99005 14.8264L0.173329 8.05313C0.0433322 7.92396 -0.0135414 7.74904 0.00270828 7.57951C-0.0135413 7.40997 0.0433322 7.23506 0.173329 7.10589L6.99005 0.332586C7.22026 0.101158 7.59942 0.101158 7.83233 0.332586C8.06524 0.561323 8.06524 0.938065 7.83233 1.16949L1.38122 7.57951Z"
          fill="#5AC804"/>
</svg>
