<svg width="40" height="30" viewBox="0 0 40 30" fill="none" xmlns="http://www.w3.org/2000/svg">
    <path d="M16.5073 17.8444C16.1308 17.8444 15.7732 17.9729 15.4861 18.2074L15.3675 18.3154L6.39812 27.2552C5.77035 27.8807 5.77035 28.9008 6.39529 29.529C6.5439 29.6785 6.72117 29.7971 6.91672 29.878C7.11226 29.9589 7.32216 30.0003 7.53412 30C7.91059 30 8.26823 29.8725 8.55529 29.637L8.67388 29.529L17.6471 20.5892C17.949 20.2863 18.1183 19.8781 18.1183 19.4528C18.1183 19.0274 17.949 18.6192 17.6471 18.3163C17.4985 18.1667 17.3213 18.0479 17.1257 17.9668C16.9302 17.8858 16.7203 17.8442 16.5082 17.8444H16.5073ZM19.0588 24.1912L18.0612 25.995L16.2353 26.9816L18.0612 27.9691L19.0588 29.7757L20.0565 27.97L21.8824 26.9834L20.0584 25.9968L19.0607 24.1912H19.0588ZM32.2259 21.399L30.8904 23.8124L28.448 25.1322L30.8904 26.4529L32.2259 28.8682L33.5605 26.4529V26.4548L36 25.134L33.5614 23.8142L32.2268 21.399H32.2259ZM16.1976 2.46288L16.2052 2.63972L16.5365 8.10321L12.5544 11.8262C10.8819 13.3927 11.28 15.1266 13.3967 15.7568L13.5718 15.8052L18.8593 17.1734L21.1981 22.1268C22.1647 24.1782 23.92 24.3457 25.1755 22.5466L25.2828 22.3883L28.2334 17.7746L33.6527 17.0924C35.9304 16.8057 36.6447 15.1881 35.3073 13.4401L35.1944 13.2977L31.7054 9.07212L32.7369 3.69891C33.1652 1.46791 31.8146 0.309126 29.7252 1.04349L29.5586 1.10492L24.4781 3.09392L19.6904 0.472938C17.6781 -0.63093 16.144 0.26445 16.1986 2.46288H16.1976ZM20.128 3.99675L20.2353 4.05073L24.2616 6.25661L28.5412 4.58126C29.2367 4.30948 29.7007 4.652 29.6235 5.32865L29.6066 5.44407L28.7407 9.95819L31.6621 13.495C32.1355 14.0721 31.9511 14.6147 31.2696 14.7525L31.1511 14.772L26.5911 15.3472L24.1158 19.2089C23.7139 19.8372 23.1426 19.8297 22.7981 19.2331L22.7398 19.1214L20.7821 14.9759L16.3341 13.8264C15.6094 13.6393 15.4381 13.092 15.9106 12.5773L15.9953 12.4917L19.3459 9.356L19.0682 4.76927C19.024 4.03398 19.4946 3.71101 20.128 3.99675ZM8.23623 0.931797L6.73882 3.63934L4 5.1183L6.73882 6.60005L8.23529 9.30853L9.73459 6.60005L12.4706 5.12016L9.73365 3.63934L8.23623 0.930866V0.931797Z"
          fill="url(#paint0_linear_130_8841)"/>
    <defs>
        <linearGradient id="paint0_linear_130_8841" x1="2.5" y1="33.5" x2="31.3885" y2="8.69988"
                        gradientUnits="userSpaceOnUse">
            <stop stop-color="#F8F6F5"/>
            <stop offset="1" stop-color="#70FF00"/>
        </linearGradient>
    </defs>
</svg>
