<svg width="20" height="16" viewBox="0 0 20 16" fill="none" xmlns="http://www.w3.org/2000/svg">
    <g id="Group 1171276108">
        <path id="Vector"
              d="M17.3361 2.92143C17.6039 2.11571 17.5504 1.41661 17.1218 0.932856L17.0682 0.879284C16.5861 0.449106 15.8902 0.395534 15.0866 0.664463C14.3902 0.879284 13.7473 1.30946 13.1586 1.84678L11.7657 3.24446L5.44643 1.73911C5.17857 1.68553 4.85714 1.73911 4.64286 1.95446L3.35714 3.24446C3.19643 3.40518 3.08929 3.67464 3.14286 3.99714C3.19643 4.26553 3.35714 4.48089 3.57143 4.58803L8.01732 7.00732L6.14232 8.88822L4.53571 8.45857C4.42857 8.405 4.32143 8.405 4.26786 8.405C4.05357 8.405 3.83929 8.51214 3.67857 8.67339L2.76786 9.64089C2.55357 9.80214 2.5 10.0711 2.5 10.2859C2.5 10.5548 2.66071 10.7696 2.82143 10.8773L5.28518 12.7046L7.10661 15.1775C7.26732 15.3923 7.48161 15.5 7.69589 15.5H7.74893C7.96322 15.5 8.1775 15.3929 8.33822 15.2311L9.3025 14.2636C9.51679 14.0487 9.62393 13.7263 9.51679 13.4573L9.08822 11.8448L10.9627 9.96339L13.3729 14.4248C13.5336 14.6938 13.7479 14.8014 13.9086 14.855C14.0157 14.9086 14.0693 14.9086 14.1229 14.9086C14.3371 14.9086 14.4979 14.855 14.6586 14.7479L15.9438 13.7798C16.2116 13.565 16.3188 13.2425 16.2652 12.92L14.7652 6.25464L16.158 4.85696C16.6938 4.31964 17.1223 3.67464 17.3366 2.92196L17.3361 2.92143ZM13.5711 5.94821L15.2013 13.0786L14.223 13.7804L11.1802 8.27053L7.81054 11.6198L8.40786 13.7262L7.75589 14.4286L6.01696 12.1057L3.57143 10.2693L4.27804 9.5675L6.39732 10.1611L9.76697 6.81232L4.16875 3.78714L5.1475 2.81482L12.0491 4.43536L13.8973 2.65303C14.3313 2.22071 14.875 1.89661 15.4188 1.68071C16.0166 1.46482 16.2336 1.62661 16.3423 1.68071C16.397 1.78839 16.5057 2.00482 16.3423 2.59893C16.1623 3.18375 15.8237 3.70723 15.3641 4.11125L13.5711 5.94768V5.94821Z"
              fill="#FF7B30"/>
    </g>
</svg>
