<svg width="40" height="30" viewBox="0 0 40 30" fill="none" xmlns="http://www.w3.org/2000/svg">
    <g id="Group 1171276108">
        <path id="Vector"
              d="M34.6721 4.84285C35.2079 3.23143 35.1007 1.83321 34.2436 0.865711L34.1364 0.758568C33.1721 -0.101789 31.7804 -0.208932 30.1732 0.328925C28.7804 0.758568 27.4946 1.61893 26.3171 2.69357L23.5314 5.48893L10.8929 2.47821C10.3571 2.37107 9.71429 2.47821 9.28572 2.90893L6.71429 5.48893C6.39286 5.81036 6.17857 6.34928 6.28571 6.99428C6.39286 7.53107 6.71429 7.96178 7.14286 8.17607L16.0346 13.0146L12.2846 16.7764L9.07143 15.9171C8.85714 15.81 8.64286 15.81 8.53572 15.81C8.10714 15.81 7.67857 16.0243 7.35714 16.3468L5.53571 18.2818C5.10714 18.6043 5 19.1421 5 19.5718C5 20.1096 5.32143 20.5393 5.64286 20.7546L10.5704 24.4093L14.2132 29.355C14.5346 29.7846 14.9632 30 15.3918 30H15.4979C15.9264 30 16.355 29.7857 16.6764 29.4621L18.605 27.5271C19.0336 27.0975 19.2479 26.4525 19.0336 25.9146L18.1764 22.6896L21.9254 18.9268L26.7457 27.8496C27.0671 28.3875 27.4957 28.6029 27.8171 28.71C28.0314 28.8171 28.1386 28.8171 28.2457 28.8171C28.6743 28.8171 28.9957 28.71 29.3171 28.4957L31.8875 26.5596C32.4232 26.13 32.6375 25.485 32.5304 24.84L29.5304 11.5093L32.3161 8.71393C33.3875 7.63928 34.2446 6.34928 34.6732 4.84393L34.6721 4.84285ZM27.1421 10.8964L30.4025 25.1571L28.4461 26.5607L22.3604 15.5411L15.6211 22.2396L16.8157 26.4525L15.5118 27.8571L12.0339 23.2114L7.14286 19.5386L8.55607 18.135L12.7946 19.3221L19.5339 12.6246L8.3375 6.57428L10.295 4.62964L24.0982 7.87071L27.7946 4.30607C28.6625 3.44143 29.75 2.79321 30.8375 2.36143C32.0332 1.92964 32.4671 2.25321 32.6846 2.36143C32.7939 2.57678 33.0114 3.00964 32.6846 4.19786C32.3246 5.3675 31.6473 6.41446 30.7282 7.2225L27.1421 10.8954V10.8964Z"
              fill="url(#paint0_linear_130_8811)"/>
    </g>
    <defs>
        <linearGradient id="paint0_linear_130_8811" x1="-10.3748" y1="11" x2="19.6707" y2="-10.4608"
                        gradientUnits="userSpaceOnUse">
            <stop stop-color="#F8F6F5"/>
            <stop offset="1" stop-color="#70FF00"/>
        </linearGradient>
    </defs>
</svg>
