<svg width="40" height="30" viewBox="0 0 40 30" fill="none" xmlns="http://www.w3.org/2000/svg">
    <g id="Group 1171276350">
        <path id="Vector"
              d="M16.0045 17.5578H10.1012C9.33048 17.5578 8.79881 16.788 9.07308 16.0698L14.939 0.706833C15.0184 0.498984 15.1591 0.320096 15.3427 0.193869C15.5262 0.0676427 15.7438 3.39449e-05 15.9668 0H25.8653C26.6463 0 27.1787 0.789516 26.8839 1.51135L23.4684 9.87627H29.8982C30.8438 9.87627 31.3484 10.9885 30.7247 11.6975L14.9603 29.6208C14.1939 30.4922 12.7731 29.7371 13.0705 28.6165L16.0045 17.5578ZM16.7247 2.19513L11.6969 15.363H17.4331C17.6015 15.363 17.7676 15.4016 17.9187 15.4758C18.0698 15.55 18.2018 15.6579 18.3046 15.791C18.4073 15.9242 18.478 16.0791 18.5113 16.2438C18.5445 16.4086 18.5394 16.5787 18.4964 16.7412L16.395 24.6627L27.4698 12.071H21.8327C21.0517 12.071 20.5193 11.2815 20.8141 10.5597L24.2296 2.19477H16.7247V2.19513Z"
              fill="url(#paint0_linear_130_8824)"/>
    </g>
    <defs>
        <linearGradient id="paint0_linear_130_8824" x1="-2.275" y1="11" x2="23.8358" y2="-2.67708"
                        gradientUnits="userSpaceOnUse">
            <stop offset="0.0104167" stop-color="#70FF00"/>
            <stop offset="0.84375" stop-color="#F8F6F5"/>
        </linearGradient>
    </defs>
</svg>
