<svg width="20" height="16" viewBox="0 0 20 16" fill="none" xmlns="http://www.w3.org/2000/svg">
    <g id="Group 1171276347">
        <path id="Vector"
              d="M8.00226 9.27889H5.0506C4.66524 9.27889 4.39941 8.89401 4.53654 8.53492L7.4695 0.853416C7.50918 0.749492 7.57956 0.660048 7.67133 0.596935C7.7631 0.533821 7.87192 0.500017 7.98338 0.5H12.9326C13.3231 0.5 13.5893 0.894758 13.4419 1.25567L11.7342 5.43814H14.9491C15.4219 5.43814 15.6742 5.99424 15.3623 6.34875L7.48013 15.3104C7.09697 15.7461 6.38655 15.3686 6.53523 14.8082L8.00226 9.27889ZM8.36233 1.59757L5.84847 8.1815H8.71653C8.80073 8.18151 8.88382 8.20081 8.95937 8.23792C9.03492 8.27502 9.10092 8.32894 9.15229 8.39552C9.20365 8.4621 9.23901 8.53955 9.25564 8.62192C9.27227 8.70429 9.26972 8.78936 9.24819 8.87059L8.19751 12.8313L13.7349 6.53552H10.9163C10.5258 6.53552 10.2596 6.14076 10.407 5.77984L12.1148 1.59738H8.36233V1.59757Z"
              fill="#5AC804"/>
    </g>
</svg>
