<svg width="20" height="16" viewBox="0 0 20 16" fill="none" xmlns="http://www.w3.org/2000/svg">
    <g id="Group 1171276525">
        <path id="Vector"
              d="M14.75 5.75C14.576 5.75 14.4055 5.7636 14.2372 5.784L12.867 1.5H10.5C10.3497 1.5 10.2056 1.5597 10.0993 1.66597C9.99304 1.77224 9.93333 1.91638 9.93333 2.06667C9.93333 2.21696 9.99304 2.36109 10.0993 2.46736C10.2056 2.57363 10.3497 2.63333 10.5 2.63333H12.0391L12.4153 3.80973L6.6053 7.32363L5.35353 5.325H5.96667C6.11696 5.325 6.26109 5.2653 6.36736 5.15903C6.47363 5.05276 6.53333 4.90862 6.53333 4.75833C6.53333 4.60804 6.47363 4.46391 6.36736 4.35764C6.26109 4.25137 6.11696 4.19167 5.96667 4.19167H3.13333C2.98304 4.19167 2.83891 4.25137 2.73264 4.35764C2.62637 4.46391 2.56667 4.60804 2.56667 4.75833C2.56667 4.90862 2.62637 5.05276 2.73264 5.15903C2.83891 5.2653 2.98304 5.325 3.13333 5.325H4.0162L5.35467 7.4619C5.2759 7.45623 5.19713 7.45 5.11667 7.45C3.39797 7.45 2 8.84853 2 10.5667C2 12.2848 3.39797 13.6833 5.11667 13.6833C6.83537 13.6833 8.23333 12.2848 8.23333 10.5667C8.23299 10.1355 8.14294 9.70922 7.9689 9.31479C7.79485 8.92037 7.54063 8.56648 7.2224 8.27563L12.7706 4.91927L13.139 6.0696C11.592 6.70597 10.5 8.2269 10.5 10C10.5 12.3437 12.4063 14.25 14.75 14.25C17.0937 14.25 19 12.3437 19 10C19 7.65627 17.0937 5.75 14.75 5.75ZM5.11667 12.55C4.023 12.55 3.13333 11.6603 3.13333 10.5667C3.13333 9.473 4.023 8.58333 5.11667 8.58333C6.21033 8.58333 7.1 9.473 7.1 10.5667C7.1 11.6603 6.21033 12.55 5.11667 12.55ZM14.75 13.1167C13.9237 13.1156 13.1316 12.7869 12.5473 12.2027C11.9631 11.6184 11.6344 10.8263 11.6333 10C11.6343 9.39741 11.8097 8.80799 12.1384 8.30297C12.4672 7.79795 12.9351 7.39896 13.4858 7.1542L14.4905 10.2947C14.5132 10.3655 14.5496 10.4312 14.5977 10.488C14.6458 10.5447 14.7045 10.5915 14.7707 10.6255C14.8368 10.6596 14.909 10.6802 14.9832 10.6864C15.0573 10.6925 15.1319 10.684 15.2028 10.6613C15.2736 10.6386 15.3393 10.6022 15.3961 10.5541C15.4528 10.506 15.4996 10.4472 15.5336 10.3811C15.5677 10.3149 15.5883 10.2427 15.5945 10.1686C15.6006 10.0945 15.5921 10.0198 15.5694 9.949L14.5913 6.89127C14.644 6.889 14.6967 6.88333 14.75 6.88333C16.4681 6.88333 17.8667 8.28187 17.8667 10C17.8667 11.7181 16.4681 13.1167 14.75 13.1167Z"
              fill="#FF4848"/>
    </g>
</svg>
