<svg width="40" height="30" viewBox="0 0 40 30" fill="none" xmlns="http://www.w3.org/2000/svg">
    <path id="Vector"
          d="M30 10C29.5907 10 29.1893 10.032 28.7933 10.08L25.5693 0H20C19.6464 0 19.3072 0.140476 19.0572 0.390525C18.8071 0.640573 18.6667 0.979711 18.6667 1.33333C18.6667 1.68696 18.8071 2.02609 19.0572 2.27614C19.3072 2.52619 19.6464 2.66667 20 2.66667H23.6213L24.5067 5.43467L10.836 13.7027L7.89067 9H9.33333C9.68696 9 10.0261 8.85952 10.2761 8.60948C10.5262 8.35943 10.6667 8.02029 10.6667 7.66667C10.6667 7.31304 10.5262 6.97391 10.2761 6.72386C10.0261 6.47381 9.68696 6.33333 9.33333 6.33333H2.66667C2.31304 6.33333 1.97391 6.47381 1.72386 6.72386C1.47381 6.97391 1.33333 7.31304 1.33333 7.66667C1.33333 8.02029 1.47381 8.35943 1.72386 8.60948C1.97391 8.85952 2.31304 9 2.66667 9H4.744L7.89333 14.028C7.708 14.0147 7.52267 14 7.33333 14C3.28933 14 0 17.2907 0 21.3333C0 25.376 3.28933 28.6667 7.33333 28.6667C11.3773 28.6667 14.6667 25.376 14.6667 21.3333C14.6659 20.3189 14.454 19.3158 14.0445 18.3878C13.635 17.4597 13.0368 16.627 12.288 15.9427L25.3427 8.04533L26.2093 10.752C22.5693 12.2493 20 15.828 20 20C20 25.5147 24.4853 30 30 30C35.5147 30 40 25.5147 40 20C40 14.4853 35.5147 10 30 10ZM7.33333 26C4.76 26 2.66667 23.9067 2.66667 21.3333C2.66667 18.76 4.76 16.6667 7.33333 16.6667C9.90667 16.6667 12 18.76 12 21.3333C12 23.9067 9.90667 26 7.33333 26ZM30 27.3333C28.0558 27.3309 26.192 26.5575 24.8173 25.1827C23.4425 23.808 22.6691 21.9442 22.6667 20C22.6688 18.5822 23.0816 17.1953 23.8551 16.007C24.6286 14.8187 25.7297 13.8799 27.0253 13.304L29.3893 20.6933C29.4427 20.86 29.5285 21.0146 29.6416 21.1481C29.7547 21.2817 29.893 21.3917 30.0487 21.4718C30.2043 21.5519 30.3742 21.6006 30.5486 21.615C30.7231 21.6295 30.8986 21.6094 31.0653 21.556C31.232 21.5026 31.3866 21.4169 31.5201 21.3038C31.6537 21.1906 31.7637 21.0523 31.8438 20.8967C31.9239 20.741 31.9726 20.5711 31.987 20.3967C32.0015 20.2223 31.9814 20.0467 31.928 19.88L29.6267 12.6853C29.7507 12.68 29.8747 12.6667 30 12.6667C34.0427 12.6667 37.3333 15.9573 37.3333 20C37.3333 24.0427 34.0427 27.3333 30 27.3333Z"
          fill="url(#paint0_linear_130_8830)"/>
    <defs>
        <linearGradient id="paint0_linear_130_8830" x1="-20.5" y1="11" x2="11.2248" y2="-19.214"
                        gradientUnits="userSpaceOnUse">
            <stop offset="0.0104167" stop-color="#70FF00"/>
            <stop offset="0.84375" stop-color="#F8F6F5"/>
        </linearGradient>
    </defs>
</svg>
