<svg width="183" height="31" viewBox="0 0 183 31" fill="none" xmlns="http://www.w3.org/2000/svg">
    <path fill-rule="evenodd" clip-rule="evenodd"
          d="M15.5697 1.67096C16.3341 1.67096 16.9537 1.29691 16.9537 0.835481C16.9537 0.374057 16.3341 0 15.5697 0C14.8053 0 14.1856 0.374057 14.1856 0.835481C14.1856 1.29691 14.8053 1.67096 15.5697 1.67096ZM0.859988 16.863C1.33494 16.863 1.71997 16.2627 1.71997 15.5222C1.71997 14.7817 1.33494 14.1814 0.859988 14.1814C0.385029 14.1814 0 14.7817 0 15.5222C0 16.2627 0.385029 16.863 0.859988 16.863ZM17.1094 4.49783C17.1094 5.25873 16.4207 5.87556 15.5714 5.87556C14.7219 5.87556 14.0334 5.25873 14.0334 4.49783C14.0334 3.73694 14.7219 3.12012 15.5714 3.12012C16.4207 3.12012 17.1094 3.73694 17.1094 4.49783ZM15.5697 31C16.3341 31 16.9537 30.626 16.9537 30.1645C16.9537 29.7031 16.3341 29.329 15.5697 29.329C14.8053 29.329 14.1856 29.7031 14.1856 30.1645C14.1856 30.626 14.8053 31 15.5697 31ZM11.7437 0.531255C11.8862 0.843116 11.5492 1.30098 10.9909 1.55392C10.4325 1.80687 9.86433 1.75911 9.72176 1.44725C9.57918 1.13539 9.91623 0.677521 10.4745 0.424577C11.033 0.171632 11.6011 0.219394 11.7437 0.531255ZM6.10004 3.6496C6.48297 3.40413 6.70134 3.06282 6.58778 2.88728C6.47422 2.71173 6.07173 2.76843 5.6888 3.01389C5.30586 3.25937 5.08749 3.60068 5.20106 3.77622C5.31462 3.95177 5.71711 3.89508 6.10004 3.6496ZM25.6482 3.01246C26.0312 3.25794 26.2496 3.59925 26.136 3.77479C26.0224 3.95034 25.6199 3.89364 25.237 3.64818C24.854 3.4027 24.6357 3.06139 24.7493 2.88585C24.8628 2.7103 25.2653 2.76699 25.6482 3.01246ZM6.58778 28.203C6.70134 28.0275 6.48297 27.6862 6.10004 27.4407C5.71711 27.1953 5.31462 27.1385 5.20106 27.3141C5.0875 27.4896 5.30586 27.831 5.6888 28.0764C6.07173 28.3219 6.47422 28.3786 6.58778 28.203ZM26.136 27.3155C26.2496 27.4911 26.0312 27.8324 25.6482 28.0778C25.2653 28.3233 24.8628 28.38 24.7493 28.2044C24.6357 28.029 24.854 27.6876 25.237 27.4421C25.6199 27.1967 26.0224 27.1399 26.136 27.3155ZM11.7633 30.5901C11.9058 30.2783 11.5688 29.8204 11.0105 29.5675C10.452 29.3145 9.88386 29.3623 9.74128 29.6741C9.59871 29.9861 9.93576 30.4439 10.4941 30.6968C11.0525 30.9497 11.6207 30.9021 11.7633 30.5901ZM3.55032 6.30342C3.82116 6.50887 3.72293 7.09052 3.33093 7.60256C2.93893 8.11461 2.40161 8.36315 2.13078 8.15771C1.85996 7.95225 1.95818 7.3706 2.35018 6.85856C2.74218 6.34651 3.2795 6.09797 3.55032 6.30342ZM3.0838 24.6577C3.38508 24.4997 3.38505 23.91 3.08373 23.3403C2.78241 22.7707 2.29389 22.4369 1.99261 22.5949C1.69132 22.7528 1.69135 23.3426 1.99267 23.9122C2.29399 24.4819 2.78251 24.8156 3.0838 24.6577ZM29.1987 6.85882C29.5906 7.37086 29.6888 7.95251 29.418 8.15795C29.1472 8.36341 28.6098 8.11487 28.2179 7.60282C27.8258 7.09078 27.7277 6.50913 27.9985 6.30367C28.2693 6.09823 28.8066 6.34677 29.1987 6.85882ZM29.5529 23.9104C29.8543 23.3408 29.8543 22.7509 29.553 22.5931C29.2517 22.4351 28.7632 22.7689 28.4619 23.3385C28.1605 23.9081 28.1605 24.4979 28.4618 24.6559C28.763 24.8138 29.2516 24.48 29.5529 23.9104ZM31.3177 15.5222C31.3177 16.2627 30.9326 16.863 30.4577 16.863C29.9827 16.863 29.5977 16.2627 29.5977 15.5222C29.5977 14.7817 29.9827 14.1814 30.4577 14.1814C30.9326 14.1814 31.3177 14.7817 31.3177 15.5222ZM21.594 1.44968C21.7365 1.13782 21.3995 0.679947 20.8412 0.427003C20.2828 0.174058 19.7146 0.221821 19.572 0.533682C19.4295 0.845544 19.7665 1.30341 20.3248 1.55635C20.8832 1.8093 21.4514 1.76154 21.594 1.44968ZM21.5784 29.6679C21.721 29.9797 21.3839 30.4375 20.8256 30.6906C20.2671 30.9435 19.699 30.8957 19.5564 30.5839C19.4139 30.272 19.7509 29.8141 20.3092 29.5612C20.8676 29.3082 21.4358 29.356 21.5784 29.6679ZM23.3161 12.3754C22.4093 12.1191 21.8694 11.0631 21.9577 10.1743C22.0411 9.32611 22.7915 8.7051 23.6442 9.01955C24.4969 9.33399 25.1098 10.2622 25.0391 11.1631C25.0264 11.3641 24.9686 11.5598 24.8699 11.7358C24.7713 11.9117 24.6343 12.0633 24.469 12.1796C24.3037 12.2958 24.1144 12.3738 23.9149 12.4077C23.7154 12.4416 23.5108 12.4305 23.3161 12.3754ZM19.0863 5.11752C18.9998 6.0148 19.5646 6.9557 20.4338 7.24712C21.2225 7.51491 22.0265 7.02295 22.0466 6.17112C22.0673 5.30352 21.4557 4.402 20.6541 4.07363C19.8635 3.74949 19.163 4.32203 19.0863 5.11752ZM25.7458 17.4166C24.8237 17.2252 24.444 16.1552 24.5895 15.3156C24.735 14.4758 25.4756 13.7361 26.3763 13.9948C27.2418 14.2431 27.7294 15.1913 27.562 16.048C27.4025 16.8641 26.618 17.5972 25.7458 17.4166ZM27.0821 20.062C26.9227 20.5455 27.0244 21.3816 27.6878 21.4112C28.3384 21.4403 28.9379 20.78 29.1673 20.2486C29.3967 19.7173 29.1552 19.0102 28.5587 18.9242C27.9062 18.8303 27.2745 19.4773 27.0821 20.062ZM24.5231 26.049C23.842 26.1204 23.9479 25.1607 24.0586 24.8184C24.2455 24.2416 24.9022 23.5612 25.5802 23.5771C26.2023 23.5916 26.2583 24.3356 26.0209 24.7827C25.75 25.2898 25.1493 25.9835 24.5231 26.049ZM5.30338 24.3507C5.3825 25.0069 5.94488 25.6667 6.52489 25.9763C6.99354 26.2265 7.59364 26.0163 7.52669 25.3995C7.45488 24.7379 6.94607 24.0278 6.34536 23.734C5.84384 23.4899 5.23522 23.7637 5.30338 24.3507ZM3.29442 21.3219C2.71805 21.0796 2.14595 20.4082 2.16421 19.7503C2.16797 19.6132 2.20478 19.4789 2.27153 19.3588C2.33828 19.2387 2.43303 19.1364 2.5478 19.0605C2.66256 18.9844 2.79398 18.937 2.93102 18.9221C3.06804 18.9072 3.20666 18.9252 3.3352 18.9748C3.96513 19.2171 4.41551 19.9441 4.43073 20.5997C4.4429 21.2268 3.82819 21.5479 3.29442 21.3219ZM2.2462 11.0951C2.0636 11.6022 2.22306 12.3522 2.8609 12.4279C3.51944 12.5062 4.1445 11.876 4.33317 11.2902C4.50541 10.7691 4.37395 9.96639 3.72454 9.93485C3.09826 9.90517 2.45556 10.5159 2.2462 11.0951ZM5.85897 7.74757C5.18949 7.76878 5.22417 6.94179 5.41164 6.53585C5.66909 5.97846 6.28745 5.30657 6.90885 5.27143C7.58383 5.23265 7.51018 6.10085 7.37993 6.50738C7.1943 7.08476 6.53455 7.72576 5.85897 7.74757ZM23.9277 5.95193C23.9624 6.64199 24.4749 7.34843 25.1078 7.61865C25.5624 7.81252 26.2667 7.63258 26.1559 6.99521C26.0451 6.35785 25.4767 5.69079 24.9356 5.36908C24.4298 5.06798 23.8985 5.38241 23.9277 5.95193ZM28.0754 12.4064C27.4272 12.1968 26.961 11.4504 26.9878 10.7803C27.0091 10.2023 27.5642 9.78853 28.1302 10.0478C28.6962 10.3071 29.2337 10.982 29.255 11.6231C29.2738 12.2508 28.6043 12.576 28.0754 12.4064ZM19.1381 25.4761C18.9512 26.1844 19.1989 27.2314 20.0681 27.315C20.9311 27.398 21.6712 26.5559 21.9328 25.8113C22.1885 25.0763 21.9474 24.1106 21.0576 23.9936C20.1448 23.8725 19.3566 24.6498 19.1381 25.4761ZM15.3989 27.6808C14.534 27.4639 14.0484 26.4897 14.1767 25.6487C14.3106 24.7703 15.1506 24.1305 16.0373 24.334C16.943 24.5418 17.4037 25.5021 17.2095 26.3661C17.0264 27.1707 16.268 27.8996 15.3989 27.6808ZM9.33707 25.1202C9.31881 25.9866 9.93169 26.8863 10.7314 27.2165C11.519 27.5418 12.2183 26.9723 12.2926 26.1786C12.3772 25.282 11.8118 24.3429 10.9439 24.0496C10.1581 23.7843 9.35471 24.272 9.33707 25.1202ZM4.97825 17.39C4.11583 17.1392 3.62283 16.1958 3.78656 15.3392C3.94297 14.5231 4.72567 13.7936 5.59418 13.9766C6.51503 14.171 6.89908 15.2392 6.75665 16.0795C6.61423 16.9198 5.87536 17.6499 4.97825 17.39ZM6.4939 10.4213C6.24923 11.2228 6.59128 12.2104 7.49266 12.3782C8.43358 12.5538 9.23271 11.7432 9.44452 10.8913C9.63745 10.1147 9.352 9.02895 8.42932 8.91384C7.52856 8.80176 6.73857 9.61967 6.4939 10.4213ZM10.3996 7.30496C9.50925 7.18378 9.26458 6.22046 9.5202 5.48314C9.77583 4.7458 10.5195 3.89457 11.3814 3.97939C12.2432 4.06421 12.5025 5.11113 12.3156 5.82241C12.1008 6.65002 11.3108 7.42552 10.3996 7.30496ZM10.0526 22.3582C8.50303 23.0998 7.71912 22.7363 6.98146 22.0147L6.98024 22.0111C6.58544 21.5904 6.34892 21.0466 6.31075 20.4721C6.22372 19.1363 7.30464 18.2856 8.0916 18.299C8.11063 18.2995 8.13238 18.2997 8.15657 18.2999C8.35215 18.3017 8.70684 18.3052 9.0654 18.4583C9.22466 18.5269 9.37625 18.6447 9.53023 18.7645C9.65399 18.8606 9.77931 18.9581 9.91139 19.0321C10.775 19.5161 11.3916 19.6215 12.0002 19.5986C12.548 19.5774 13.0921 19.4822 13.8833 19.0466C14.8722 18.5013 15.3744 18.3808 16.0287 18.4893C16.7992 18.6153 17.2648 19.0321 17.5776 19.5307C18.3804 20.8248 17.8023 22.5248 16.0372 22.9235C15.4834 23.0495 14.8978 22.9623 13.9241 22.4388C12.2698 21.5307 11.5949 21.6051 10.0526 22.3582ZM17.0092 13.7656C16.7724 14.8441 16.9873 15.8122 18.6938 16.8198C20.3499 17.7989 20.7413 18.3272 20.7584 20.2005C20.7584 21.291 20.9525 21.8048 21.3177 22.1653C22.4851 23.2977 24.0747 22.7445 24.7327 21.4686C24.9883 20.9681 25.1185 20.4023 24.911 19.7449C24.7284 19.1827 24.4539 18.8561 23.5951 18.3429C22.8995 17.9279 22.5507 17.5232 22.2598 17.0706C21.9323 16.5647 21.6987 15.98 21.6275 14.9713C21.6168 14.823 21.627 14.6691 21.6371 14.5166V14.5165C21.6507 14.3133 21.664 14.1122 21.6275 13.9299C21.5494 13.5259 21.3382 13.1966 21.2227 13.0167L21.2226 13.0165C21.2103 12.9973 21.1991 12.9798 21.1892 12.9641C20.7371 12.2419 19.3086 11.6052 18.067 12.3406C17.5386 12.6576 17.1576 13.1699 17.0074 13.7656H17.0092ZM14.351 13.8001C14.2621 15.7643 13.505 16.4095 12.4363 16.7045V16.7052C11.8358 16.8519 11.2015 16.7568 10.6713 16.4405C9.43271 15.6916 9.34204 14.1436 9.77598 13.4166C9.78578 13.4002 9.7966 13.3816 9.80849 13.3611C9.91567 13.1771 10.1105 12.8426 10.4314 12.5896C10.5751 12.4751 10.7581 12.3948 10.9433 12.3136C11.0844 12.2516 11.2269 12.1891 11.3541 12.1103C12.2117 11.582 12.6176 11.1095 12.9104 10.5957C13.174 10.1389 13.3662 9.65238 13.4082 8.8787C13.4618 7.92628 13.62 7.55974 14.023 7.16593C14.4971 6.71154 15.0412 6.574 15.589 6.55461C16.9785 6.511 18.2371 7.48097 17.8111 9.01441C17.6711 9.49364 17.312 9.90442 16.3553 10.4224C14.7205 11.3209 14.4393 11.8959 14.351 13.8001Z"
          fill="#213027"/>
    <path fill-rule="evenodd" clip-rule="evenodd"
          d="M70.6892 9.36671C71.0922 9.73587 71.592 9.92047 72.1887 9.92047C72.7853 9.92047 73.277 9.73587 73.6641 9.36671C74.0671 8.98149 74.2687 8.50799 74.2687 7.94621C74.2687 7.38443 74.0671 6.91895 73.6641 6.54979C73.277 6.16457 72.7853 5.97195 72.1887 5.97195C71.592 5.97195 71.0922 6.16457 70.6892 6.54979C70.3021 6.91895 70.1086 7.38443 70.1086 7.94621C70.1086 8.50799 70.3021 8.98149 70.6892 9.36671ZM73.8575 24.8478V11.5095H70.4715V24.8478H73.8575ZM59.7332 19.1658L64.2802 24.8478H68.682L62.7323 18.2027L68.6337 11.5095H64.2318L59.7332 17.1674V7.03131H56.3471V24.8478H59.7332V19.1658ZM49.3858 21.6456H42.6621L41.5495 24.8478H37.9941L44.0649 8.01844H48.0072L54.0779 24.8478H50.4984L49.3858 21.6456ZM48.4668 18.9491L46.0239 11.9188L43.5811 18.9491H48.4668ZM94.0191 24.8478H97.4052V8.01844H94.0191V19.575L86.3521 8.01844H82.966V24.8478H86.3521V13.3152L94.0191 24.8478ZM113.11 19.1899C113.175 18.8046 113.207 18.3712 113.207 17.8897C113.207 16.5896 112.925 15.442 112.361 14.4468C111.813 13.4356 111.031 12.6571 110.015 12.1114C109.015 11.5657 107.878 11.2928 106.604 11.2928C105.282 11.2928 104.113 11.5737 103.098 12.1355C102.082 12.6973 101.292 13.4998 100.727 14.5431C100.163 15.5864 99.8807 16.7983 99.8807 18.1786C99.8807 19.543 100.163 20.7467 100.727 21.79C101.308 22.8333 102.106 23.6439 103.122 24.2217C104.154 24.7836 105.315 25.0645 106.604 25.0645C108.201 25.0645 109.547 24.6552 110.644 23.8365C111.74 23.0019 112.482 21.9425 112.869 20.6585H109.217C108.684 21.7339 107.79 22.2716 106.532 22.2716C105.661 22.2716 104.928 21.9988 104.331 21.453C103.734 20.9073 103.396 20.1528 103.315 19.1899H113.11ZM108.757 14.8561C109.37 15.3697 109.684 16.06 109.7 16.9267H103.339C103.468 16.0278 103.815 15.3296 104.379 14.832C104.96 14.3184 105.669 14.0616 106.508 14.0616C107.395 14.0616 108.144 14.3264 108.757 14.8561ZM119.621 20.7307V14.2783H122.62V11.5095H119.621V8.21105H116.211V11.5095H114.615V14.2783H116.211V20.7066C116.211 23.4674 117.638 24.8478 120.492 24.8478H122.62V22.0067H121.048C120.532 22.0067 120.161 21.9105 119.936 21.7179C119.726 21.5092 119.621 21.1801 119.621 20.7307ZM143.63 11.5095L139.713 24.8478H136.06L133.618 15.5302L131.175 24.8478H127.499L123.556 11.5095H126.991L129.361 21.6697L131.925 11.5095H135.504L138.019 21.6456L140.39 11.5095H143.63ZM151.412 25.0645C150.122 25.0645 148.962 24.7836 147.93 24.2217C146.898 23.6439 146.084 22.8333 145.487 21.79C144.906 20.7467 144.616 19.543 144.616 18.1786C144.616 16.8143 144.914 15.6105 145.511 14.5672C146.124 13.5239 146.954 12.7213 148.003 12.1596C149.051 11.5817 150.219 11.2928 151.509 11.2928C152.799 11.2928 153.968 11.5817 155.016 12.1596C156.065 12.7213 156.887 13.5239 157.483 14.5672C158.096 15.6105 158.402 16.8143 158.402 18.1786C158.402 19.543 158.088 20.7467 157.459 21.79C156.847 22.8333 156.008 23.6439 154.944 24.2217C153.896 24.7836 152.719 25.0645 151.412 25.0645ZM151.412 22.1272C152.025 22.1272 152.598 21.9826 153.13 21.6938C153.678 21.3888 154.113 20.9393 154.436 20.3455C154.758 19.7516 154.92 19.0293 154.92 18.1786C154.92 16.9106 154.581 15.9395 153.904 15.2654C153.243 14.5752 152.428 14.2301 151.461 14.2301C150.493 14.2301 149.679 14.5752 149.019 15.2654C148.373 15.9395 148.051 16.9106 148.051 18.1786C148.051 19.4466 148.365 20.4257 148.994 21.1159C149.638 21.79 150.445 22.1272 151.412 22.1272ZM164.273 13.5801C164.708 12.8738 165.271 12.3201 165.965 11.9188C166.674 11.5175 167.481 11.3169 168.384 11.3169V14.8561H167.489C166.424 14.8561 165.618 15.1048 165.07 15.6025C164.539 16.1001 164.273 16.9668 164.273 18.2027V24.8478H160.886V11.5095H164.273V13.5801ZM174.05 19.1658L178.598 24.8478H182.999L177.05 18.2027L182.951 11.5095H178.55L174.05 17.1674V7.03131H170.665V24.8478H174.05V19.1658Z"
          fill="#213027"/>
</svg>
