<svg width="18" height="18" viewBox="0 0 18 18" fill="none" xmlns="http://www.w3.org/2000/svg">
    <path id="Vector"
          d="M4.16792 13.0437L2.98645 14.2252C2.76958 14.442 2.76958 14.7967 2.98645 15.0136C3.20331 15.2304 3.55798 15.2304 3.77485 15.0136L4.95633 13.8321C5.17319 13.6152 5.17319 13.2605 4.95633 13.0437C4.73946 12.8268 4.38479 12.8268 4.16792 13.0437ZM3.82907 4.62425C4.04819 4.84337 4.40512 4.84337 4.62425 4.62425C4.84337 4.40512 4.84337 4.04819 4.62425 3.82907L3.43148 2.6363C3.21235 2.41717 2.85542 2.41717 2.6363 2.6363C2.41717 2.85542 2.41717 3.21235 2.6363 3.43148L3.82907 4.62425ZM2.25 8.4375H0.5625C0.250753 8.4375 0 8.68825 0 9C0 9.31175 0.253012 9.5625 0.5625 9.5625H2.25C2.56175 9.5625 2.8125 9.31175 2.8125 9C2.8125 8.69051 2.55949 8.4375 2.25 8.4375ZM9 2.8125C9.31175 2.8125 9.5625 2.56175 9.5625 2.25V0.5625C9.5625 0.250753 9.31175 0 9 0C8.68825 0 8.4375 0.250753 8.4375 0.5625V2.25C8.4375 2.56175 8.69051 2.8125 9 2.8125ZM14.4127 4.37575L15.5941 3.19428C15.811 2.97741 15.811 2.62274 15.5941 2.40587C15.3773 2.18901 15.0226 2.18901 14.8057 2.40587L13.6242 3.58735C13.4074 3.80422 13.4074 4.15889 13.6242 4.37575C13.8411 4.59488 14.1958 4.59488 14.4127 4.37575ZM17.4375 8.4375H15.75C15.4383 8.4375 15.1875 8.68825 15.1875 9C15.1875 9.31175 15.4383 9.5625 15.75 9.5625H17.4375C17.7492 9.5625 18 9.31175 18 9C18 8.69051 17.7492 8.4375 17.4375 8.4375ZM14.1709 13.3758C13.9518 13.1566 13.5949 13.1566 13.3758 13.3758C13.1566 13.5949 13.1566 13.9518 13.3758 14.1709L14.5685 15.3637C14.7877 15.5828 15.1446 15.5828 15.3637 15.3637C15.5828 15.1446 15.5828 14.7877 15.3637 14.5685L14.1709 13.3758ZM9 3.93524C6.20105 3.93524 3.93298 6.20331 3.93298 9.00226C3.93298 11.8012 6.20105 14.0693 9 14.0693C11.7989 14.0693 14.067 11.8012 14.067 9.00226C14.067 6.20331 11.7989 3.93524 9 3.93524ZM9 15.1875C8.68825 15.1875 8.4375 15.4383 8.4375 15.75V17.4375C8.4375 17.7492 8.68825 18 9 18C9.31175 18 9.5625 17.7492 9.5625 17.4375V15.75C9.5625 15.4405 9.31175 15.1875 9 15.1875Z"
          fill="#213027"/>
</svg>
