<svg width="15" height="3" viewBox="0 0 15 3" fill="none" xmlns="http://www.w3.org/2000/svg">
    <path id="Union" fill-rule="evenodd" clip-rule="evenodd"
          d="M1.49998 3C0.671866 3 0 2.32834 0 1.5C0 0.671637 0.671883 1.63478e-05 1.49998 0C2.32811 0 2.99998 0.671637 2.99998 1.5C2.99998 2.32836 2.32811 3 1.49998 3ZM13.5 3C12.6719 3 12 2.32834 12 1.5C12 0.671637 12.6719 1.63478e-05 13.5 0C14.3286 0 15 0.671637 15 1.5C15 2.32836 14.3286 3 13.5 3ZM5.92847 1.5C5.92847 2.32834 6.59986 3 7.42848 3C7.44043 3 7.45235 2.99986 7.46424 2.99958C7.47613 2.99986 7.48806 3 7.50001 3C8.32813 3 9 2.32836 9 1.5C9 0.671637 8.32813 0 7.50001 0C7.48806 2.3584e-07 7.47614 0.00014025 7.46425 0.000418491C7.45236 0.000140014 7.44044 0 7.42848 0C6.59986 1.63478e-05 5.92847 0.671637 5.92847 1.5Z"
          fill="#213027"/>
</svg>
