<svg xmlns="http://www.w3.org/2000/svg" width="24" height="24" viewBox="0 0 24 24" fill="none">
  <rect width="24" height="24" fill="#201E1B"/>
  <path d="M15.25 18.4454V10.5439H15.8652C16.1996 10.5439 16.4805 10.7888 16.4805 11.0852V16.1123C16.4805 17.4013 17.6574 18.4454 19.1152 18.4454C20.573 18.4454 21.75 17.4013 21.75 16.1123V6.44484C21.75 5.94214 21.5093 5.4781 21.1348 5.15585L18.9815 3.26102C18.5936 2.91299 17.965 2.91299 17.5772 3.26102C17.1893 3.60905 17.1893 4.16332 17.5772 4.51135L18.9681 5.74879L17.9383 6.70264C17.6039 7.012 17.6039 7.50182 17.9383 7.81118C18.0988 7.96586 18.3261 8.0432 18.5535 8.0432H19.7171V16.1252C19.7171 16.4217 19.4496 16.6666 19.1019 16.6666C18.7675 16.6666 18.4866 16.4217 18.4866 16.1252V11.0981C18.4866 9.80913 17.3097 8.76504 15.8519 8.76504H15.25V4.45979C15.25 3.66061 14.5278 3.029 13.6183 3.029H5.09877C4.20267 3.029 3.46708 3.6735 3.46708 4.45979V18.4454H3.26646C2.70473 18.4454 2.25 18.845 2.25 19.3477C2.25 19.8504 2.70473 20.25 3.26646 20.25H15.4506C16.0123 20.25 16.4671 19.8504 16.4671 19.3477C16.4671 18.845 16.0123 18.4454 15.4506 18.4454H15.25ZM6.39609 4.80782H12.321C12.8158 4.80782 13.2171 5.15585 13.2171 5.59411V9.39665C13.2171 9.83491 12.8158 10.1829 12.321 10.1829H6.39609C5.90123 10.1829 5.5 9.83491 5.5 9.39665V5.59411C5.5 5.15585 5.90123 4.80782 6.39609 4.80782Z" fill="white"/>
</svg>