<svg width="12" height="10" viewBox="0 0 12 10" fill="none" xmlns="http://www.w3.org/2000/svg">
    <path id="Union" fill-rule="evenodd" clip-rule="evenodd"
          d="M0.5 0H0V0.5V2V2.5V3V8.5C0 9.32843 0.671572 10 1.5 10H10.5C11.3284 10 12 9.32843 12 8.5V3.5C12 2.67157 11.3284 2 10.5 2H9V1.5C9 0.671573 8.32843 0 7.5 0H0.5ZM8 2V1.5C8 1.22386 7.77614 1 7.5 1H1V2H8ZM1 3V8.5C1 8.77614 1.22386 9 1.5 9H10.5C10.7761 9 11 8.77614 11 8.5V3.5C11 3.22386 10.7761 3 10.5 3H9H8.5H1Z"
          fill="white"/>
</svg>
