<svg width="32" height="32" viewBox="0 0 32 32" fill="none" xmlns="http://www.w3.org/2000/svg">
<circle cx="16" cy="16" r="16" fill="#717EEF"/>
<path d="M15.7309 9.68742C11.4586 9.68742 8.46157 11.3694 8.46157 11.3694C10.1035 10.0238 12.973 9.24864 12.973 9.24864L12.702 9C10.0079 9.04388 7.56884 10.7551 7.56884 10.7551C4.8269 16.0058 5.00226 20.5398 5.00226 20.5398C7.23407 23.1871 10.5499 22.997 10.5499 22.997L11.6818 21.6807C9.68907 21.2858 8.42968 19.6623 8.42968 19.6623C8.42968 19.6623 11.4267 21.5344 15.7309 21.5344C20.0351 21.5344 23.0321 19.6623 23.0321 19.6623C23.0321 19.6623 21.7727 21.2858 19.7801 21.6807L20.9119 22.997C20.9119 22.997 24.2277 23.1871 26.4596 20.5398C26.4596 20.5398 26.6349 16.0058 23.893 10.7551C23.893 10.7551 21.4539 9.04388 18.7598 9L18.4888 9.24864C18.4888 9.24864 21.3583 10.0238 23.0002 11.3694C23.0002 11.3694 20.0032 9.68742 15.7309 9.68742ZM12.431 15.2306C13.4672 15.2306 14.3121 16.0643 14.2962 17.0881C14.2962 18.0973 13.4672 18.9456 12.431 18.9456C11.4108 18.9456 10.5818 18.0973 10.5818 17.0881C10.5818 16.0643 11.3948 15.2306 12.431 15.2306ZM19.0786 15.2306C20.1148 15.2306 20.9438 16.0643 20.9438 17.0881C20.9438 18.0973 20.1148 18.9456 19.0786 18.9456C18.0584 18.9456 17.2294 18.0973 17.2294 17.0881C17.2294 16.0643 18.0424 15.2306 19.0786 15.2306Z" fill="white"/>
</svg>
