<svg width="32" height="32" viewBox="0 0 32 32" fill="none" xmlns="http://www.w3.org/2000/svg">
<g clip-path="url(#clip0_146_2639)">
<path d="M16.0029 32C19.1674 32 22.2609 31.0616 24.8921 29.3035C27.5232 27.5454 29.574 25.0466 30.785 22.1229C31.996 19.1993 32.3129 15.9823 31.6955 12.8786C31.0781 9.77487 29.5543 6.92394 27.3166 4.6863C25.079 2.44866 22.2281 0.924806 19.1244 0.307443C16.0207 -0.309921 12.8036 0.0069325 9.88 1.21793C6.95638 2.42894 4.45752 4.4797 2.69942 7.11088C0.941313 9.74207 0.00292969 12.8355 0.00292969 16C0.00292969 20.2435 1.68864 24.3131 4.68922 27.3137C7.6898 30.3143 11.7595 32 16.0029 32Z" fill="#1284C7"/>
<path d="M11.5148 22.6801H8.39002V12.7169H11.5148V22.6801ZM9.87322 11.4689H9.85082C9.61296 11.4872 9.37389 11.4561 9.1486 11.3776C8.92331 11.2992 8.71668 11.175 8.54165 11.0129C8.36663 10.8508 8.227 10.6543 8.13152 10.4356C8.03604 10.217 7.98677 9.98103 7.98682 9.74247C7.95095 9.3596 8.03186 8.97484 8.21889 8.63884C8.40593 8.30284 8.69032 8.03135 9.03463 7.8601C9.37895 7.68885 9.76704 7.62588 10.1478 7.67947C10.5286 7.73305 10.8843 7.90069 11.168 8.16031C11.4516 8.41993 11.6501 8.75936 11.7371 9.13393C11.8241 9.5085 11.7957 9.90065 11.6556 10.2588C11.5154 10.6169 11.2702 10.9241 10.952 11.1401C10.6339 11.3561 10.2578 11.4707 9.87322 11.4689ZM24.014 22.6801H20.4716V17.5233C20.4716 16.1729 19.918 15.2529 18.6988 15.2529C18.3247 15.2539 17.9602 15.3723 17.6569 15.5913C17.3535 15.8103 17.1264 16.1189 17.0076 16.4737C16.9333 16.7383 16.9073 17.0142 16.9308 17.2881V22.6801H13.422C13.422 22.6801 13.4684 13.5473 13.422 12.7153H16.9308V14.2785C17.2304 13.7264 17.6858 13.2747 18.2403 12.9796C18.7949 12.6846 19.424 12.5592 20.0492 12.6193C22.2684 12.6193 24.0124 14.0593 24.0124 17.1393L24.014 22.6801Z" fill="white"/>
</g>
<defs>
<clipPath id="clip0_146_2639">
<rect width="32" height="32" fill="white"/>
</clipPath>
</defs>
</svg>
