<svg width="32" height="32" viewBox="0 0 32 32" fill="none" xmlns="http://www.w3.org/2000/svg">
<circle cx="16" cy="16" r="16" fill="#3DB1EC"/>
<path fill-rule="evenodd" clip-rule="evenodd" d="M7.16866 15.0269C11.7321 13.0512 14.775 11.7487 16.2976 11.1194C20.6448 9.32254 21.5481 9.01042 22.1369 9.00011C22.2664 8.99784 22.5559 9.02973 22.7435 9.18096C22.9018 9.30866 22.9454 9.48116 22.9663 9.60223C22.9871 9.7233 23.0131 9.9991 22.9924 10.2146C22.7569 12.6743 21.7375 18.6433 21.2189 21.3983C20.9995 22.564 20.5674 22.9548 20.1492 22.9931C19.2401 23.0762 18.5498 22.3961 17.6694 21.8225C16.2916 20.9251 15.5133 20.3664 14.176 19.4907C12.6305 18.4786 13.6323 17.9223 14.5131 17.0132C14.7436 16.7753 18.7489 13.1551 18.8264 12.8267C18.8361 12.7856 18.8451 12.6325 18.7536 12.5517C18.6621 12.4708 18.527 12.4985 18.4295 12.5204C18.2913 12.5516 16.0904 13.9972 11.8266 16.8573C11.2019 17.2836 10.636 17.4913 10.129 17.4804C9.57012 17.4684 8.49499 17.1664 7.69573 16.9082C6.71541 16.5915 5.93627 16.4241 6.00412 15.8863C6.03946 15.6062 6.42764 15.3197 7.16866 15.0269Z" fill="white"/>
</svg>
