<svg width="83" height="19" viewBox="0 0 83 19" fill="none" xmlns="http://www.w3.org/2000/svg">
<g clip-path="url(#clip0_17_305)">
<path d="M16.2033 2.11228H18.6969V0.480967H13.2754V6.24234H14.8927V3.32581C16.3448 5.02199 17.0013 6.74391 17.0013 9.00075C17.0013 13.4573 13.7756 17.073 9.27663 17.073C4.83984 17.073 1.96645 13.8512 1.96645 9.45232C1.96645 6.4743 3.27279 3.55268 6.07263 2.2907C6.0722 5.54603 6.07263 9.20471 6.07263 12.4601H4.63037V14.388H9.87495C12.6007 14.388 14.5229 13.0215 14.5229 10.4581C14.5229 8.33865 13.1492 7.08528 11.2342 6.68963C11.5735 6.29244 11.7983 5.94187 11.9777 5.43448C12.666 3.48704 11.7714 1.10528 9.8202 0.325977C9.13047 0.0504462 8.3361 -0.0492278 7.50392 0.0231835C2.86031 0.427702 0 5.15601 0 9.45232C0 14.9105 3.79962 19.0009 9.27663 19.0009C14.9802 19.0009 18.8948 14.489 18.8948 9.00075C18.8948 6.32578 18.0578 4.05109 16.2033 2.11228ZM8.11252 1.98866C8.71997 1.96806 9.24433 2.12696 9.67856 2.62024C10.3838 3.42147 10.3401 5.07703 9.67499 5.87892C9.25248 6.38819 8.74087 6.50497 8.11252 6.50497V1.98866ZM9.13099 8.43283C10.7571 8.43283 12.4785 8.67983 12.4785 10.4808C12.4785 12.2092 10.7485 12.4601 9.13099 12.4601H8.11252V8.43283H9.13099Z" fill="#FF8000"/>
<path d="M28.6434 14.8209V4.4763H26.9658V2.74873H31.5369C32.7931 2.74873 33.7363 2.82319 34.3627 2.97564C34.9928 3.12807 35.5452 3.51422 36.027 4.13419C36.5086 4.75388 36.7477 5.47894 36.7477 6.31546C36.7477 6.95576 36.603 7.53505 36.3167 8.05326C36.027 8.56816 35.6057 8.961 35.0499 9.22522C35.8147 9.48941 36.4042 9.92643 36.8152 10.5394C37.2295 11.1492 37.4348 11.8469 37.4348 12.6328C37.4348 13.3136 37.2832 13.9336 36.9769 14.4856C36.6701 15.0413 36.2627 15.4713 35.7573 15.7762C35.2521 16.0776 34.6963 16.2844 34.0935 16.3893C33.4938 16.4942 32.6719 16.5486 31.6343 16.5486H26.9658V14.8209H28.6434ZM30.7249 8.50039H32.0151C33.0021 8.50039 33.689 8.32763 34.0798 7.9787C34.4707 7.62983 34.6659 7.11843 34.6659 6.44425C34.6659 5.1333 33.7835 4.4763 32.0151 4.4763H30.7249V8.50039ZM30.7249 14.8209H31.5029C32.5237 14.8209 33.2713 14.7701 33.743 14.6685C34.2181 14.567 34.6054 14.3231 34.9053 13.9437C35.2049 13.5643 35.3531 13.08 35.3531 12.4839C35.3531 11.9417 35.2116 11.4879 34.9255 11.1222C34.6389 10.7562 34.2685 10.5124 33.817 10.3905C33.3692 10.2685 32.7326 10.2074 31.9107 10.2074H30.7249V14.8209ZM40.426 14.8209V4.4763H38.5465V2.74873H44.1178C45.2834 2.74873 46.2061 2.84004 46.8901 3.02307C47.5739 3.20262 48.1398 3.58869 48.5879 4.17488C49.0357 4.75739 49.258 5.48912 49.258 6.36289C49.258 8.18877 48.3182 9.33696 46.4353 9.80793L48.8571 14.8209H50.5313V16.5486H47.5505L44.4379 10.1059H42.5077V14.8209H44.2663V16.5486H38.5465V14.8209H40.426ZM42.5077 8.37847H44.1212C44.9028 8.37847 45.4789 8.32763 45.8491 8.22604C46.2198 8.12107 46.5262 7.91444 46.7619 7.59941C46.9978 7.2843 47.1157 6.86096 47.1157 6.33256C47.1157 5.88192 46.9947 5.50253 46.7554 5.19093C46.5163 4.87931 46.2232 4.68293 45.8693 4.60148C45.5189 4.51686 44.9836 4.4763 44.2593 4.4763H42.5077V8.37847ZM59.2492 11.4405H61.2804C61.0174 14.673 59.1165 16.7721 56.339 16.7721C52.8018 16.7721 51.3397 13.7958 51.3397 9.70289C51.3397 5.49712 52.6115 2.57633 56.0154 2.52521C57.1576 2.50811 58.4014 3.00557 59.0726 4.00209V2.74873H60.8512V7.17923H59.0726C58.7409 5.55835 57.9954 4.35441 56.4 4.35441C53.8749 4.35441 53.4577 6.7936 53.4577 9.60807C53.4577 12.3939 53.9977 14.9022 56.4673 14.9022C58.1574 14.9022 59.0351 13.4883 59.2492 11.4405ZM71.4644 11.4405L71.3375 16.5486H62.573C62.573 12.9346 64.5614 11.05 67.251 9.07942C68.2413 8.35386 69.2891 7.68165 69.2891 6.33579C69.2891 4.96847 68.4447 4.15102 67.1101 4.15102C65.5235 4.15102 64.7958 5.33884 64.9013 7.194H62.9264C62.8445 4.29268 64.471 2.52521 67.0665 2.52521C69.3847 2.52521 71.324 3.76649 71.324 6.26798C71.324 8.51387 69.6548 9.60551 68.0004 10.7832C66.7876 11.6465 65.2173 13.1436 64.9911 14.7602H69.7106L69.7868 11.4405H71.4644ZM73.426 9.65199C73.426 7.37568 73.85 5.62008 74.7027 4.38151C75.5534 3.14499 76.717 2.52521 78.1923 2.52521C79.7147 2.52521 80.8904 3.16883 81.7123 4.45246C82.5342 5.73643 82.9452 7.4705 82.9452 9.65199C82.9452 11.9182 82.5194 13.6692 81.6718 14.9091C80.8227 16.1512 79.6643 16.7721 78.1923 16.7721C76.6529 16.7721 75.4736 16.1246 74.6553 14.8346C73.8374 13.5444 73.426 11.8164 73.426 9.65199ZM75.4468 9.65199C75.4468 11.6267 75.6843 13.039 76.1578 13.8894C76.6302 14.7385 77.3099 15.1666 78.1955 15.1666C79.0815 15.1666 79.761 14.7385 80.2336 13.8861C80.7069 13.0323 80.9442 11.62 80.9442 9.65199C80.9442 7.65353 80.7042 6.23423 80.2235 5.39079C79.7448 4.55147 79.0682 4.13066 78.1955 4.13066C77.2121 4.13066 76.5062 4.60966 76.0838 5.56706C75.6616 6.52267 75.4468 7.88391 75.4468 9.65199Z" fill="#000"/>
</g>
<defs>
<clipPath id="clip0_17_305">
<rect width="83" height="19" fill="white"/>
</clipPath>
</defs>
</svg>
