<svg width="16" height="8" viewBox="0 0 16 8" fill="none" xmlns="http://www.w3.org/2000/svg">
    <path id="Union" fill-rule="evenodd" clip-rule="evenodd"
          d="M2.7302 3.25563L4.94873 1.27007C5.27304 0.979812 5.27304 0.507954 4.94873 0.217695C4.62441 -0.0725649 4.09719 -0.0725649 3.77287 0.217695L0.245316 3.37483C0.0569876 3.54338 -0.0219796 3.77317 0.00841432 3.99307C-0.0273553 4.21717 0.0509189 4.45316 0.243237 4.62528L3.77246 7.78241C4.09677 8.07267 4.624 8.07267 4.94831 7.78241C5.27263 7.49215 5.27263 7.02029 4.94831 6.73003L2.72941 4.74414H15.1686C15.6276 4.74414 16.0001 4.41071 16.0001 3.99988C16.0001 3.58906 15.6276 3.25563 15.1686 3.25563H2.7302Z"
          fill="#213027"/>
</svg>
