<svg width="80" height="80" viewBox="0 0 80 80" fill="none" xmlns="http://www.w3.org/2000/svg">
    <g id="Group 1171276537">
        <circle id="Ellipse 382" cx="40" cy="40" r="40" fill="#FF8900"/>
        <path id="Union" fill-rule="evenodd" clip-rule="evenodd"
              d="M36 23V17H27C21 17 17.5 20.5 17.5 22.5V36C17.5 37.2 16.8333 37.5 16.5 37.5H14V43.5C17.5 43.5 17.5 45 17.5 46V54C17.5 61.2 21.1667 63.6667 23 64H36V58H28C25.6 58 25 56.3333 25 55.5V44.5C25 42.5 24 41.5 23 40.5C24.6 39.7 25 37.8333 25 37V25.5C25 23.5 27 23 28 23H36ZM44 23V17H53C59 17 62.5 20.5 62.5 22.5V36C62.5 37.2 63.1667 37.5 63.5 37.5H66V43.5C62.5 43.5 62.5 45 62.5 46V54C62.5 61.2 58.8333 63.6667 57 64H44V58H52C54.4 58 55 56.3333 55 55.5V44.5C55 42.5 56 41.5 57 40.5C55.4 39.7 55 37.8333 55 37V25.5C55 23.5 53 23 52 23H44ZM35.3 41C35.3 38.4043 37.4043 36.3 40 36.3C42.5957 36.3 44.7 38.4043 44.7 41C44.7 43.5957 42.5957 45.7 40 45.7C37.4043 45.7 35.3 43.5957 35.3 41ZM40 31.7C34.8638 31.7 30.7 35.8638 30.7 41C30.7 46.1362 34.8638 50.3 40 50.3C45.1362 50.3 49.3 46.1362 49.3 41C49.3 35.8638 45.1362 31.7 40 31.7Z"
              fill="white"/>
    </g>
</svg>
