<svg width="14" height="14" viewBox="0 0 14 14" fill="none" xmlns="http://www.w3.org/2000/svg">
    <path d="M6.99987 1.20971e-09C5.61723 2.5705e-05 4.26555 0.409514 3.11535 1.17681C1.96515 1.94411 1.06794 3.03485 0.5369 4.31145C0.00585529 5.58805 -0.135238 6.99332 0.131417 8.35001C0.398072 9.7067 1.06053 10.954 2.03523 11.9347C3.00994 12.9153 4.25322 13.5854 5.60826 13.8602C6.96331 14.1351 8.36941 14.0026 9.64921 13.4793C10.929 12.956 12.0252 12.0655 12.7995 10.92C13.5737 9.77446 13.9914 8.4253 13.9999 7.04268C14.0055 6.11984 13.8286 5.205 13.4793 4.35079C13.1301 3.49658 12.6153 2.71986 11.9648 2.06532C11.3142 1.41078 10.5406 0.891346 9.68855 0.536897C8.83648 0.182448 7.92273 -1.71549e-05 6.99987 1.20971e-09ZM9.60353 5.89024C9.60353 5.89024 7.11725 8.82469 6.78646 9.17683C6.74839 9.22178 6.70099 9.2579 6.64755 9.28268C6.59411 9.30745 6.53591 9.32028 6.47701 9.32028C6.4181 9.32028 6.3599 9.30745 6.30646 9.28268C6.25302 9.2579 6.20562 9.22178 6.16755 9.17683L4.39621 7.3628C4.31554 7.26524 4.2714 7.1426 4.2714 7.01601C4.2714 6.88941 4.31554 6.76677 4.39621 6.66921C4.43117 6.62481 4.47573 6.58893 4.52656 6.56425C4.57739 6.53958 4.63316 6.52676 4.68966 6.52676C4.74616 6.52676 4.80193 6.53958 4.85275 6.56425C4.90358 6.58893 4.94815 6.62481 4.9831 6.66921L6.46634 8.18445L9.01664 5.20732C9.05159 5.16292 9.09616 5.12704 9.14699 5.10236C9.19782 5.07769 9.25358 5.06487 9.31009 5.06487C9.36659 5.06487 9.42235 5.07769 9.47318 5.10236C9.52401 5.12704 9.56858 5.16292 9.60353 5.20732C9.68233 5.30573 9.72526 5.42804 9.72526 5.55411C9.72526 5.68019 9.68233 5.8025 9.60353 5.90091V5.89024Z"
          fill="#92949D"/>
</svg>
