<svg width="20" height="20" viewBox="0 0 20 20" fill="none" xmlns="http://www.w3.org/2000/svg">
    <path id="Vector"
          d="M10 20C4.47733 20 0 15.5227 0 10C0 4.47733 4.47733 0 10 0C15.5227 0 20 4.47733 20 10C20 15.5227 15.5227 20 10 20ZM9.33333 4.66667V12C9.33333 12.1768 9.40357 12.3464 9.5286 12.4714C9.65362 12.5964 9.82319 12.6667 10 12.6667C10.1768 12.6667 10.3464 12.5964 10.4714 12.4714C10.5964 12.3464 10.6667 12.1768 10.6667 12V4.66667C10.6667 4.48986 10.5964 4.32029 10.4714 4.19526C10.3464 4.07024 10.1768 4 10 4C9.82319 4 9.65362 4.07024 9.5286 4.19526C9.40357 4.32029 9.33333 4.48986 9.33333 4.66667ZM9 15.6667C9 15.9319 9.10536 16.1862 9.29289 16.3738C9.48043 16.5613 9.73478 16.6667 10 16.6667C10.2652 16.6667 10.5196 16.5613 10.7071 16.3738C10.8946 16.1862 11 15.9319 11 15.6667C11 15.4015 10.8946 15.1471 10.7071 14.9596C10.5196 14.772 10.2652 14.6667 10 14.6667C9.73478 14.6667 9.48043 14.772 9.29289 14.9596C9.10536 15.1471 9 15.4015 9 15.6667Z"
          fill="#FF912F"/>
</svg>
