<svg width="16" height="16" viewBox="0 0 16 16" fill="none" xmlns="http://www.w3.org/2000/svg">
    <path id="Vector"
          d="M8 0C3.58171 0 0 3.58171 0 8C0 12.4183 3.58171 16 8 16C12.4183 16 16 12.4183 16 8C16 3.58171 12.4183 0 8 0ZM11.2346 8.83837L8.39543 11.6777C8.38269 11.694 8.36914 11.7099 8.35412 11.7247C8.25633 11.8225 8.12816 11.8709 8 11.8702C7.872 11.871 7.74367 11.8225 7.64588 11.7247C7.63086 11.7097 7.61714 11.694 7.60457 11.6777L4.76539 8.83853C4.57143 8.64457 4.57143 8.33012 4.76539 8.13616C4.95935 7.9422 5.2738 7.9422 5.46792 8.13616L7.50335 10.1714V4.62645C7.50335 4.35216 7.72571 4.1298 8 4.1298C8.27429 4.1298 8.49665 4.35216 8.49665 4.62645V10.1714L10.5322 8.136C10.7262 7.94204 11.0407 7.94204 11.2348 8.136C11.4287 8.32996 11.4287 8.64441 11.2346 8.83837Z"
          fill="#5AC804"/>
</svg>
