<svg width="20" height="20" viewBox="0 0 20 20" fill="none" xmlns="http://www.w3.org/2000/svg">
    <path fill-rule="evenodd" clip-rule="evenodd"
          d="M10 20C15.5228 20 20 15.5228 20 10C20 4.47715 15.5228 0 10 0C4.47715 0 0 4.47715 0 10C0 15.5228 4.47715 20 10 20ZM9.81509 4.48514C9.89319 4.40704 10.0198 4.40704 10.0979 4.48513L15.4722 9.85844C15.5503 9.93655 15.5503 10.0632 15.4722 10.1413L14.3583 11.2552C14.2802 11.3333 14.1535 11.3333 14.0754 11.2552L12.9486 10.1284C12.8708 10.0506 12.7449 10.0502 12.6667 10.1274L10.3517 12.4117C10.2735 12.4889 10.1477 12.4885 10.07 12.4109L9.16883 11.5116C9.09022 11.4332 9.09058 11.3057 9.16963 11.2277L11.5002 8.92801C11.5793 8.85 11.5796 8.72253 11.501 8.64408L9.9305 7.07678C9.85274 6.99918 9.72694 6.99883 9.64875 7.07599L7.29392 9.39958C7.21572 9.47675 7.08992 9.47639 7.01216 9.39877L6.09739 8.48571C6.01916 8.40763 6.01911 8.28089 6.09727 8.20273L9.81509 4.48514ZM10.1025 15.5117C10.0244 15.5898 9.89789 15.5898 9.81977 15.5118L4.44156 10.1416C4.36336 10.0635 4.36331 9.93676 4.44146 9.85862L5.55967 8.74041C5.63777 8.6623 5.76441 8.6623 5.84251 8.74041L7.0527 9.95065C7.13044 10.0284 7.25635 10.0288 7.3346 9.9516L9.64956 7.66737C9.72776 7.59021 9.85355 7.59056 9.93131 7.66816L10.9053 8.64011C10.9839 8.71856 10.9835 8.84604 10.9045 8.92404L8.57389 11.2237C8.49483 11.3017 8.49447 11.4292 8.57309 11.5076L10.0708 13.0022C10.1485 13.0798 10.2743 13.0802 10.3525 13.003L12.7072 10.6796C12.7855 10.6024 12.9114 10.6028 12.9891 10.6805L13.82 11.5113C13.8981 11.5894 13.8981 11.716 13.82 11.7941L10.1025 15.5117Z"
          fill="#6A359E"/>
</svg>
