<svg width="14" height="14" viewBox="0 0 14 14" fill="none" xmlns="http://www.w3.org/2000/svg">
    <path id="Vector"
          d="M13.4947 5.45237L13.4947 5.45234C13.4885 5.43237 13.478 5.41765 13.4674 5.40827C13.4569 5.39907 13.4468 5.3952 13.4388 5.39398L13.514 4.89967L13.4388 5.39398L9.28941 4.76266L9.02595 4.72257L8.91234 4.48152L7.05667 0.544483L7.05666 0.544461C7.04835 0.526819 7.03704 0.515248 7.02686 0.508621C7.01693 0.502156 7.00768 0.5 6.99998 0.5C6.99227 0.5 6.98302 0.502156 6.97309 0.508621C6.96291 0.515249 6.95161 0.526821 6.94329 0.544461L6.94328 0.544482L5.08762 4.48154L4.974 4.72259L4.71055 4.76268L0.561207 5.39399L13.4947 5.45237ZM13.4947 5.45237C13.5009 5.47243 13.5017 5.49459 13.4968 5.51553C13.4919 5.53639 13.4821 5.55261 13.4714 5.56348L13.4714 5.56349L10.4689 8.62806L10.2917 8.80893L10.3326 9.0588L11.0414 13.386C11.0458 13.4125 11.0424 13.4383 11.0354 13.4569C11.0319 13.4661 11.0286 13.471 11.0269 13.4733C11.0249 13.4741 11.0217 13.4753 11.017 13.4766C11.0048 13.4801 10.9881 13.4828 10.9688 13.4835C10.953 13.484 10.9397 13.483 10.9305 13.4816L7.24111 11.4507L6.99999 11.3179L6.75886 11.4507L3.04753 13.4937L3.0475 13.4937C3.03794 13.499 3.02906 13.5005 3.02133 13.4999L2.98361 13.9985L3.02132 13.4999C3.01353 13.4993 3.00386 13.4963 2.99363 13.4886L2.6909 13.8865L2.99363 13.4886C2.98316 13.4806 2.97217 13.4674 2.96483 13.4486L2.49875 13.6296L2.96483 13.4486C2.95745 13.4296 2.95499 13.4077 2.95853 13.3861L2.95853 13.386L3.66733 9.0588L3.70826 8.80892M13.4947 5.45237L3.70826 8.80892M3.70826 8.80892L3.53106 8.62806M3.70826 8.80892L3.53106 8.62806M3.53106 8.62806L0.528559 5.56354C0.517899 5.55266 0.508117 5.53643 0.503199 5.51556C0.498263 5.49462 0.499091 5.47244 0.505319 5.45237C0.511517 5.4324 0.522012 5.41768 0.532648 5.40829C0.543044 5.39911 0.553156 5.39523 0.561152 5.394L3.53106 8.62806Z"
          stroke="#213027"/>
</svg>
