<svg width="14" height="15" viewBox="0 0 14 15" fill="none" xmlns="http://www.w3.org/2000/svg">
    <path id="Vector"
          d="M7 0.5C3.13406 0.5 0 3.63406 0 7.5C0 11.3659 3.13406 14.5 7 14.5C10.8659 14.5 14 11.3659 14 7.5C14 3.63406 10.8659 0.5 7 0.5ZM10.5348 5.83609L6.42422 9.94687C6.20797 10.1631 5.8575 10.1631 5.64125 9.94687L3.48797 7.79359C3.27172 7.57734 3.27172 7.22687 3.48797 7.01062C3.70422 6.79437 4.05469 6.79437 4.27094 7.01062L6.03266 8.77234L9.75187 5.05312C9.96813 4.83687 10.3186 4.83687 10.5348 5.05312C10.7511 5.26937 10.7511 5.62 10.5348 5.83609Z"
          fill="#AFB5B1"/>
</svg>
