<svg xmlns="http://www.w3.org/2000/svg" width="40" height="40" viewBox="0 0 40 40" fill="none">
<rect x="0.5" y="0.5" width="39" height="39" rx="7.5" stroke="white"/>
<circle cx="20" cy="20" r="11" stroke="white" stroke-width="2"/>
<path d="M31.25 19.625H8.75" stroke="white" stroke-width="2"/>
<path d="M25 20C25 23.1921 24.3509 26.0326 23.3482 28.0381C22.3156 30.1033 21.074 31 20 31C18.926 31 17.6844 30.1033 16.6518 28.0381C15.6491 26.0326 15 23.1921 15 20C15 16.8079 15.6491 13.9674 16.6518 11.9619C17.6844 9.89666 18.926 9 20 9C21.074 9 22.3156 9.89666 23.3482 11.9619C24.3509 13.9674 25 16.8079 25 20Z" stroke="white" stroke-width="2"/>
</svg>