<svg width="60" height="60" viewBox="0 0 60 60" fill="none" xmlns="http://www.w3.org/2000/svg">
    <g id="Group 1171276312">
        <g id="Group 1171276311">
            <path id="Path"
                  d="M5.92188 30.498H53.8896V53.523C53.8896 54.5172 53.0837 55.323 52.0896 55.323H7.72188C6.72776 55.323 5.92188 54.5172 5.92188 53.523V30.498Z"
                  fill="#5AC804"/>
            <path id="Path_2"
                  d="M5.79843 21.7715L1.11768 32.069C0.939762 32.4406 0.964885 32.8774 1.18423 33.2261C1.40357 33.5749 1.78646 33.7867 2.19843 33.7872H57.4367C57.8577 33.7872 58.2479 33.5664 58.4648 33.2056C58.6818 32.8448 58.6938 32.3966 58.4964 32.0247L53.9124 21.7715H5.79843Z"
                  fill="url(#paint0_linear_74_17270)"/>
            <path id="Path_3" d="M44.2212 14.625L53.9127 21.7717H5.79492L15.4347 14.625H44.2212Z" fill="#9AE360"/>
            <path id="Path_4" d="M15.4347 14.625V21.7717H5.79492L15.4347 14.625Z" fill="#5AC804"/>
            <path id="Path_5" d="M44.2207 14.625V21.7665L53.9122 21.7717L44.2207 14.625Z" fill="#5AC804"/>
        </g>
    </g>
    <defs>
        <linearGradient id="paint0_linear_74_17270" x1="29.0039" y1="16.7538" x2="25.3051" y2="36.2061"
                        gradientUnits="userSpaceOnUse">
            <stop stop-color="#F8F6F5"/>
            <stop offset="1" stop-color="#70FF00"/>
        </linearGradient>
    </defs>
</svg>
