<svg width="16" height="16" viewBox="0 0 16 16" fill="none" xmlns="http://www.w3.org/2000/svg">
    <path d="M9.04995 11.8476L5.64319 9.98933C5.22143 10.408 4.6406 10.6667 3.99935 10.6667C2.71068 10.6667 1.66602 9.622 1.66602 8.33333C1.66602 7.04467 2.71068 6 3.99935 6C4.64056 6 5.22136 6.25864 5.64311 6.67729L9.04995 4.81903C9.01682 4.66236 8.99935 4.49989 8.99935 4.33333C8.99935 3.04467 10.044 2 11.3327 2C12.6213 2 13.666 3.04467 13.666 4.33333C13.666 5.622 12.6213 6.66667 11.3327 6.66667C10.6914 6.66667 10.1106 6.40801 9.68888 5.98933L6.28204 7.84753C6.31523 8.00427 6.33268 8.16673 6.33268 8.33333C6.33268 8.49987 6.31524 8.66233 6.28207 8.819L9.68888 10.6773C10.1107 10.2587 10.6915 10 11.3327 10C12.6213 10 13.666 11.0447 13.666 12.3333C13.666 13.622 12.6213 14.6667 11.3327 14.6667C10.044 14.6667 8.99935 13.622 8.99935 12.3333C8.99935 12.1668 9.01682 12.0043 9.04995 11.8476Z"
          fill="#5AC804"/>
</svg>
