<svg width="141" height="37" viewBox="0 0 141 37" fill="#ffffff" xmlns="http://www.w3.org/2000/svg">
<path fill-rule="evenodd" clip-rule="evenodd" d="M18.5491 4.40985C19.3258 4.40985 19.9554 4.02873 19.9554 3.55859C19.9554 3.08846 19.3258 2.70734 18.5491 2.70734C17.7724 2.70734 17.1428 3.08846 17.1428 3.55859C17.1428 4.02873 17.7724 4.40985 18.5491 4.40985ZM3.60236 19.8888C4.08497 19.8888 4.4762 19.2771 4.4762 18.5226C4.4762 17.7681 4.08497 17.1565 3.60236 17.1565C3.11975 17.1565 2.72852 17.7681 2.72852 18.5226C2.72852 19.2771 3.11975 19.8888 3.60236 19.8888ZM20.1131 7.29011C20.1131 8.06537 19.4134 8.69385 18.5503 8.69385C17.6871 8.69385 16.9875 8.06537 16.9875 7.29011C16.9875 6.51484 17.6871 5.88637 18.5503 5.88637C19.4134 5.88637 20.1131 6.51484 20.1131 7.29011ZM18.5491 34.2927C19.3258 34.2927 19.9554 33.9116 19.9554 33.4415C19.9554 32.9713 19.3258 32.5902 18.5491 32.5902C17.7724 32.5902 17.1428 32.9713 17.1428 33.4415C17.1428 33.9116 17.7724 34.2927 18.5491 34.2927ZM14.6615 3.24863C14.8064 3.56638 14.4639 4.03289 13.8966 4.2906C13.3293 4.54833 12.7519 4.49967 12.6071 4.18192C12.4622 3.86417 12.8047 3.39765 13.372 3.13993C13.9394 2.88221 14.5167 2.93088 14.6615 3.24863ZM8.92679 6.42587C9.31589 6.17576 9.53778 5.82801 9.42239 5.64915C9.307 5.47029 8.89803 5.52805 8.50893 5.77816C8.11982 6.02827 7.89793 6.37602 8.01333 6.55488C8.12872 6.73374 8.53769 6.67598 8.92679 6.42587ZM28.7898 5.77668C29.1789 6.0268 29.4008 6.37455 29.2854 6.55341C29.17 6.73227 28.761 6.6745 28.3719 6.4244C27.9828 6.17429 27.7609 5.82654 27.8763 5.64768C27.9917 5.46882 28.4007 5.52658 28.7898 5.77668ZM9.42238 31.4429C9.53778 31.264 9.31589 30.9163 8.92679 30.6662C8.53769 30.4161 8.12872 30.3583 8.01332 30.5372C7.89794 30.716 8.11982 31.0639 8.50893 31.3139C8.89803 31.564 9.307 31.6218 9.42238 31.4429ZM29.2854 30.5386C29.4008 30.7175 29.1789 31.0653 28.7898 31.3154C28.4007 31.5654 27.9917 31.6232 27.8763 31.4443C27.7609 31.2656 27.9828 30.9177 28.3719 30.6676C28.761 30.4176 29.17 30.3597 29.2854 30.5386ZM14.6817 33.8751C14.8266 33.5574 14.4841 33.0909 13.9168 32.8332C13.3494 32.5754 12.772 32.6241 12.6272 32.9418C12.4823 33.2596 12.8248 33.7261 13.3921 33.9838C13.9594 34.2415 14.5368 34.1929 14.6817 33.8751ZM6.33677 9.12981C6.61196 9.33913 6.51215 9.93176 6.11384 10.4535C5.71552 10.9752 5.16955 11.2284 4.89435 11.0191C4.61916 10.8098 4.71897 10.2171 5.11729 9.69542C5.5156 9.17371 6.06158 8.92047 6.33677 9.12981ZM5.86219 27.8306C6.16832 27.6697 6.16829 27.0688 5.86212 26.4883C5.55594 25.908 5.05955 25.5679 4.75342 25.7289C4.44727 25.8898 4.4473 26.4907 4.75348 27.0711C5.05965 27.6515 5.55604 27.9916 5.86219 27.8306ZM32.3979 9.69566C32.7961 10.2174 32.8959 10.81 32.6208 11.0193C32.3456 11.2287 31.7996 10.9754 31.4013 10.4537C31.0029 9.932 30.9032 9.33937 31.1784 9.13004C31.4535 8.92071 31.9995 9.17395 32.3979 9.69566ZM32.7571 27.0692C33.0634 26.4888 33.0634 25.8879 32.7572 25.727C32.451 25.5661 31.9547 25.9061 31.6485 26.4865C31.3423 27.0669 31.3423 27.6679 31.6484 27.8288C31.9545 27.9896 32.4509 27.6496 32.7571 27.0692ZM34.5508 18.5226C34.5508 19.2771 34.1596 19.8888 33.677 19.8888C33.1943 19.8888 32.8031 19.2771 32.8031 18.5226C32.8031 17.7681 33.1943 17.1565 33.677 17.1565C34.1596 17.1565 34.5508 17.7681 34.5508 18.5226ZM24.6707 4.1844C24.8156 3.86664 24.4731 3.40013 23.9058 3.14241C23.3384 2.88469 22.7611 2.93335 22.6162 3.2511C22.4713 3.56885 22.8138 4.03536 23.3811 4.29308C23.9484 4.55081 24.5258 4.50214 24.6707 4.1844ZM24.6546 32.9354C24.7995 33.2531 24.457 33.7196 23.8897 33.9774C23.3223 34.2351 22.745 34.1864 22.6001 33.8687C22.4552 33.551 22.7977 33.0844 23.365 32.8267C23.9324 32.569 24.5097 32.6177 24.6546 32.9354ZM26.4203 15.3164C25.4988 15.0553 24.9503 13.9794 25.04 13.0738C25.1248 12.2095 25.8873 11.5768 26.7537 11.8972C27.6201 12.2176 28.2429 13.1633 28.1711 14.0812C28.1582 14.286 28.0994 14.4854 27.9992 14.6647C27.8989 14.8439 27.7597 14.9985 27.5918 15.1169C27.4238 15.2354 27.2315 15.3148 27.0287 15.3494C26.826 15.3838 26.6181 15.3726 26.4203 15.3164ZM22.122 7.92149C22.0341 8.83571 22.6081 9.79438 23.4913 10.0913C24.2927 10.3641 25.1096 9.8629 25.13 8.99498C25.1511 8.111 24.5296 7.19246 23.7151 6.85788C22.9117 6.52762 22.1999 7.11097 22.122 7.92149ZM28.8891 20.4528C27.9522 20.2578 27.5663 19.1676 27.7142 18.3121C27.862 17.4565 28.6145 16.7028 29.5298 16.9664C30.4093 17.2194 30.9046 18.1856 30.7346 19.0584C30.5725 19.8899 29.7754 20.6368 28.8891 20.4528ZM30.2465 23.1481C30.0844 23.6408 30.1878 24.4927 30.8619 24.5229C31.523 24.5525 32.1321 23.8797 32.3652 23.3383C32.5984 22.7969 32.3529 22.0765 31.7468 21.9889C31.0839 21.8932 30.442 22.5524 30.2465 23.1481ZM27.6467 29.2482C26.9546 29.321 27.0622 28.3432 27.1747 27.9944C27.3646 27.4067 28.0319 26.7135 28.7209 26.7296C29.3529 26.7444 29.4098 27.5025 29.1686 27.958C28.8934 28.4747 28.283 29.1815 27.6467 29.2482ZM8.11728 27.5179C8.19767 28.1865 8.76911 28.8587 9.35847 29.1741C9.83467 29.4291 10.4444 29.2149 10.3764 28.5864C10.3034 27.9124 9.78643 27.1889 9.17604 26.8895C8.66644 26.6408 8.04802 26.9197 8.11728 27.5179ZM6.07566 24.4318C5.49001 24.185 4.90869 23.5009 4.92724 22.8306C4.93106 22.6909 4.96847 22.5541 5.03629 22.4316C5.10412 22.3093 5.20039 22.2051 5.31701 22.1277C5.43362 22.0502 5.56716 22.0019 5.7064 21.9868C5.84563 21.9715 5.98649 21.9899 6.1171 22.0404C6.75718 22.2873 7.21482 23.0281 7.23028 23.6961C7.24265 24.3349 6.61803 24.6621 6.07566 24.4318ZM5.01121 14.0119C4.82567 14.5286 4.9877 15.2928 5.63582 15.3699C6.30497 15.4497 6.94009 14.8076 7.13181 14.2107C7.30682 13.6798 7.17324 12.8619 6.51337 12.8298C5.877 12.7995 5.22394 13.4218 5.01121 14.0119ZM8.68176 10.6012C8.00149 10.6228 8.03674 9.78019 8.22722 9.36659C8.48882 8.79868 9.11714 8.11409 9.74856 8.0783C10.4344 8.03879 10.3596 8.92337 10.2272 9.33758C10.0386 9.92587 9.36823 10.579 8.68176 10.6012ZM27.042 8.77165C27.0773 9.47475 27.5981 10.1945 28.2412 10.4698C28.7031 10.6674 29.4187 10.484 29.3061 9.83464C29.1936 9.18524 28.616 8.50558 28.0662 8.1778C27.5522 7.87101 27.0123 8.19138 27.042 8.77165ZM31.2564 15.348C30.5977 15.1344 30.124 14.374 30.1512 13.6912C30.1729 13.1023 30.7369 12.6807 31.3121 12.9449C31.8872 13.209 32.4333 13.8967 32.455 14.5499C32.4741 15.1894 31.7939 15.5208 31.2564 15.348ZM22.1751 28.6645C21.9853 29.3862 22.2369 30.4529 23.1201 30.5381C23.997 30.6227 24.749 29.7647 25.0149 29.006C25.2747 28.2572 25.0297 27.2732 24.1256 27.154C23.198 27.0306 22.3971 27.8226 22.1751 28.6645ZM18.3757 30.9108C17.4969 30.6898 17.0034 29.6972 17.1339 28.8404C17.2699 27.9453 18.1234 27.2935 19.0244 27.5008C19.9447 27.7126 20.4128 28.691 20.2155 29.5713C20.0294 30.3911 19.2588 31.1337 18.3757 30.9108ZM12.216 28.3019C12.1974 29.1847 12.8202 30.1013 13.6328 30.4377C14.4331 30.7692 15.1436 30.189 15.2191 29.3803C15.3051 28.4667 14.7305 27.5099 13.8487 27.2111C13.0502 26.9407 12.2339 27.4377 12.216 28.3019ZM7.78683 20.4257C6.91051 20.1702 6.40957 19.209 6.57594 18.3361C6.73487 17.5047 7.53018 16.7614 8.41268 16.9478C9.34837 17.146 9.73861 18.2343 9.59389 19.0904C9.44917 19.9467 8.69839 20.6905 7.78683 20.4257ZM9.32703 13.3254C9.07842 14.142 9.42597 15.1482 10.3419 15.3192C11.298 15.4982 12.11 14.6723 12.3252 13.8043C12.5212 13.013 12.2312 11.9068 11.2936 11.7895C10.3784 11.6753 9.57564 12.5086 9.32703 13.3254ZM13.2963 10.1502C12.3916 10.0268 12.143 9.04525 12.4027 8.294C12.6625 7.54274 13.4181 6.67543 14.2939 6.76186C15.1696 6.84828 15.433 7.91497 15.2431 8.63968C15.0249 9.48291 14.2222 10.2731 13.2963 10.1502ZM12.9431 25.4877C11.3686 26.2433 10.572 25.873 9.8225 25.1377L9.82127 25.1341C9.4201 24.7054 9.17977 24.1514 9.14099 23.5661C9.05255 22.205 10.1509 21.3382 10.9505 21.3518C10.9699 21.3523 10.992 21.3525 11.0165 21.3527C11.2153 21.3547 11.5757 21.3582 11.94 21.5142C12.1018 21.5841 12.2559 21.7041 12.4123 21.8261C12.5381 21.9241 12.6654 22.0234 12.7996 22.0988C13.6772 22.592 14.3037 22.6994 14.9221 22.676C15.4787 22.6544 16.0316 22.5574 16.8355 22.1136C17.8404 21.558 18.3507 21.4352 19.0155 21.5457C19.7984 21.6741 20.2716 22.0988 20.5894 22.6068C21.4051 23.9254 20.8177 25.6575 19.0242 26.0637C18.4614 26.1921 17.8664 26.1032 16.877 25.5699C15.196 24.6446 14.5103 24.7204 12.9431 25.4877ZM20.012 16.7329C19.7714 17.8317 19.9898 18.8181 21.7238 19.8447C23.4066 20.8423 23.8043 21.3806 23.8216 23.2893C23.8216 24.4004 24.0188 24.9239 24.39 25.2912C25.5761 26.4449 27.1914 25.8813 27.86 24.5813C28.1197 24.0714 28.252 23.4949 28.0412 22.825C27.8556 22.2523 27.5767 21.9195 26.7041 21.3966C25.9973 20.9738 25.6429 20.5614 25.3472 20.1003C25.0145 19.5848 24.7771 18.9891 24.7047 17.9613C24.6939 17.8102 24.7042 17.6534 24.7145 17.4981V17.498C24.7283 17.2909 24.7418 17.086 24.7047 16.9002C24.6254 16.4886 24.4108 16.1531 24.2935 15.9698L24.2934 15.9696C24.2809 15.95 24.2695 15.9323 24.2594 15.9162C23.8 15.1804 22.3485 14.5317 21.0869 15.281C20.55 15.604 20.1629 16.126 20.0102 16.7329H20.012ZM17.3104 16.768C17.22 18.7693 16.4507 19.4267 15.3648 19.7273V19.728C14.7547 19.8775 14.1101 19.7805 13.5714 19.4583C12.3128 18.6952 12.2207 17.118 12.6616 16.3773C12.6716 16.3605 12.6826 16.3417 12.6946 16.3208C12.8036 16.1333 13.0015 15.7924 13.3276 15.5346C13.4736 15.418 13.6595 15.3362 13.8477 15.2534C13.9912 15.1902 14.1359 15.1265 14.2652 15.0463C15.1366 14.508 15.5491 14.0266 15.8465 13.5031C16.1144 13.0377 16.3097 12.542 16.3524 11.7537C16.4069 10.7833 16.5676 10.4098 16.977 10.0086C17.4588 9.5456 18.0117 9.40547 18.5683 9.38572C19.9802 9.34128 21.2591 10.3296 20.8262 11.892C20.6839 12.3802 20.3191 12.7988 19.3469 13.3266C17.6858 14.242 17.4001 14.8279 17.3104 16.768Z" fill="url(#paint0_linear_50_14778)"/>
<path fill-rule="evenodd" clip-rule="evenodd" d="M85.9289 11.8405C85.2188 11.8405 84.6238 11.6202 84.1441 11.1796C83.6834 10.7198 83.4531 10.1547 83.4531 9.48418C83.4531 8.81366 83.6834 8.2581 84.1441 7.81748C84.6238 7.3577 85.2188 7.12781 85.9289 7.12781C86.6391 7.12781 87.2244 7.3577 87.6851 7.81748C88.1649 8.2581 88.4048 8.81366 88.4048 9.48418C88.4048 10.1547 88.1649 10.7198 87.6851 11.1796C87.2244 11.6202 86.6391 11.8405 85.9289 11.8405ZM87.9162 13.737V29.6569H83.8858V13.737H87.9162ZM76.5145 29.657L71.1022 22.8752V29.657H67.0717V8.39219H71.1022V20.4902L76.4569 13.7371H81.6965L74.672 21.7258L81.754 29.657H76.5145ZM50.7828 25.8351H58.7862L60.1105 29.657H64.3712L57.1452 9.57039H52.4526L45.2266 29.657H49.4585L50.7828 25.8351ZM54.7846 14.2256L57.6923 22.6166H51.8769L54.7846 14.2256Z" />
<path d="M122.96 11.8319V8.68311H139.534V11.8319H133.113V29.4186H129.381V11.8319H122.96Z" fill="url(#paint1_linear_50_14778)" stroke="#7A6723" stroke-width="0.1"/>
<path d="M119.797 8.68311V29.4186H116.034V8.68311H119.797Z" fill="url(#paint2_linear_50_14778)" stroke="#7A6723" stroke-width="0.1"/>
<path d="M97.2617 29.4186V8.68311H105.214C106.715 8.68311 107.963 8.91935 108.957 9.39184C109.958 9.85757 110.705 10.4954 111.199 11.3054C111.699 12.1154 111.949 13.0334 111.949 14.0593C111.949 14.9031 111.787 15.6253 111.462 16.226C111.138 16.82 110.702 17.3026 110.154 17.6739C109.606 18.0451 108.994 18.3117 108.318 18.4737V18.6762C109.055 18.7167 109.762 18.9428 110.438 19.3546C111.121 19.7596 111.679 20.3333 112.112 21.0758C112.544 21.8183 112.761 22.716 112.761 23.769C112.761 24.8422 112.5 25.8074 111.98 26.6646C111.459 27.5151 110.675 28.1867 109.626 28.6795C108.578 29.1722 107.26 29.4186 105.671 29.4186H97.2617ZM101.025 26.2799H105.072C106.438 26.2799 107.422 26.02 108.024 25.5003C108.632 24.9738 108.937 24.2988 108.937 23.4753C108.937 22.8611 108.785 22.3076 108.48 21.8149C108.176 21.3154 107.743 20.9239 107.182 20.6404C106.621 20.3502 105.951 20.2051 105.173 20.2051H101.025V26.2799ZM101.025 17.5017H104.747C105.397 17.5017 105.982 17.3836 106.502 17.1474C107.023 16.9044 107.432 16.5635 107.73 16.1248C108.034 15.6793 108.186 15.1528 108.186 14.5453C108.186 13.7421 107.902 13.0806 107.334 12.5609C106.773 12.0411 105.938 11.7813 104.829 11.7813H101.025V17.5017Z" fill="url(#paint3_linear_50_14778)" stroke="#7A6723" stroke-width="0.1"/>
<defs>
<linearGradient id="paint0_linear_50_14778" x1="18.6397" y1="2.70734" x2="18.6397" y2="34.2927" gradientUnits="userSpaceOnUse">
<stop stop-color="#FFDB5C"/>
<stop offset="1" stop-color="#FFC700"/>
</linearGradient>
<linearGradient id="paint1_linear_50_14778" x1="131.247" y1="8.68311" x2="131.247" y2="29.4186" gradientUnits="userSpaceOnUse">
<stop stop-color="#FFDB5C"/>
<stop offset="1" stop-color="#FFC700"/>
</linearGradient>
<linearGradient id="paint2_linear_50_14778" x1="117.916" y1="8.68311" x2="117.916" y2="29.4186" gradientUnits="userSpaceOnUse">
<stop stop-color="#FFDB5C"/>
<stop offset="1" stop-color="#FFC700"/>
</linearGradient>
<linearGradient id="paint3_linear_50_14778" x1="105.011" y1="8.68311" x2="105.011" y2="29.4186" gradientUnits="userSpaceOnUse">
<stop stop-color="#FFDB5C"/>
<stop offset="1" stop-color="#FFC700"/>
</linearGradient>
</defs>
</svg>
