<svg xmlns="http://www.w3.org/2000/svg" width="72" height="72" viewBox="0 0 72 72" fill="none">
<rect width="72" height="72" fill="white"/>
<path fill-rule="evenodd" clip-rule="evenodd" d="M8 21.144C8 18.9349 9.79086 17.144 12 17.144H60C62.2091 17.144 64 18.9349 64 21.144V30.1439C61.007 30.1439 58.5806 32.5703 58.5806 35.5633C58.5806 38.5563 61.007 40.9826 64 40.9826V50.0543C64 52.2634 62.2091 54.0543 60 54.0543H12C9.79086 54.0543 8 52.2634 8 50.0543V40.9826C10.993 40.9826 13.4194 38.5563 13.4194 35.5633C13.4194 32.5703 10.993 30.1439 8 30.1439V21.144Z" fill="#8E949E"/>
<path fill-rule="evenodd" clip-rule="evenodd" d="M5.06108 29.6225C4.43838 27.5029 5.65184 25.2799 7.7714 24.6572L53.8251 11.1274C55.9447 10.5047 58.1677 11.7181 58.7904 13.8377L61.3272 22.4727C58.4555 23.3163 56.8115 26.3282 57.6552 29.1998C58.4988 32.0715 61.5107 33.7155 64.3823 32.8719L66.9394 41.5757C67.5621 43.6953 66.3486 45.9183 64.229 46.541L18.1753 60.0708C16.0558 60.6935 13.8327 59.48 13.21 57.3605L10.653 48.6567C13.5247 47.813 15.1687 44.8012 14.3251 41.9295C13.4814 39.0578 10.4696 37.4138 7.59788 38.2574L5.06108 29.6225Z" fill="#78808E"/>
<path d="M27.42 31.344C27.42 30.1707 27.7533 29.2774 28.42 28.664C29.0867 28.0374 29.96 27.724 31.04 27.724C32.1067 27.724 32.9667 28.0374 33.62 28.664C34.2867 29.2774 34.62 30.1707 34.62 31.344C34.62 32.5174 34.2867 33.4107 33.62 34.024C32.9667 34.6374 32.1067 34.944 31.04 34.944C29.96 34.944 29.0867 34.6374 28.42 34.024C27.7533 33.4107 27.42 32.5174 27.42 31.344ZM42.24 27.924L34.78 42.144H30.54L38 27.924H42.24ZM31 30.304C30.5467 30.304 30.32 30.6507 30.32 31.344C30.32 32.024 30.5467 32.364 31 32.364C31.24 32.364 31.42 32.2774 31.54 32.104C31.6733 31.9307 31.74 31.6774 31.74 31.344C31.74 30.9974 31.6733 30.7374 31.54 30.564C31.42 30.3907 31.24 30.304 31 30.304ZM38.16 38.724C38.16 37.5507 38.4933 36.6574 39.16 36.044C39.8267 35.4174 40.6933 35.104 41.76 35.104C42.84 35.104 43.7067 35.4174 44.36 36.044C45.0133 36.6574 45.34 37.5507 45.34 38.724C45.34 39.8974 45.0133 40.7974 44.36 41.424C43.7067 42.0374 42.84 42.344 41.76 42.344C40.6933 42.344 39.8267 42.0374 39.16 41.424C38.4933 40.7974 38.16 39.8974 38.16 38.724ZM41.74 37.684C41.2733 37.684 41.04 38.0307 41.04 38.724C41.04 39.4174 41.2733 39.764 41.74 39.764C41.9667 39.764 42.14 39.6774 42.26 39.504C42.3933 39.3307 42.46 39.0707 42.46 38.724C42.46 38.3907 42.3933 38.1374 42.26 37.964C42.14 37.7774 41.9667 37.684 41.74 37.684Z" fill="#FFD540"/>
</svg>