<svg width="72" height="72" viewBox="0 0 72 72" fill="none" xmlns="http://www.w3.org/2000/svg">
<rect width="72" height="72" fill="white"/>
<rect x="23.0361" y="13.967" width="26" height="41.8616" fill="#FFD540"/>
<path d="M61.2008 12.0102L35.889 4L10.5856 12.0102C9.6343 12.3095 8.99164 13.1918 9.00008 14.1898V46.0723C9.05071 46.2889 10.2439 51.5372 15.4175 56.6195C19.3979 60.5286 28.9456 65.5534 33.1102 67.7322C33.7606 68.0735 34.07 68.1982 34.3449 68.3475L35.5803 68.9628C35.9059 69.1373 36.4902 69.1296 36.8157 68.9628L38.0511 68.3475C40.4874 67.1582 51.762 61.1362 56.3605 56.6195C61.5432 51.5372 62.7364 46.2889 62.7863 46.0723V14.1898C62.8025 13.1918 62.1521 12.3095 61.2008 12.0102ZM36.2061 64.0221L36.1892 64.0137H36.2307C36.2145 64.0221 36.2061 64.0221 36.2061 64.0221ZM42.2396 45.4984H38.1502V51.238C38.1502 52.5688 37.0653 53.6502 35.7301 53.6502C34.3948 53.6502 33.3099 52.5688 33.3099 51.238V36.432C33.3099 36.3822 33.3184 36.3409 33.3184 36.2989C32.8761 36.1657 32.4338 36.0073 31.9916 35.8083C30.4981 35.1264 29.2213 33.9035 28.3698 32.5145C27.4852 31.0673 27.0177 29.2536 27.1597 27.557C27.3263 25.6192 28.0273 23.9303 29.2712 22.4249C31.4241 19.8214 35.3799 18.7653 38.551 19.921C40.3454 20.5783 41.8058 21.6765 42.9076 23.2232C43.8758 24.5792 44.368 26.2675 44.4102 27.9228C44.4102 27.9725 44.4186 28.0139 44.4102 28.0644C44.4102 28.1225 44.4102 28.1807 44.4017 28.2389C44.285 31.9153 41.7481 35.3836 38.1425 36.3409V40.5745H42.2319C43.5671 40.5745 44.652 41.6558 44.652 42.9867V43.0862H44.6605C44.6598 44.417 43.5748 45.4984 42.2396 45.4984Z" fill="#78808E"/>
<path d="M38.6763 29.4932C38.701 29.4518 38.7263 29.4182 38.7347 29.4098C38.8785 29.1899 39.0095 28.962 39.1271 28.7272C39.2353 28.4195 39.319 28.1119 39.3858 27.7874C39.3942 27.6297 39.4027 27.4629 39.4111 27.3045C39.4111 27.1461 39.4027 26.9801 39.3858 26.8224C39.3274 26.5063 39.2353 26.1902 39.1271 25.8826C39.0297 25.6868 38.9239 25.4953 38.8099 25.3086C38.7846 25.2834 38.7263 25.2007 38.6264 25.0423C38.535 24.9421 38.4429 24.8342 38.3431 24.7431C38.2263 24.6267 38.1012 24.5104 37.9676 24.4018C37.9261 24.3773 37.8931 24.352 37.8839 24.3436C37.6636 24.2003 37.4352 24.0697 37.1998 23.9526C36.8911 23.8446 36.5824 23.7612 36.2653 23.6947C35.9398 23.6701 35.6142 23.6701 35.2887 23.6947C34.9716 23.7528 34.6545 23.8446 34.3542 23.9526C34.1578 24.0496 33.9657 24.1551 33.7784 24.2686C33.7531 24.2939 33.6701 24.352 33.5112 24.4515C33.4106 24.5426 33.3024 24.6345 33.211 24.734C33.0942 24.8503 32.9775 24.975 32.8685 25.1082C32.8439 25.1495 32.8186 25.1832 32.8102 25.1916C32.6663 25.4112 32.5353 25.6388 32.4178 25.8735C32.3096 26.1811 32.2259 26.4888 32.1591 26.8049C32.1345 27.1293 32.1345 27.4538 32.1591 27.7783C32.2174 28.0943 32.3096 28.4104 32.4178 28.7097C32.5177 28.9094 32.6182 29.0923 32.7349 29.2836C32.7603 29.3088 32.8186 29.3915 32.9185 29.5499C33.0099 29.6501 33.102 29.7581 33.2018 29.8492C33.3185 29.9655 33.4437 30.0818 33.5773 30.1905C33.6188 30.215 33.6525 30.2402 33.661 30.2486C33.8775 30.3902 34.1117 30.5233 34.3451 30.6397C34.6538 30.7476 34.9624 30.831 35.2796 30.8976C35.6051 30.9228 35.9306 30.9228 36.2562 30.8976C36.5733 30.8394 36.8904 30.7476 37.1906 30.6397C37.391 30.5402 37.5746 30.4399 37.7665 30.3236C37.7918 30.2984 37.8748 30.2402 38.0337 30.1407C38.142 30.0573 38.2425 29.9662 38.3339 29.866C38.4513 29.7511 38.5681 29.6263 38.6763 29.4932Z" fill="#78808E"/>
</svg>
