<svg width="350" height="33" viewBox="0 0 350 33" fill="none" xmlns="http://www.w3.org/2000/svg">
<path d="M262.406 17.0756C232.125 15.0806 98.2009 23.6549 70.2273 32.5687C70.2273 32.9932 70.5426 33.0185 70.9266 32.9932C74.1436 32.7809 129.348 26.3471 169.324 24.1642C182.276 23.457 196.416 22.9224 209.746 21.9146C223.076 20.9067 262.406 17.0756 262.406 17.0756Z" fill="url(#paint0_linear_146_2028)"/>
<path d="M349.894 4.38396C349.894 4.38396 350.174 4.46888 349.824 4.89335C349.637 4.95025 348.915 5.23289 347.097 5.74225C344.439 6.76097 238.521 4.47647 177.297 8.37395L0.852521 18.4764C-0.778961 18.5594 0.432915 17.7548 0.432915 17.7548C23.0846 13.406 46.3098 8.79848 107.922 5.61503C150.162 2.64511 228.775 -0.209166 244.853 0.0120782C268.84 0.0120782 319.924 2.07692 349.894 4.38396Z" fill="url(#paint1_linear_146_2028)"/>
<defs>
<linearGradient id="paint0_linear_146_2028" x1="175" y1="0" x2="175" y2="33" gradientUnits="userSpaceOnUse">
<stop stop-color="#FFDB5C"/>
<stop offset="1" stop-color="#FFC700"/>
</linearGradient>
<linearGradient id="paint1_linear_146_2028" x1="175" y1="0" x2="175" y2="33" gradientUnits="userSpaceOnUse">
<stop stop-color="#FFDB5C"/>
<stop offset="1" stop-color="#FFC700"/>
</linearGradient>
</defs>
</svg>
