<svg width="1775" height="431" viewBox="0 0 1775 431" fill="none" xmlns="http://www.w3.org/2000/svg">
<g opacity="0.1">
<path d="M1753.16 740.71C1752.97 740.71 1752.79 740.615 1752.65 740.471L1691.9 675.78L1517.73 675.836C1517.5 675.837 1517.31 675.742 1517.17 675.55L1021.54 4.99544L737.007 4.01169L286.979 675.982C286.841 676.175 286.656 676.271 286.425 676.272L0.695038 676.397C0.325643 676.399 0.0012934 676.064 3.96e-06 675.68C-0.00128548 675.296 0.320807 674.958 0.690203 674.957L286.051 674.833L736.079 2.86277C736.217 2.67022 736.402 2.57354 736.633 2.57271L1021.86 3.55394C1022.09 3.5531 1022.27 3.64847 1022.41 3.84001L1518.04 674.395L1692.17 674.339C1692.36 674.338 1692.54 674.434 1692.68 674.577L1753.66 739.508C1753.94 739.795 1753.94 740.227 1753.67 740.516C1753.53 740.612 1753.34 740.709 1753.16 740.71Z" fill="url(#paint0_linear_146_2081)"/>
<path d="M1773.1 518.248L1.36152 517.333C0.992123 517.334 0.667774 516.999 0.666485 516.615C0.665195 516.231 1.0333 515.845 1.35668 515.892L1773.09 516.807C1773.46 516.806 1773.79 517.141 1773.79 517.525C1773.79 517.909 1773.51 518.246 1773.1 518.248Z" fill="url(#paint1_linear_146_2081)"/>
<path d="M1773.61 409.068L1.86851 407C1.49911 407.001 1.17476 406.667 1.17347 406.283C1.17218 405.898 1.49427 405.561 1.86367 405.56L1773.6 407.627C1773.97 407.626 1774.3 407.961 1774.3 408.345C1774.3 408.729 1773.98 409.066 1773.61 409.068Z" fill="url(#paint2_linear_146_2081)"/>
<path d="M1773.94 328.887L2.19683 326.004C1.82743 326.005 1.50309 325.67 1.5018 325.286C1.50051 324.902 1.8226 324.565 2.19199 324.563L1773.94 327.447C1774.31 327.446 1774.63 327.78 1774.63 328.165C1774.63 328.597 1774.31 328.886 1773.94 328.887Z" fill="url(#paint3_linear_146_2081)"/>
<path d="M1774.2 269.064C1774.11 269.064 1773.97 269.017 1773.88 268.969L1771.1 267.539L2.4507 264.068C2.0813 264.069 1.75695 263.734 1.75566 263.35C1.75437 262.966 2.07647 262.629 2.44586 262.627L1771.24 266.146C1771.33 266.146 1771.47 266.193 1771.56 266.241L1774.47 267.767C1774.8 267.957 1774.94 268.389 1774.8 268.726C1774.71 268.918 1774.43 269.063 1774.2 269.064Z" fill="url(#paint4_linear_146_2081)"/>
<path d="M59.8498 732.788C59.6651 732.789 59.5264 732.741 59.3874 732.598C59.1094 732.311 59.0617 731.879 59.3378 731.59L184.82 587.772C184.958 587.627 185.143 587.531 185.327 587.53L1767.79 587.692C1767.98 587.691 1768.11 587.739 1768.25 587.882L1773.26 592.233C1773.53 592.472 1773.58 592.952 1773.35 593.241C1773.12 593.53 1772.66 593.579 1772.38 593.34L1767.61 589.133L185.702 588.969L60.4031 732.546C60.2188 732.691 60.0345 732.787 59.8498 732.788Z" fill="url(#paint5_linear_146_2081)"/>
<path d="M1376.87 738.955C1376.64 738.955 1376.41 738.812 1376.27 738.573L980.581 4.47197C980.395 4.13656 980.533 3.70396 980.855 3.51074C981.178 3.31753 981.594 3.46004 981.78 3.79545L1377.47 737.848C1377.66 738.184 1377.52 738.616 1377.2 738.809C1377.1 738.906 1377.01 738.954 1376.87 738.955Z" fill="url(#paint6_linear_146_2081)"/>
<path d="M1565.04 739.808C1564.81 739.809 1564.62 739.714 1564.48 739.522L1517.4 675.837L286.749 676.319L248.523 733.352C248.293 733.689 247.878 733.738 247.554 733.547C247.23 733.308 247.182 732.876 247.366 732.54L285.775 675.17C285.913 674.978 286.144 674.881 286.328 674.88L1517.68 674.396C1517.91 674.395 1518.09 674.491 1518.23 674.682L1565.54 738.654C1565.78 738.989 1565.73 739.421 1565.41 739.663C1565.32 739.759 1565.18 739.807 1565.04 739.808Z" fill="url(#paint7_linear_146_2081)"/>
<path d="M1188.75 738.053C1188.48 738.054 1188.2 737.863 1188.11 737.575L939.854 4.23569C939.714 3.8521 939.898 3.46733 940.267 3.32196C940.636 3.17658 941.006 3.3673 941.145 3.75088L1189.4 737.09C1189.54 737.474 1189.35 737.859 1188.98 738.004C1188.89 738.053 1188.8 738.053 1188.75 738.053Z" fill="url(#paint8_linear_146_2081)"/>
<path d="M436.136 734.543C436.043 734.543 435.951 734.544 435.812 734.448C435.488 734.257 435.302 733.826 435.486 733.489L776.806 3.09905C776.99 2.7623 777.405 2.56874 777.729 2.75961C778.053 2.95048 778.239 3.38191 778.055 3.71866L436.781 734.157C436.643 734.397 436.413 734.542 436.136 734.543Z" fill="url(#paint9_linear_146_2081)"/>
<path d="M1000.59 737.151C1000.26 737.153 999.94 736.914 999.893 736.53L899.081 3.95156C899.033 3.56764 899.309 3.18254 899.678 3.13319C900.047 3.08383 900.418 3.37055 900.465 3.75447L1001.28 736.381C1001.33 736.765 1001.05 737.15 1000.68 737.199C1000.63 737.151 1000.63 737.151 1000.59 737.151Z" fill="url(#paint10_linear_146_2081)"/>
<path d="M624.302 735.396C624.255 735.397 624.163 735.397 624.117 735.349C623.747 735.255 623.515 734.823 623.652 734.487L817.626 3.33497C817.717 2.95055 818.132 2.70898 818.456 2.85184C818.825 2.94652 819.058 3.37781 818.92 3.71439L624.947 734.914C624.855 735.202 624.579 735.396 624.302 735.396Z" fill="url(#paint11_linear_146_2081)"/>
<path d="M812.422 736.298L812.375 736.298C812.006 736.252 811.682 735.917 811.726 735.533L858.307 3.66743C858.352 3.28318 858.674 2.99396 859.044 2.99262C859.413 3.03929 859.738 3.37418 859.693 3.75843L813.112 735.624C813.113 736.008 812.791 736.297 812.422 736.298Z" fill="url(#paint12_linear_146_2081)"/>
<path d="M55.8621 81.3819L3.26829 81.2367C2.89889 81.2381 2.57454 80.9032 2.57325 80.5191C2.57196 80.135 2.89406 79.7978 3.26345 79.7964L55.7187 79.9421L83.8532 70.3337C83.9456 70.3334 83.9916 70.2852 84.0839 70.2849L139.217 70.4688L163.568 61.4983C163.66 61.45 163.706 61.4498 163.798 61.4495L217.039 61.6403L238.067 53.258C238.159 53.2097 238.251 53.2093 238.297 53.2091L289.783 53.3584L307.857 45.5149C307.949 45.4665 307.996 45.4664 308.134 45.4659L357.957 45.6211L373.401 38.2673C373.493 38.219 373.586 38.1706 373.678 38.2183L421.932 38.3792L435.022 31.4661C435.114 31.4177 435.207 31.4174 435.345 31.3689L482.121 31.5352L493.089 25.0138C493.181 24.9655 493.273 24.8691 493.411 24.9166L538.802 25.088L547.878 18.9575C547.97 18.8612 548.062 18.8609 548.247 18.8602L592.298 18.9884L599.667 13.2483C599.805 13.1517 599.897 13.1034 600.082 13.1027L642.887 13.2354L654.395 2.53511C654.533 2.43858 654.671 2.34205 654.856 2.34138L736.54 2.62105C736.91 2.6197 737.234 2.95461 737.235 3.3387C737.237 3.72278 736.868 4.01219 736.545 4.06137L655.138 3.7807L643.63 14.481C643.492 14.5776 643.353 14.6261 643.169 14.6748L600.318 14.5422L592.949 20.2823C592.811 20.3789 592.719 20.4272 592.534 20.4279L548.437 20.2999L539.361 26.4303C539.269 26.5266 539.176 26.527 538.992 26.5276L493.601 26.3563L482.633 32.8776C482.541 32.926 482.449 32.9743 482.31 32.9748L435.581 32.7604L422.49 39.6735C422.398 39.7219 422.306 39.7702 422.167 39.7707L373.914 39.6098L358.47 46.9636C358.378 47.0119 358.285 47.0123 358.193 47.0126L308.37 46.8574L290.295 54.7008C290.203 54.7492 290.111 54.7495 290.018 54.7499L238.487 54.6008L217.459 62.9831C217.367 63.0315 217.274 63.0318 217.228 63.032L163.988 62.8411L139.638 71.8116C139.545 71.86 139.499 71.8602 139.407 71.8605L84.1811 71.7248L56.0466 81.3332C56.0006 81.3814 55.9083 81.3818 55.8621 81.3819Z" fill="url(#paint13_linear_146_2081)"/>
<path d="M1774.87 111.728C1774.78 111.728 1774.74 111.728 1774.64 111.68L1764.24 108.117L3.15661 102.986C2.78721 102.988 2.46286 102.653 2.46157 102.269C2.46028 101.885 2.78238 101.547 3.15177 101.546L1764.33 106.677C1764.42 106.676 1764.47 106.676 1764.56 106.724L1775.1 110.334C1775.47 110.477 1775.66 110.86 1775.52 111.245C1775.43 111.533 1775.15 111.727 1774.87 111.728Z" fill="url(#paint14_linear_146_2081)"/>
<path d="M1774.76 134.005C1774.67 134.006 1774.63 134.006 1774.53 133.958L1772.59 133.245L3.05701 128.337C2.68762 128.338 2.36327 128.003 2.36198 127.619C2.36069 127.235 2.72896 126.898 3.05218 126.896L1772.73 131.804C1772.82 131.804 1772.86 131.804 1772.96 131.851L1775.04 132.612C1775.41 132.755 1775.59 133.138 1775.46 133.523C1775.32 133.811 1775.04 134.004 1774.76 134.005Z" fill="url(#paint15_linear_146_2081)"/>
<path d="M1774.2 267.575L1771.29 267.586C1771.2 267.586 1771.06 267.539 1770.96 267.491L1336.77 42.7407L422.352 39.7701L2.81135 261.474C2.48878 261.667 2.07272 261.524 1.88674 261.141C1.70091 260.806 1.83798 260.373 2.20673 260.18L421.885 38.3794C421.978 38.3311 422.116 38.2826 422.208 38.2822L1336.95 41.2997C1337.04 41.2993 1337.18 41.3469 1337.27 41.3945L1771.47 266.097L1774.24 266.087C1774.61 266.086 1774.93 266.421 1774.93 266.805C1774.89 267.237 1774.57 267.574 1774.2 267.575Z" fill="url(#paint16_linear_146_2081)"/>
<path d="M1774.63 162.909L2.9267 158.297C2.5573 158.298 2.23295 157.963 2.23166 157.579C2.23037 157.195 2.55247 156.858 2.92186 156.856L1774.63 161.468C1774.99 161.467 1775.32 161.802 1775.32 162.186C1775.32 162.618 1775.05 162.907 1774.63 162.909Z" fill="url(#paint17_linear_146_2081)"/>
<path d="M1773.96 322.213C1773.87 322.214 1773.73 322.166 1773.64 322.119L1728.72 296.211L43.367 293.158L2.58323 317.312C2.26065 317.505 1.84476 317.411 1.65877 317.027C1.47294 316.692 1.56384 316.259 1.93259 316.066L42.8546 291.816C42.9468 291.767 42.9928 291.719 43.1775 291.719L1728.9 294.77C1729.04 294.77 1729.13 294.818 1729.22 294.865L1774.28 320.868C1774.61 321.059 1774.75 321.49 1774.56 321.827C1774.43 322.068 1774.2 322.213 1773.96 322.213Z" fill="url(#paint18_linear_146_2081)"/>
<path d="M1774.52 198.534L2.77054 194.306C2.40114 194.307 2.07679 193.972 2.0755 193.588C2.07421 193.204 2.34997 192.819 2.7657 192.865L1774.47 197.094C1774.84 197.092 1775.16 197.427 1775.16 197.811C1775.21 198.195 1774.89 198.532 1774.52 198.534Z" fill="url(#paint19_linear_146_2081)"/>
<path d="M1773.68 389.191C1773.54 389.191 1773.4 389.144 1773.31 389.096L1737.96 366.083L39.171 363.702L2.31448 388.562C1.99191 388.755 1.57602 388.661 1.34418 388.374C1.15835 388.038 1.24925 387.606 1.52549 387.365L38.5664 362.408C38.6584 362.312 38.797 362.311 38.9355 362.311L1738.14 364.69C1738.28 364.689 1738.41 364.737 1738.51 364.784L1774 387.893C1774.32 388.084 1774.42 388.564 1774.23 388.901C1774.14 389.045 1773.91 389.19 1773.68 389.191Z" fill="url(#paint20_linear_146_2081)"/>
<path d="M1774.3 241.985L2.54847 238.189C2.17907 238.19 1.85472 237.856 1.85343 237.471C1.85214 237.087 2.17424 236.75 2.54363 236.749L1774.29 240.545C1774.66 240.543 1774.98 240.878 1774.99 241.262C1774.99 241.646 1774.71 241.983 1774.3 241.985Z" fill="url(#paint21_linear_146_2081)"/>
<path d="M1774.06 296.335L1728.86 296.259C1728.72 296.259 1728.63 296.212 1728.53 296.164L1276.62 35.5652L482.541 32.926L43.5052 293.062C43.413 293.11 43.2747 293.159 43.1823 293.159L2.3633 293.067C1.99391 293.068 1.66956 292.733 1.66827 292.349C1.66698 291.965 1.98907 291.628 2.35847 291.627L42.9928 291.719L482.028 31.5355C482.121 31.4872 482.213 31.4388 482.351 31.4383L1276.75 34.0763C1276.89 34.0758 1276.99 34.1235 1277.08 34.1712L1728.99 294.77L1774.01 294.847C1774.38 294.845 1774.71 295.18 1774.71 295.564C1774.75 295.996 1774.48 296.333 1774.06 296.335Z" fill="url(#paint22_linear_146_2081)"/>
<path d="M1774.95 92.2826C1774.9 92.2828 1774.81 92.2831 1774.76 92.2353L1757.1 86.538L1701.05 86.3573C1700.96 86.3577 1700.91 86.3578 1700.82 86.3102L1672.48 76.6187L1618.31 76.4312C1618.22 76.4315 1618.18 76.4317 1618.08 76.384L1593.44 67.3512L1541.03 67.2054C1540.94 67.2057 1540.85 67.206 1540.8 67.1582L1519.44 58.6897L1468.69 58.5378C1468.6 58.5381 1468.51 58.5385 1468.42 58.4908L1449.97 50.5878L1400.74 50.4304C1400.65 50.4307 1400.56 50.4311 1400.47 50.3834L1384.65 42.951L1336.9 42.7882C1336.81 42.7885 1336.67 42.741 1336.58 42.6934L1323.12 35.7325L1276.76 35.5647C1276.62 35.5652 1276.53 35.5175 1276.44 35.4699L1265.06 28.9336L1220.03 28.7609C1219.9 28.7614 1219.76 28.7139 1219.66 28.6662L1210.18 22.5072L1166.4 22.378C1166.26 22.3785 1166.13 22.331 1165.99 22.2354L1158.21 16.4543L1115.64 16.3207C1115.45 16.3214 1115.31 16.2739 1115.17 16.1304L1108.97 10.6796L1067.5 10.542C1067.32 10.5427 1067.13 10.4473 1066.99 10.3038L1062.17 5.18404L1021.82 5.04246C1021.45 5.0438 1021.12 4.7089 1021.12 4.32481C1021.12 3.94072 1021.44 3.60347 1021.81 3.60213L1062.49 3.74254C1062.68 3.74187 1062.86 3.83722 1063 3.98075L1067.82 9.1005L1109.24 9.23822C1109.43 9.23755 1109.56 9.28507 1109.7 9.4286L1115.91 14.8794L1158.48 15.0129C1158.62 15.0124 1158.76 15.0599 1158.9 15.1555L1166.68 20.9367L1210.45 21.0658C1210.59 21.0653 1210.73 21.1128 1210.82 21.1605L1220.31 27.3196L1265.33 27.4922C1265.47 27.4917 1265.56 27.5394 1265.65 27.5871L1277.03 34.1234L1323.35 34.2914C1323.44 34.291 1323.58 34.3385 1323.67 34.3862L1337.13 41.347L1384.83 41.51C1384.92 41.5097 1385.01 41.5093 1385.11 41.557L1400.92 48.9894L1450.1 49.147C1450.19 49.1466 1450.28 49.1463 1450.38 49.194L1468.83 57.0969L1519.57 57.2488C1519.67 57.2485 1519.76 57.2482 1519.81 57.296L1541.17 65.7645L1593.58 65.9104C1593.67 65.91 1593.71 65.9099 1593.81 65.9576L1618.45 74.9903L1672.61 75.1778C1672.7 75.1775 1672.75 75.1773 1672.84 75.225L1701.18 84.9165L1757.24 85.0971C1757.28 85.097 1757.38 85.0966 1757.42 85.1445L1775.22 90.8413C1775.59 90.9359 1775.78 91.3674 1775.68 91.7518C1775.55 92.0884 1775.27 92.2814 1774.95 92.2826Z" fill="url(#paint23_linear_146_2081)"/>
<path d="M1774.97 86.6171L1757.15 86.5858C1757.1 86.586 1757.01 86.5863 1756.97 86.5385L1726.73 76.8058L1672.57 76.6183C1672.48 76.6187 1672.43 76.6188 1672.34 76.5711L1645.9 67.4969L1593.49 67.3511C1593.4 67.3514 1593.35 67.3516 1593.26 67.3039L1570.23 58.8414L1519.49 58.6895C1519.39 58.6898 1519.3 58.6902 1519.26 58.6423L1499.24 50.6971L1450.06 50.5395C1449.97 50.5398 1449.87 50.5401 1449.78 50.4925L1432.44 43.0656L1384.74 42.9026C1384.65 42.903 1384.56 42.9033 1384.46 42.8556L1369.57 35.852L1323.26 35.684C1323.17 35.6843 1323.03 35.6368 1322.93 35.5891L1310.21 29.0097L1265.19 28.837C1265.05 28.8375 1264.96 28.7899 1264.87 28.7422L1254.14 22.5397L1210.36 22.4105C1210.22 22.411 1210.08 22.3635 1209.99 22.3158L1201.01 16.491L1158.39 16.3576C1158.26 16.3581 1158.12 16.3106 1157.98 16.2151L1150.62 10.7205L1109.15 10.5829C1108.97 10.5836 1108.83 10.536 1108.69 10.3925L1102.81 5.22862L1062.41 5.08718C1062.04 5.08852 1061.71 4.75361 1061.71 4.36953C1061.71 3.98544 1062.03 3.64819 1062.4 3.64685L1103.04 3.78745C1103.22 3.78678 1103.36 3.83427 1103.5 3.9778L1109.38 9.14173L1150.84 9.27928C1150.98 9.27878 1151.12 9.32628 1151.26 9.4218L1158.62 14.9164L1201.19 15.05C1201.33 15.0495 1201.47 15.097 1201.56 15.1446L1210.54 20.9695L1254.32 21.0987C1254.45 21.0982 1254.55 21.1458 1254.64 21.1935L1265.37 27.396L1310.39 27.5687C1310.49 27.5684 1310.63 27.6159 1310.72 27.6636L1323.44 34.243L1369.75 34.411C1369.84 34.4107 1369.94 34.4103 1370.03 34.458L1384.92 41.4616L1432.62 41.6246C1432.71 41.6243 1432.81 41.6239 1432.9 41.6716L1450.24 49.0985L1499.42 49.2561C1499.51 49.2557 1499.6 49.2554 1499.65 49.3032L1519.67 57.2485L1570.41 57.4004C1570.51 57.4001 1570.55 57.3999 1570.64 57.4476L1593.67 65.91L1646.03 66.0561C1646.12 66.0558 1646.17 66.0556 1646.26 66.1032L1672.7 75.1775L1726.87 75.365C1726.91 75.3648 1727.01 75.3645 1727.05 75.4123L1757.28 85.145L1774.97 85.1768C1775.34 85.1755 1775.66 85.5104 1775.66 85.8945C1775.67 86.2785 1775.34 86.6158 1774.97 86.6171Z" fill="url(#paint24_linear_146_2081)"/>
<path d="M1775.03 76.9666L1726.87 76.8053C1726.83 76.8055 1726.74 76.8058 1726.69 76.758L1698.49 67.6901L1646.13 67.5441C1646.04 67.5444 1645.99 67.5446 1645.9 67.4969L1621.17 59.0406L1570.46 58.8886C1570.37 58.8889 1570.33 58.8891 1570.23 58.8414L1548.64 50.9018L1499.47 50.7442C1499.37 50.7446 1499.28 50.7449 1499.24 50.6971L1480.42 43.2276L1432.72 43.0646C1432.63 43.0649 1432.53 43.0653 1432.44 43.0176L1416.16 36.019L1369.85 35.851C1369.76 35.8513 1369.66 35.8517 1369.57 35.804L1355.56 29.2292L1310.54 29.0566C1310.45 29.0569 1310.31 29.0094 1310.21 28.9617L1298.23 22.7637L1254.46 22.6345C1254.32 22.635 1254.23 22.5874 1254.14 22.5397L1244 16.671L1201.38 16.5376C1201.25 16.5381 1201.11 16.4906 1201.01 16.4429L1192.55 10.9044L1151.08 10.7668C1150.94 10.7673 1150.8 10.7198 1150.66 10.6243L1143.72 5.41621L1103.32 5.27477C1102.95 5.27611 1102.62 4.94121 1102.62 4.55712C1102.62 4.17303 1102.94 3.83578 1103.31 3.83444L1143.95 3.97504C1144.09 3.97454 1144.22 4.02204 1144.36 4.11756L1151.31 9.3256L1192.77 9.46319C1192.91 9.46269 1193.05 9.5102 1193.14 9.55788L1201.61 15.0965L1244.18 15.23C1244.32 15.2295 1244.42 15.2772 1244.51 15.3249L1254.64 21.1935L1298.41 21.3227C1298.51 21.3224 1298.65 21.3699 1298.74 21.4176L1310.72 27.6156L1355.74 27.7882C1355.83 27.7879 1355.92 27.7876 1356.02 27.8353L1370.03 34.41L1416.34 34.578C1416.44 34.5776 1416.53 34.5773 1416.62 34.625L1432.9 41.6236L1480.6 41.7866C1480.69 41.7862 1480.78 41.7859 1480.83 41.8337L1499.51 49.3037L1548.68 49.4613C1548.78 49.461 1548.82 49.4608 1548.92 49.5085L1570.51 57.4481L1621.21 57.6001C1621.3 57.5998 1621.35 57.5996 1621.44 57.6473L1646.17 66.1036L1698.53 66.2496C1698.58 66.2494 1698.67 66.2491 1698.72 66.297L1726.91 75.3648L1774.98 75.5264C1775.35 75.5251 1775.68 75.86 1775.68 76.2441C1775.73 76.628 1775.4 76.9653 1775.03 76.9666Z" fill="url(#paint25_linear_146_2081)"/>
<path d="M1775.03 75.1422C1774.98 75.1424 1774.89 75.1427 1774.84 75.0948L1750.85 67.8361L1698.54 67.6899C1698.49 67.6901 1698.4 67.6905 1698.35 67.6426L1671.91 59.1445L1621.21 58.9924C1621.12 58.9928 1621.07 58.9929 1620.98 58.9453L1597.77 51.0116L1548.64 50.8538C1548.55 50.8541 1548.5 50.8543 1548.41 50.8066L1528.12 43.3425L1480.46 43.1794C1480.37 43.1797 1480.28 43.18 1480.23 43.1322L1462.52 36.1388L1416.21 35.9708C1416.12 35.9711 1416.02 35.9715 1415.93 35.9238L1400.58 29.3059L1355.56 29.1332C1355.47 29.1336 1355.37 29.1339 1355.28 29.0862L1342.01 22.8449L1298.23 22.7157C1298.14 22.716 1298 22.6685 1297.91 22.6208L1286.58 16.7565L1244 16.623C1243.87 16.6235 1243.77 16.5758 1243.68 16.5281L1234.06 10.9937L1192.59 10.8562C1192.45 10.8567 1192.31 10.8092 1192.22 10.7615L1184.17 5.50945L1143.77 5.36801C1143.4 5.36935 1143.07 5.03445 1143.07 4.65036C1143.07 4.26628 1143.39 3.92903 1143.76 3.92768L1184.4 4.06829C1184.53 4.06778 1184.67 4.11527 1184.77 4.16295L1192.82 9.41499L1234.28 9.55258C1234.42 9.55207 1234.51 9.59976 1234.61 9.64743L1244.23 15.1818L1286.8 15.3154C1286.9 15.315 1287.04 15.3625 1287.13 15.4102L1298.46 21.2745L1342.23 21.4037C1342.33 21.4034 1342.42 21.403 1342.51 21.4507L1355.78 27.6921L1400.76 27.8649C1400.85 27.8645 1400.94 27.8642 1401.04 27.9119L1416.39 34.5298L1462.66 34.6979C1462.75 34.6976 1462.84 34.6973 1462.89 34.7451L1480.6 41.7385L1528.25 41.9016C1528.34 41.9013 1528.39 41.9012 1528.48 41.9488L1548.78 49.413L1597.91 49.5707C1598 49.5704 1598.05 49.5702 1598.14 49.6179L1621.35 57.5516L1672 57.7038C1672.05 57.7037 1672.14 57.7034 1672.18 57.7512L1698.63 66.2493L1750.94 66.3955C1750.99 66.3953 1751.08 66.395 1751.13 66.4428L1775.21 73.7012C1775.58 73.7959 1775.76 74.2273 1775.67 74.6117C1775.63 74.948 1775.35 75.141 1775.03 75.1422Z" fill="url(#paint26_linear_146_2081)"/>
<path d="M1775.05 67.9404L1750.95 67.8838C1750.9 67.884 1750.81 67.8843 1750.76 67.8365L1722.66 59.3444L1672 59.1922C1671.96 59.1924 1671.87 59.1927 1671.82 59.1448L1647.04 51.1688L1597.91 51.0111C1597.82 51.0114 1597.77 51.0116 1597.68 50.9639L1575.91 43.5051L1528.25 43.342C1528.16 43.3423 1528.12 43.3425 1528.02 43.2948L1508.93 36.2584L1462.66 36.0903C1462.57 36.0906 1462.48 36.0909 1462.43 36.0431L1445.74 29.4301L1400.76 29.2572C1400.67 29.2576 1400.58 29.2579 1400.49 29.2102L1385.97 22.9734L1342.19 22.8442C1342.1 22.8445 1342.01 22.8449 1341.92 22.7972L1329.38 16.9373L1286.81 16.8037C1286.72 16.8041 1286.58 16.7566 1286.49 16.7089L1275.75 11.1305L1234.29 10.9929C1234.15 10.9934 1234.06 10.9457 1233.96 10.8981L1224.85 5.64987L1184.45 5.50845C1184.08 5.50979 1183.75 5.17489 1183.75 4.7908C1183.75 4.40672 1184.12 4.0693 1184.44 4.06812L1225.03 4.20887C1225.17 4.20836 1225.26 4.25605 1225.35 4.30372L1234.47 9.55191L1275.93 9.68947C1276.03 9.68913 1276.17 9.73665 1276.26 9.78432L1286.99 15.3627L1329.56 15.4963C1329.66 15.4959 1329.75 15.4956 1329.84 15.5433L1342.37 21.4032L1386.1 21.5326C1386.19 21.5322 1386.29 21.5319 1386.38 21.5796L1400.9 27.8164L1445.87 27.9892C1445.97 27.9889 1446.06 27.9886 1446.1 28.0364L1462.8 34.6494L1509.06 34.8176C1509.16 34.8173 1509.2 34.8171 1509.29 34.8647L1528.39 41.9012L1576.04 42.0643C1576.13 42.0639 1576.18 42.0638 1576.27 42.1114L1598.05 49.5702L1647.13 49.7282C1647.18 49.728 1647.27 49.7277 1647.32 49.7755L1672.09 57.7515L1722.75 57.9037C1722.79 57.9036 1722.89 57.9033 1722.93 57.9511L1751.03 66.4431L1775.05 66.5001C1775.42 66.4987 1775.74 66.8336 1775.74 67.2177C1775.74 67.6498 1775.47 67.9389 1775.05 67.9404Z" fill="url(#paint27_linear_146_2081)"/>
<path d="M1775.12 59.9702C1775.07 59.9704 1774.98 59.9707 1774.93 59.9229L1773.41 59.4963L1722.75 59.3441C1722.71 59.3442 1722.61 59.3446 1722.57 59.2967L1696.22 51.3264L1647.14 51.1685C1647.09 51.1687 1647 51.169 1646.95 51.1212L1623.7 43.6677L1576.05 43.5046C1575.95 43.5049 1575.91 43.5051 1575.82 43.4574L1555.29 36.4262L1509.02 36.2581C1508.93 36.2584 1508.88 36.2586 1508.79 36.2109L1490.81 29.6026L1445.83 29.4297C1445.74 29.4301 1445.65 29.4304 1445.6 29.3825L1429.83 23.1503L1386.11 23.0209C1386.01 23.0212 1385.92 23.0216 1385.83 22.9739L1372.1 17.0703L1329.52 16.9368C1329.43 16.9371 1329.34 16.9374 1329.24 16.8898L1317.36 11.3155L1275.89 11.178C1275.8 11.1783 1275.66 11.1308 1275.57 11.0831L1265.39 5.79077L1224.99 5.64936C1224.62 5.6507 1224.3 5.31579 1224.29 4.93171C1224.29 4.54762 1224.62 4.21037 1224.98 4.20903L1265.57 4.34977C1265.67 4.34944 1265.8 4.39695 1265.9 4.44463L1276.07 9.73699L1317.54 9.87455C1317.63 9.87421 1317.72 9.87386 1317.82 9.92154L1329.7 15.4958L1372.28 15.6293C1372.37 15.629 1372.46 15.6286 1372.55 15.6763L1386.29 21.5799L1430.01 21.7093C1430.11 21.7089 1430.2 21.7086 1430.25 21.7564L1446.01 27.9887L1490.99 28.1616C1491.08 28.1612 1491.13 28.1611 1491.22 28.2087L1509.2 34.8171L1555.47 34.9852C1555.56 34.9849 1555.61 34.9847 1555.7 35.0324L1576.23 42.0636L1623.88 42.2267C1623.93 42.2266 1624.02 42.2262 1624.06 42.2741L1647.32 49.7275L1696.4 49.8854C1696.45 49.8853 1696.54 49.8849 1696.58 49.9328L1722.93 57.9031L1773.54 58.0555C1773.59 58.0553 1773.68 58.055 1773.72 58.1028L1775.3 58.5772C1775.67 58.6719 1775.9 59.0552 1775.76 59.4397C1775.67 59.7762 1775.39 59.9692 1775.12 59.9702Z" fill="url(#paint28_linear_146_2081)"/>
<path d="M1775.11 59.5381L1773.5 59.544C1773.45 59.5442 1773.36 59.5445 1773.31 59.4966L1745.4 51.532L1696.31 51.3741C1696.27 51.3743 1696.17 51.3746 1696.13 51.3268L1671.35 43.8309L1623.75 43.6676C1623.7 43.6677 1623.61 43.6681 1623.56 43.6202L1601.65 36.594L1555.38 36.4259C1555.29 36.4262 1555.24 36.4264 1555.15 36.3787L1535.83 29.7752L1490.9 29.6023C1490.81 29.6026 1490.76 29.6027 1490.67 29.5551L1473.65 23.2793L1429.93 23.1499C1429.83 23.1503 1429.74 23.1506 1429.7 23.1028L1414.81 17.2034L1372.23 17.0698C1372.14 17.0702 1372.05 17.0705 1371.96 17.0228L1358.96 11.4526L1317.5 11.3151C1317.4 11.3154 1317.31 11.3157 1317.22 11.2681L1305.98 5.97955L1265.58 5.83814C1265.21 5.83948 1264.88 5.50458 1264.88 5.12049C1264.88 4.7364 1265.16 4.44733 1265.57 4.39781L1306.12 4.53872C1306.21 4.53838 1306.3 4.53807 1306.39 4.58574L1317.63 9.87422L1359.1 10.0118C1359.19 10.0114 1359.28 10.0111 1359.37 10.0588L1372.41 15.6768L1414.94 15.8105C1415.03 15.8102 1415.13 15.8099 1415.17 15.8577L1430.06 21.7571L1473.79 21.8865C1473.88 21.8861 1473.93 21.886 1474.02 21.9336L1491.03 28.2094L1535.96 28.3824C1536.05 28.3821 1536.1 28.3819 1536.19 28.4296L1555.52 35.0331L1601.78 35.2012C1601.83 35.2011 1601.92 35.2007 1601.97 35.2486L1623.88 42.2747L1671.49 42.438C1671.53 42.4379 1671.63 42.4375 1671.67 42.4854L1696.45 49.9813L1745.53 50.1392C1745.58 50.139 1745.67 50.1387 1745.72 50.1866L1773.63 58.1512L1775.16 58.1456C1775.53 58.1443 1775.85 58.4792 1775.85 58.8633C1775.81 59.1995 1775.48 59.5368 1775.11 59.5381Z" fill="url(#paint29_linear_146_2081)"/>
<path d="M1775.13 51.6162L1745.54 51.5315C1745.49 51.5317 1745.4 51.5321 1745.35 51.4842L1719.14 43.9935L1671.54 43.8302C1671.49 43.8304 1671.4 43.8307 1671.35 43.7828L1648.06 36.7617L1601.83 36.5934C1601.79 36.5935 1601.7 36.5939 1601.65 36.546L1580.99 29.8994L1536.06 29.7264C1535.97 29.7267 1535.92 29.7269 1535.83 29.6792L1517.57 23.408L1473.89 23.2784C1473.79 23.2788 1473.75 23.279 1473.65 23.2313L1457.57 17.3362L1414.99 17.2027C1414.9 17.203 1414.81 17.2034 1414.76 17.1555L1400.66 11.5413L1359.19 11.4038C1359.1 11.4041 1359.01 11.4045 1358.92 11.3568L1346.62 6.07213L1306.21 5.93072C1305.84 5.93206 1305.52 5.59716 1305.52 5.21307C1305.52 4.82898 1305.84 4.44372 1306.21 4.49039L1346.75 4.6313C1346.84 4.63097 1346.93 4.63065 1347.03 4.67832L1359.33 9.96295L1400.75 10.1007C1400.84 10.1003 1400.93 10.1 1400.98 10.1479L1415.08 15.762L1457.65 15.8956C1457.75 15.8952 1457.79 15.8951 1457.88 15.9428L1473.97 21.8378L1517.66 21.9673C1517.75 21.967 1517.79 21.9668 1517.89 22.0145L1536.15 28.2857L1581.08 28.4588C1581.12 28.4586 1581.21 28.4582 1581.26 28.5061L1601.92 35.1527L1648.14 35.321C1648.19 35.3209 1648.28 35.3205 1648.33 35.3684L1671.63 42.3895L1719.23 42.5528C1719.28 42.5526 1719.37 42.5523 1719.42 42.6002L1745.62 50.0909L1775.13 50.1758C1775.5 50.1745 1775.82 50.5094 1775.82 50.8935C1775.83 51.2776 1775.5 51.6148 1775.13 51.6162Z" fill="url(#paint30_linear_146_2081)"/>
<path d="M1775.16 46.3828C1775.12 46.383 1775.02 46.3833 1774.98 46.3835L1766.8 44.1566L1719.24 43.9931C1719.19 43.9933 1719.1 43.9936 1719.05 43.9458L1694.37 36.8817L1648.15 36.7134C1648.1 36.7135 1648.01 36.7138 1647.96 36.666L1626.01 30.0241L1581.08 29.8511C1581.03 29.8512 1580.94 29.8516 1580.9 29.8037L1561.39 23.537L1517.71 23.4075C1517.61 23.4078 1517.57 23.408 1517.48 23.3603L1500.23 17.4214L1457.7 17.2877C1457.61 17.2881 1457.57 17.2882 1457.47 17.2406L1442.22 11.6306L1400.8 11.4928C1400.7 11.4932 1400.61 11.4935 1400.57 11.4457L1387.2 6.16486L1346.8 6.02345C1346.43 6.02479 1346.11 5.68989 1346.11 5.3058C1346.1 4.92171 1346.43 4.58446 1346.8 4.58312L1387.29 4.7242C1387.38 4.72386 1387.48 4.72355 1387.52 4.77139L1400.88 10.0522L1442.3 10.1899C1442.4 10.1896 1442.44 10.1894 1442.54 10.2371L1457.79 15.8471L1500.32 15.9808C1500.41 15.9804 1500.46 15.9803 1500.55 16.028L1517.79 21.9668L1561.48 22.0963C1561.52 22.0962 1561.61 22.0958 1561.66 22.1437L1581.17 28.4104L1626.1 28.5834C1626.14 28.5832 1626.23 28.5829 1626.28 28.6308L1648.24 35.2727L1694.46 35.441C1694.5 35.4408 1694.6 35.4405 1694.64 35.4883L1719.32 42.5525L1766.89 42.7159C1766.93 42.7158 1767.02 42.7154 1767.07 42.7153L1775.34 44.9418C1775.71 45.0365 1775.94 45.4197 1775.85 45.8041C1775.76 46.1886 1775.44 46.3818 1775.16 46.3828Z" fill="url(#paint31_linear_146_2081)"/>
<path d="M1775.16 44.1743L1766.84 44.1564C1766.8 44.1566 1766.71 44.1569 1766.66 44.1571L1740.59 37.098L1694.42 36.9295C1694.37 36.9297 1694.28 36.93 1694.23 36.8822L1670.94 30.2451L1626.06 30.0719C1626.01 30.0721 1625.92 30.0724 1625.87 30.0246L1605.12 23.7624L1561.43 23.6329C1561.39 23.633 1561.3 23.6334 1561.25 23.5855L1542.81 17.651L1500.28 17.5173C1500.19 17.5176 1500.14 17.5178 1500.05 17.4701L1483.68 11.8642L1442.26 11.7264C1442.17 11.7268 1442.12 11.7269 1442.03 11.6793L1427.56 6.35448L1387.2 6.2129C1386.83 6.21424 1386.51 5.87933 1386.51 5.49525C1386.51 5.11116 1386.88 4.72573 1387.2 4.77257L1427.7 4.91364C1427.79 4.91331 1427.83 4.91313 1427.93 4.96081L1442.4 10.2856L1483.82 10.4233C1483.91 10.423 1483.95 10.4228 1484.05 10.4705L1500.41 16.0765L1542.94 16.2102C1542.99 16.21 1543.08 16.2097 1543.12 16.2575L1561.57 22.192L1605.25 22.3215C1605.3 22.3214 1605.39 22.3211 1605.44 22.3689L1626.19 28.6311L1671.07 28.8043C1671.12 28.8041 1671.21 28.8038 1671.26 28.8516L1694.55 35.4887L1740.73 35.6572C1740.77 35.657 1740.86 35.6567 1740.91 35.6565L1766.98 42.7156L1775.2 42.7338C1775.57 42.7325 1775.89 43.0674 1775.89 43.4514C1775.85 43.8837 1775.52 44.173 1775.16 44.1743Z" fill="url(#paint32_linear_146_2081)"/>
<path d="M1775.18 37.2125L1740.68 37.0977C1740.64 37.0978 1740.55 37.0982 1740.5 37.0983L1715.91 30.466L1671.03 30.2928C1670.98 30.2929 1670.89 30.2933 1670.85 30.2454L1648.85 23.9878L1605.21 23.8581C1605.16 23.8582 1605.07 23.8586 1605.02 23.8107L1585.43 17.8804L1542.9 17.7467C1542.85 17.7469 1542.76 17.7472 1542.71 17.6994L1525.24 12.0974L1483.82 11.9597C1483.73 11.96 1483.68 11.9602 1483.59 11.9125L1468.06 6.59158L1427.7 6.45C1427.33 6.45134 1427.01 6.11644 1427.01 5.73235C1427 5.34826 1427.33 5.01101 1427.7 5.00967L1468.19 5.15075C1468.28 5.15041 1468.33 5.15026 1468.42 5.19794L1483.96 10.5188L1525.37 10.6566C1525.42 10.6564 1525.51 10.6561 1525.56 10.7039L1543.03 16.3059L1585.56 16.4396C1585.61 16.4394 1585.7 16.4391 1585.74 16.4869L1605.34 22.4172L1648.98 22.5469C1649.03 22.5468 1649.12 22.5464 1649.16 22.5943L1671.16 28.8519L1716.05 29.0251C1716.09 29.025 1716.19 29.0246 1716.23 29.0245L1740.82 35.6568L1775.22 35.772C1775.59 35.7707 1775.91 36.1056 1775.91 36.4897C1775.87 36.8739 1775.59 37.211 1775.18 37.2125Z" fill="url(#paint33_linear_146_2081)"/>
<path d="M1775.21 34.2357C1775.17 34.2359 1775.12 34.236 1775.03 34.2364L1760.89 30.5908L1716.01 30.4176C1715.96 30.4178 1715.87 30.4181 1715.82 30.4183L1692.62 24.1169L1648.98 23.9873C1648.94 23.9874 1648.84 23.9878 1648.8 23.9399L1628 18.014L1585.52 17.8801C1585.47 17.8803 1585.38 17.8806 1585.33 17.8327L1566.75 12.2348L1525.38 12.0969C1525.33 12.0971 1525.24 12.0974 1525.19 12.0496L1508.6 6.73252L1468.24 6.59091C1467.87 6.59225 1467.55 6.25735 1467.55 5.87326C1467.55 5.48917 1467.78 5.15226 1468.24 5.15058L1508.69 5.29185C1508.73 5.29169 1508.83 5.29134 1508.87 5.33918L1525.47 10.6563L1566.84 10.7941C1566.89 10.794 1566.98 10.7937 1567.02 10.8415L1585.61 16.4394L1628.09 16.5733C1628.13 16.5731 1628.23 16.5728 1628.27 16.6206L1649.07 22.5466L1692.71 22.6763C1692.75 22.6761 1692.85 22.6758 1692.89 22.6756L1716.09 28.9769L1760.98 29.1501C1761.02 29.15 1761.07 29.1498 1761.16 29.1495L1775.39 32.7947C1775.76 32.8894 1776 33.2726 1775.9 33.657C1775.81 33.9934 1775.54 34.2345 1775.21 34.2357Z" fill="url(#paint34_linear_146_2081)"/>
<path d="M1775.2 30.6349L1760.98 30.5905C1760.93 30.5906 1760.89 30.5908 1760.8 30.5911L1736.35 24.2943L1692.71 24.1646C1692.67 24.1648 1692.57 24.1651 1692.53 24.1653L1670.57 18.2435L1628.09 18.1097C1628.05 18.1098 1627.95 18.1102 1627.91 18.0623L1608.22 12.4204L1566.85 12.2825C1566.8 12.2827 1566.71 12.283 1566.66 12.2351L1549 6.92193L1508.65 6.78035C1508.28 6.78169 1507.95 6.44679 1507.95 6.0627C1507.95 5.67862 1508.27 5.34137 1508.64 5.34002L1549.09 5.48127C1549.14 5.4811 1549.23 5.48078 1549.28 5.52863L1566.93 10.8418L1608.31 10.9797C1608.35 10.9796 1608.44 10.9792 1608.49 11.0271L1628.18 16.669L1670.66 16.8029C1670.71 16.8027 1670.8 16.8024 1670.85 16.8022L1692.8 22.724L1736.44 22.8537C1736.48 22.8535 1736.53 22.8533 1736.62 22.853L1761.07 29.1498L1775.24 29.1944C1775.61 29.193 1775.94 29.5279 1775.94 29.912C1775.89 30.2963 1775.62 30.6334 1775.2 30.6349Z" fill="url(#paint35_linear_146_2081)"/>
<path d="M1775.27 24.3931C1775.23 24.3933 1775.23 24.3933 1775.27 24.3931L1736.44 24.246C1736.39 24.2461 1736.35 24.2463 1736.26 24.2466L1713.1 18.2812L1670.67 18.1472C1670.62 18.1474 1670.53 18.1477 1670.48 18.1479L1649.64 12.5101L1608.26 12.3722C1608.22 12.3724 1608.13 12.3727 1608.08 12.3249L1589.36 6.96752L1549.05 6.82577C1548.68 6.82711 1548.36 6.4922 1548.35 6.10812C1548.35 5.72403 1548.68 5.38678 1549.04 5.38544L1589.45 5.52685C1589.49 5.52668 1589.59 5.52634 1589.63 5.57418L1608.35 10.9316L1649.73 11.0695C1649.77 11.0693 1649.86 11.069 1649.91 11.0688L1670.75 16.7065L1713.19 16.8406C1713.24 16.8404 1713.28 16.8402 1713.37 16.8399L1736.53 22.8053L1775.27 22.9528C1775.64 22.9514 1775.96 23.2863 1775.96 23.6704C1775.92 24.0547 1775.64 24.3918 1775.27 24.3931Z" fill="url(#paint36_linear_146_2081)"/>
<path d="M1775.27 23.1928C1775.22 23.193 1775.18 23.1932 1775.08 23.1935L1755.63 18.4149L1713.19 18.2809C1713.15 18.281 1713.1 18.2812 1713.01 18.2816L1691.06 12.6478L1649.73 12.5098C1649.68 12.5099 1649.59 12.5103 1649.55 12.5105L1629.81 7.15678L1589.5 7.015C1589.13 7.01634 1588.81 6.68144 1588.8 6.29735C1588.8 5.91326 1589.13 5.57602 1589.49 5.57467L1629.9 5.71612C1629.94 5.71595 1630.04 5.71561 1630.08 5.71545L1649.82 11.0691L1691.14 11.2072C1691.19 11.207 1691.24 11.2068 1691.33 11.2065L1713.28 16.8402L1755.72 16.9743C1755.76 16.9741 1755.81 16.9739 1755.86 16.9738L1775.4 21.752C1775.77 21.8467 1776.01 22.2299 1775.91 22.6143C1775.87 22.9986 1775.55 23.1918 1775.27 23.1928Z" fill="url(#paint37_linear_146_2081)"/>
<path d="M1775.25 18.4878L1755.72 18.4146C1755.68 18.4148 1755.63 18.4149 1755.58 18.4151L1732.57 12.7853L1691.24 12.6472C1691.2 12.6473 1691.15 12.6475 1691.06 12.6478L1670.26 7.29803L1629.95 7.15628C1629.58 7.15762 1629.26 6.82272 1629.25 6.43863C1629.25 6.05454 1629.53 5.71746 1629.94 5.71595L1670.3 5.85753C1670.35 5.85737 1670.39 5.8572 1670.49 5.85686L1691.28 11.2067L1732.61 11.3448C1732.66 11.3446 1732.7 11.3444 1732.75 11.3443L1755.76 16.9741L1775.25 17.0474C1775.62 17.0461 1775.94 17.381 1775.94 17.7651C1775.95 18.1972 1775.67 18.4862 1775.25 18.4878Z" fill="url(#paint38_linear_146_2081)"/>
<path d="M1775.28 13.2064C1775.24 13.2065 1775.19 13.2067 1775.14 13.2069L1773.94 12.9232L1732.62 12.7851C1732.57 12.7853 1732.52 12.7854 1732.48 12.7856L1710.62 7.43963L1670.35 7.29769C1669.98 7.29903 1669.66 6.96413 1669.66 6.58004C1669.66 6.19595 1669.98 5.8587 1670.35 5.85736L1710.71 5.99897C1710.75 5.9988 1710.8 5.99863 1710.84 5.99847L1732.7 11.3444L1774.03 11.4825C1774.08 11.4823 1774.12 11.4822 1774.17 11.482L1775.46 11.7654C1775.83 11.8601 1776.06 12.2433 1775.97 12.6277C1775.88 13.0121 1775.61 13.2052 1775.28 13.2064Z" fill="url(#paint39_linear_146_2081)"/>
<path d="M1775.28 12.9183L1773.99 12.923C1773.94 12.9232 1773.9 12.9233 1773.85 12.9235L1750.93 7.58139L1710.66 7.43947C1710.29 7.44081 1709.97 7.10591 1709.97 6.72182C1709.97 6.33773 1710.29 6.00048 1710.66 5.99914L1751.02 6.14072C1751.06 6.14055 1751.11 6.14039 1751.16 6.14022L1774.08 11.4823L1775.28 11.478C1775.65 11.4766 1775.97 11.8115 1775.97 12.1956C1775.97 12.5797 1775.7 12.9168 1775.28 12.9183Z" fill="url(#paint40_linear_146_2081)"/>
<path d="M1773.28 476.093C1773.14 476.093 1773 476.046 1772.86 475.95L1750.27 459.084L33.5758 457.585L1.93668 482.33C1.61427 482.571 1.19854 482.525 0.966539 482.19C0.734538 481.854 0.779262 481.422 1.10168 481.181L32.925 456.291C33.0632 456.195 33.1556 456.194 33.3401 456.146L1750.55 457.643C1750.69 457.643 1750.82 457.69 1750.96 457.786L1773.74 474.795C1774.06 475.034 1774.11 475.466 1773.88 475.803C1773.74 475.995 1773.51 476.092 1773.28 476.093Z" fill="url(#paint41_linear_146_2081)"/>
<path d="M1773.79 366.097L1738.19 366.034C1738.05 366.034 1737.91 365.987 1737.82 365.939L1219.85 28.7616L539.315 26.4784L39.3552 363.558C39.2632 363.654 39.1246 363.655 38.9861 363.655L2.04594 363.597C1.67655 363.598 1.3522 363.264 1.35091 362.879C1.34962 362.495 1.62537 362.11 2.04111 362.157L38.7504 362.216L538.71 25.1363C538.802 25.04 538.987 25.0393 539.079 25.039L1220.03 27.3206C1220.17 27.3201 1220.31 27.3676 1220.4 27.4153L1738.37 364.641L1773.78 364.704C1774.15 364.703 1774.48 365.038 1774.48 365.422C1774.48 365.806 1774.16 366.095 1773.79 366.097Z" fill="url(#paint42_linear_146_2081)"/>
<path d="M40.0331 1.54815L3.60069 1.44033C3.2313 1.44167 2.90695 1.10677 2.90566 0.722678C2.90437 0.338591 3.22646 0.00134072 3.59586 -8.02362e-10L40.0283 0.107826C40.3977 0.106485 40.722 0.441389 40.7233 0.825476C40.7248 1.25758 40.4487 1.54665 40.0331 1.54815Z" fill="url(#paint43_linear_146_2081)"/>
<path d="M38.2692 12.5492L3.5452 12.4352C3.17581 12.4365 2.85146 12.1016 2.85017 11.7175C2.84888 11.3334 3.17097 10.9962 3.54037 10.9949L38.172 11.1092L80.9861 0.295256C81.0323 0.295088 81.0784 0.29492 81.1708 0.294585L163.363 0.572411C163.733 0.571071 164.057 0.905974 164.058 1.29006C164.06 1.67415 163.737 1.96339 163.368 2.01274L81.2218 1.73475L38.4077 12.5487C38.4077 12.5487 38.3154 12.549 38.2692 12.5492Z" fill="url(#paint44_linear_146_2081)"/>
<path d="M1772.43 675.728L1692.22 675.779C1692.04 675.78 1691.85 675.685 1691.71 675.541L1067.27 10.4468L691.495 9.12207L185.839 588.728C185.701 588.873 185.517 589.018 185.332 588.97L25.7516 588.973L1.44711 611.579C1.17087 611.82 0.709124 611.822 0.477284 611.534C0.199271 611.247 0.243833 610.767 0.520074 610.526L25.0548 587.728C25.193 587.631 25.3312 587.534 25.5159 587.534L185.05 587.531L690.706 7.97264C690.845 7.82811 690.983 7.73158 691.214 7.73074L1067.59 9.05335C1067.78 9.05268 1067.96 9.14803 1068.1 9.29156L1692.54 674.386L1772.47 674.336C1772.84 674.334 1773.16 674.669 1773.16 675.053C1773.16 675.437 1772.84 675.727 1772.43 675.728Z" fill="url(#paint45_linear_146_2081)"/>
<path d="M36.3247 24.7512L3.49385 24.6303C3.12445 24.6316 2.8001 24.2967 2.79881 23.9126C2.79752 23.5285 3.11962 23.1913 3.48901 23.19L36.2275 23.3112L59.4328 17.1295C59.4789 17.1293 59.5713 17.129 59.6174 17.1288L104.085 17.3035L124.798 11.4669C124.844 11.4668 124.89 11.4186 124.982 11.4183L168.202 11.5495L186.654 6.0092C186.7 6.00903 186.792 6.00868 186.838 5.9605L270.97 6.23129L286.282 0.990467C286.651 0.845094 287.022 1.08381 287.161 1.46739C287.301 1.85098 287.072 2.23589 286.703 2.38126L271.344 7.67027C271.252 7.67061 271.206 7.71878 271.113 7.71911L186.936 7.44852L168.484 12.9888C168.438 12.989 168.346 13.0373 168.3 13.0375L125.079 12.9063L104.366 18.7428C104.32 18.743 104.274 18.7432 104.182 18.7915L59.7148 18.6168L36.5095 24.7985C36.417 24.7509 36.3708 24.751 36.3247 24.7512Z" fill="url(#paint46_linear_146_2081)"/>
<path d="M1773.36 459.097L1750.51 459.084C1750.37 459.084 1750.23 459.036 1750.09 458.941L1166.22 22.3306L592.903 20.3785L33.76 457.441C33.6218 457.537 33.4835 457.586 33.345 457.586L1.62264 457.557C1.25324 457.559 0.928894 457.224 0.927604 456.84C0.926315 456.455 1.24841 456.118 1.6178 456.117L33.1092 456.147L592.253 19.0846C592.391 18.988 592.529 18.9395 592.668 18.939L1166.44 20.8895C1166.58 20.889 1166.72 20.9365 1166.86 21.032L1750.78 457.642L1773.4 457.656C1773.77 457.655 1774.1 457.99 1774.1 458.374C1774.05 458.758 1773.78 459.095 1773.36 459.097Z" fill="url(#paint47_linear_146_2081)"/>
<path d="M34.1082 38.4906L3.44776 38.4098C3.07836 38.4111 2.75401 38.0762 2.75272 37.6921C2.75143 37.308 3.07353 36.9708 3.44292 36.9694L34.011 37.0506L58.6451 30.0955C58.6913 30.0953 58.7373 30.0471 58.8297 30.0468L105.883 30.2121L127.747 23.6512C127.794 23.651 127.886 23.6027 127.932 23.6025L173.6 23.7728L192.926 17.6052C192.972 17.605 193.065 17.6047 193.111 17.5565L237.486 17.7316L254.551 11.9082C254.643 11.9079 254.689 11.8597 254.781 11.8594L297.909 11.9909L327.287 1.17774C327.379 1.1294 327.425 1.12921 327.517 1.12887L409.479 1.40754C409.848 1.4062 410.173 1.7411 410.174 2.12519C410.175 2.50928 409.807 2.79868 409.484 2.84787L327.614 2.56887L298.237 13.3821C298.145 13.4304 298.099 13.4306 298.007 13.4309L254.879 13.2994L237.813 19.1227C237.721 19.123 237.675 19.1232 237.583 19.1716L193.208 18.9965L173.881 25.1642C173.835 25.1643 173.743 25.1646 173.697 25.2128L128.029 25.0425L106.164 31.6034C106.118 31.6036 106.026 31.6519 105.98 31.6521L58.9269 31.4868L34.2928 38.4419C34.2467 38.49 34.1544 38.4904 34.1082 38.4906Z" fill="url(#paint48_linear_146_2081)"/>
<path d="M31.6205 53.9593L3.36111 53.8698C2.99172 53.8712 2.66737 53.5363 2.66608 53.1522C2.66479 52.7681 3.03322 52.4787 3.35628 52.4295L31.4771 52.5195L57.7243 44.6463C57.7705 44.6462 57.8626 44.5978 57.9088 44.5976L107.917 44.7522L131.026 37.3706C131.072 37.3704 131.164 37.3701 131.21 37.3219L179.648 37.4822L199.942 30.5429C200.034 30.5425 200.08 30.4944 200.173 30.494L247.133 30.6597L264.889 24.1137C264.981 24.0653 265.073 24.065 265.119 24.0648L310.695 24.2355L326.189 18.0818C326.281 18.0334 326.327 18.0333 326.42 18.0329L370.702 18.1603L384.119 12.3502C384.211 12.3018 384.304 12.3015 384.396 12.3012L427.432 12.433L439.003 6.91774C439.095 6.86939 439.188 6.86904 439.28 6.8687L523.135 7.14049L531.937 1.92331C532.259 1.73009 532.675 1.82459 532.861 2.20801C533.047 2.54342 532.956 2.97585 532.587 3.16923L523.647 8.48295C523.555 8.5313 523.416 8.57982 523.324 8.58015L439.469 8.30836L427.99 13.8234C427.898 13.8717 427.806 13.872 427.714 13.8724L384.678 13.7405L371.261 19.5506C371.168 19.5989 371.076 19.5993 370.984 19.5996L326.701 19.4723L311.207 25.626C311.115 25.6743 311.023 25.6266 310.977 25.6748L265.401 25.5041L247.646 32.0501C247.554 32.0985 247.508 32.0987 247.415 32.099L200.455 31.9334L180.161 38.8727C180.069 38.873 180.022 38.8732 179.93 38.9215L131.492 38.7612L108.291 46.1912C108.245 46.1914 108.153 46.2397 108.107 46.2399L58.0985 46.0853L31.8514 53.9584C31.759 53.9588 31.6667 53.9591 31.6205 53.9593Z" fill="url(#paint49_linear_146_2081)"/>
<path d="M3.26306 79.7004C2.98602 79.7014 2.70832 79.5104 2.61485 79.1746C2.52121 78.7909 2.70462 78.4061 3.07353 78.2607L28.5809 70.1022C28.6271 70.1021 28.7193 70.0537 28.7654 70.0535L83.9452 70.2374L110.189 61.26C110.281 61.2596 110.327 61.2114 110.419 61.2111L163.706 61.4018L186.488 53.0131C186.58 52.9648 186.673 52.9644 186.719 52.9643L238.251 53.1133L257.987 45.2638C258.079 45.2155 258.172 45.2151 258.218 45.2149L308.087 45.37L325.055 38.0107C325.147 37.9623 325.24 37.962 325.332 37.9617L373.632 38.1225L388.154 31.2041C388.246 31.1558 388.338 31.1074 388.43 31.1551L435.252 31.3212L447.605 24.7948C447.698 24.7465 447.79 24.6981 447.928 24.6976L493.365 24.8688L503.734 18.7337C503.826 18.6853 503.965 18.6848 504.057 18.6365L548.154 18.7645L556.723 12.972C556.815 12.8757 556.954 12.8752 557.092 12.8747L599.943 13.0072L606.897 7.55666C607.036 7.46013 607.174 7.41162 607.313 7.41112L690.844 7.68409L695.26 2.62685C695.536 2.33778 695.951 2.28824 696.229 2.5753C696.507 2.86236 696.555 3.29431 696.279 3.58338L691.633 8.88151C691.495 9.02605 691.264 9.0749 691.126 9.12341L607.502 8.85078L600.548 14.3013C600.41 14.3978 600.271 14.4464 600.133 14.4469L557.236 14.3145L548.667 20.107C548.575 20.2033 548.436 20.2038 548.298 20.2043L504.154 20.0765L493.785 26.2116C493.693 26.2599 493.601 26.3083 493.462 26.3088L448.025 26.1376L435.673 32.664C435.58 32.7124 435.488 32.7607 435.35 32.7612L388.528 32.5951L374.006 39.5134C373.913 39.5618 373.821 39.5621 373.729 39.5625L325.429 39.4017L308.462 46.761C308.369 46.8094 308.323 46.8095 308.185 46.81L258.315 46.6549L238.579 54.5044C238.486 54.5528 238.394 54.5531 238.348 54.5533L186.816 54.4043L164.034 62.7929C163.942 62.8413 163.895 62.8414 163.803 62.8418L110.517 62.6511L84.2731 71.6285C84.1807 71.6288 84.0884 71.6292 84.0424 71.6773L28.8626 71.4935L3.49393 79.6995C3.40159 79.6999 3.35541 79.7001 3.26306 79.7004Z" fill="url(#paint50_linear_146_2081)"/>
<path d="M28.7705 71.5419L3.28161 71.4423C2.91221 71.4437 2.58786 71.1088 2.58657 70.7247C2.58528 70.3406 2.90738 70.0033 3.27677 70.002L28.6272 70.102L56.7176 61.1179C56.7638 61.1178 56.8561 61.1174 56.9021 61.0692L110.235 61.2598L134.772 52.8647C134.864 52.8644 134.91 52.8162 135.003 52.8159L186.534 52.9649L207.887 45.1096C207.979 45.0612 208.025 45.0611 208.118 45.0607L257.987 45.2158L276.525 37.8508C276.617 37.8024 276.663 37.8022 276.755 37.8019L325.101 37.9625L341.101 31.0388C341.193 30.9904 341.285 30.9901 341.378 30.9898L388.246 31.1557L401.938 24.6245C402.03 24.5761 402.122 24.5278 402.215 24.5755L447.698 24.7465L459.359 18.6067C459.452 18.5583 459.59 18.5098 459.682 18.5095L503.826 18.6373L513.596 12.8405C513.688 12.7921 513.826 12.7436 513.919 12.7433L556.815 12.8757L572.802 2.11107C572.894 2.01471 573.033 2.0142 573.171 2.0137L654.902 2.2932C655.271 2.29186 655.596 2.62677 655.597 3.01085C655.598 3.39494 655.276 3.68418 654.907 3.73353L573.361 3.45336L557.374 14.218C557.282 14.3143 557.144 14.3628 557.005 14.3153L514.062 14.1831L504.292 19.98C504.2 20.0283 504.062 20.0768 503.969 20.0771L459.779 19.9495L448.118 26.0893C448.026 26.1376 447.933 26.186 447.795 26.1865L402.312 26.0155L388.62 32.5467C388.528 32.5951 388.435 32.5954 388.343 32.5957L341.475 32.4297L325.475 39.3535C325.383 39.4018 325.291 39.4022 325.198 39.4025L276.853 39.2419L258.315 46.6069C258.223 46.6553 258.131 46.6556 258.084 46.6558L208.169 46.5009L186.816 54.3562C186.724 54.4046 186.678 54.4048 186.585 54.4051L135.007 54.2562L110.47 62.6513C110.378 62.6516 110.332 62.6998 110.24 62.7001L56.907 62.5096L28.8166 71.4937C28.9091 71.5413 28.8629 71.5415 28.7705 71.5419Z" fill="url(#paint51_linear_146_2081)"/>
<path d="M1772.83 589.162L1767.84 589.18C1767.66 589.181 1767.52 589.133 1767.38 588.99L1115.45 16.2254L643.584 14.6252L25.9357 588.781C25.7975 588.877 25.6129 588.926 25.4746 588.974L1.04796 588.967C0.678568 588.968 0.354219 588.633 0.352929 588.249C0.35164 587.865 0.673732 587.528 1.04313 587.527L25.1927 587.535L642.795 13.3798C642.933 13.2833 643.071 13.1867 643.256 13.1861L1115.68 14.7842C1115.86 14.7836 1116 14.831 1116.14 14.9746L1768.07 587.691L1772.82 587.674C1773.19 587.672 1773.52 588.007 1773.52 588.391C1773.52 588.775 1773.2 589.16 1772.83 589.162Z" fill="url(#paint52_linear_146_2081)"/>
<path d="M1775.31 7.63693L1751.02 7.53306C1750.65 7.5344 1750.33 7.1995 1750.33 6.81541C1750.32 6.43132 1750.65 6.04606 1751.02 6.09273L1775.3 6.1966C1775.67 6.19526 1776 6.53017 1776 6.91425C1776 7.29834 1775.73 7.63542 1775.31 7.63693Z" fill="url(#paint53_linear_146_2081)"/>
<path d="M1774.91 108.127L1764.38 108.117C1764.29 108.117 1764.24 108.117 1764.15 108.07L1700.91 86.4059L55.9545 81.3816L3.42162 99.3845C3.05271 99.5299 2.6825 99.2912 2.54269 98.9076C2.40288 98.524 2.63246 98.1391 3.00137 97.9937L55.6266 79.9904C55.7189 79.9901 55.765 79.9419 55.8573 79.9416L1701 84.9172C1701.09 84.9168 1701.14 84.9167 1701.23 84.9643L1764.47 106.628L1774.9 106.638C1775.27 106.637 1775.6 106.972 1775.6 107.356C1775.6 107.836 1775.28 108.125 1774.91 108.127Z" fill="url(#paint54_linear_146_2081)"/>
<path d="M1774.92 96.9879L3.21108 91.7035C2.84168 91.7048 2.51733 91.3699 2.51604 90.9858C2.51475 90.6017 2.83701 90.3125 3.20624 90.2631L1774.91 95.5475C1775.28 95.5462 1775.61 95.8811 1775.61 96.2652C1775.61 96.6493 1775.33 96.9864 1774.92 96.9879Z" fill="url(#paint55_linear_146_2081)"/>
<path d="M1774.76 133.237L1772.68 133.245C1772.59 133.245 1772.55 133.245 1772.45 133.197L1618.13 76.4798L139.453 71.9083L3.31294 122.046C2.94403 122.192 2.57399 122.001 2.43417 121.617C2.29436 121.234 2.47777 120.849 2.84668 120.704L139.079 70.5173C139.171 70.469 139.217 70.4688 139.31 70.4685L1618.26 75.039C1618.36 75.0387 1618.4 75.0385 1618.49 75.0862L1772.82 131.804L1774.76 131.797C1775.13 131.795 1775.45 132.13 1775.45 132.514C1775.45 132.947 1775.18 133.236 1774.76 133.237Z" fill="url(#paint56_linear_146_2081)"/>
<path d="M1774.86 120.178L3.10525 115.182C2.73585 115.183 2.4115 114.848 2.41021 114.464C2.40893 114.08 2.73102 113.743 3.10041 113.741L1774.81 118.785C1775.17 118.784 1775.5 119.119 1775.5 119.503C1775.55 119.887 1775.23 120.176 1774.86 120.178Z" fill="url(#paint57_linear_146_2081)"/>
<path d="M1774.67 159.788C1774.57 159.788 1774.48 159.789 1774.44 159.741L1743.18 147.371L17.4196 142.736L3.21678 148.405C2.84787 148.55 2.47783 148.36 2.33802 147.976C2.1982 147.593 2.38161 147.208 2.75052 147.062L17.0918 141.345C17.1839 141.297 17.2763 141.296 17.3225 141.296L1743.27 145.93C1743.36 145.93 1743.45 145.93 1743.5 145.978L1774.89 158.395C1775.26 158.537 1775.45 158.969 1775.31 159.305C1775.22 159.642 1774.94 159.787 1774.67 159.788Z" fill="url(#paint58_linear_146_2081)"/>
<path d="M3.58431 10.3225C3.26109 10.3237 2.98324 10.0846 2.88976 9.74889C2.79612 9.36513 3.0257 8.98021 3.39478 8.88285L17.8821 5.42146C17.9283 5.42129 17.9745 5.42113 18.0206 5.42096L102.383 5.69088L122.082 0.434139C122.451 0.336777 122.822 0.575508 122.915 0.959261C123.009 1.34301 122.779 1.72793 122.41 1.8253L102.619 7.08237C102.573 7.08254 102.527 7.13072 102.434 7.08304L18.0715 6.81309L3.63032 10.2743C3.67666 10.3222 3.63048 10.3223 3.58431 10.3225Z" fill="url(#paint59_linear_146_2081)"/>
<path d="M18.0715 6.81309L3.57238 6.76971C3.20299 6.77105 2.87864 6.43614 2.87735 6.05205C2.87606 5.66797 3.19815 5.33072 3.56755 5.32938L17.9743 5.37312L39.8897 0.108332C39.9359 0.108165 39.9821 0.107993 40.0283 0.107826L81.1706 0.24656C81.54 0.24522 81.8644 0.580123 81.8657 0.964211C81.867 1.3483 81.5449 1.68555 81.1755 1.68689L40.1254 1.54782L18.21 6.81261C18.1638 6.81277 18.1176 6.81292 18.0715 6.81309Z" fill="url(#paint60_linear_146_2081)"/>
<path d="M1774.72 147.449L1743.27 147.371C1743.18 147.371 1743.09 147.371 1743.04 147.324L1540.89 67.2059L217.321 63.0317L17.558 142.688C17.4658 142.736 17.3734 142.736 17.3273 142.737L3.01286 142.692C2.64346 142.694 2.31912 142.359 2.31783 141.975C2.31654 141.591 2.59229 141.206 3.00802 141.252L17.1839 141.297L216.947 61.6407C217.039 61.5923 217.131 61.592 217.177 61.5918L1540.98 65.7652C1541.07 65.7649 1541.17 65.7645 1541.21 65.8124L1743.36 145.93L1774.67 146.009C1775.04 146.007 1775.36 146.342 1775.36 146.726C1775.41 147.11 1775.09 147.447 1774.72 147.449Z" fill="url(#paint61_linear_146_2081)"/>
<path d="M3.52887 21.3174C3.20565 21.3186 2.9278 21.0795 2.83432 20.7438C2.74068 20.36 2.97027 19.9751 3.33934 19.8777L14.8733 16.9552C14.9194 16.955 14.9656 16.9548 15.058 16.9545L59.5251 17.1292L81.4848 11.2881C81.5309 11.2879 81.5771 11.2877 81.6695 11.2874L124.89 11.4186L163.225 0.620913C163.271 0.620746 163.363 0.572411 163.409 0.572244L245.556 0.850208C245.925 0.848867 246.249 1.18377 246.251 1.56786C246.252 1.95195 245.93 2.2892 245.56 2.29054L163.507 2.01224L125.171 12.8099C125.125 12.8101 125.033 12.8584 124.987 12.8586L81.7205 12.7276L59.7608 18.5687C59.7146 18.5688 59.6686 18.617 59.5761 18.5693L15.109 18.3947L3.66723 21.2689C3.62122 21.317 3.57505 21.3172 3.52887 21.3174Z" fill="url(#paint62_linear_146_2081)"/>
<path d="M15.0167 18.395L3.51893 18.3407C3.14954 18.342 2.82519 18.0071 2.8239 17.623C2.82261 17.239 3.1447 16.9017 3.5141 16.9004L14.9195 16.955L38.0797 11.1096C38.1259 11.1094 38.2182 11.1091 38.2644 11.1089L81.5308 11.2399L102.291 5.69123C102.337 5.69106 102.429 5.69073 102.476 5.69056L186.746 5.96085L204.275 0.711983C204.644 0.61462 205.014 0.805323 205.154 1.18891C205.247 1.57266 205.064 1.95743 204.695 2.1028L187.074 7.4C187.028 7.40017 186.935 7.40052 186.889 7.4487L102.573 7.13055L81.8127 12.6792C81.7665 12.6794 81.7204 12.6796 81.628 12.6799L38.3616 12.5489L15.2014 18.3943C15.1552 18.3945 15.109 18.3947 15.0167 18.395Z" fill="url(#paint63_linear_146_2081)"/>
<path d="M1774.54 189.988C1774.44 189.988 1774.35 189.988 1774.26 189.941L1750.68 179.8L12.1733 175.499L3.09001 179.421C2.7211 179.566 2.35122 179.424 2.16523 179.04C2.02542 178.657 2.16266 178.272 2.53141 178.079L11.7529 174.06C11.8451 174.012 11.9375 174.012 12.0298 174.011L1750.81 178.359C1750.9 178.359 1750.99 178.358 1751.09 178.406L1774.81 188.594C1775.18 188.737 1775.32 189.169 1775.18 189.553C1775.04 189.842 1774.81 189.987 1774.54 189.988Z" fill="url(#paint64_linear_146_2081)"/>
<path d="M1774.59 179.857L1750.86 179.799C1750.77 179.799 1750.68 179.8 1750.58 179.752L1468.51 58.5384L290.111 54.7975L12.3115 175.403C12.2193 175.451 12.127 175.451 12.0346 175.452L2.84574 175.437C2.47635 175.438 2.152 175.103 2.15071 174.719C2.14942 174.335 2.47151 173.998 2.84091 173.997L11.8913 174.012L289.737 53.4066C289.829 53.3582 289.921 53.3579 290.014 53.3575L1468.64 57.0976C1468.74 57.0973 1468.83 57.0969 1468.92 57.1446L1750.99 178.358L1774.59 178.417C1774.96 178.415 1775.28 178.75 1775.29 179.134C1775.29 179.566 1774.96 179.856 1774.59 179.857Z" fill="url(#paint65_linear_146_2081)"/>
<path d="M3.47746 33.5125C3.15424 33.5137 2.87639 33.2746 2.78307 32.9869C2.68944 32.6031 2.91902 32.2182 3.28809 32.1209L11.4537 29.9307C11.4999 29.9305 11.5922 29.9302 11.6384 29.93L58.7375 30.0951L81.9414 23.5294C81.9876 23.5292 82.08 23.5289 82.126 23.4807L127.84 23.6509L148.459 17.4785C148.505 17.4784 148.598 17.43 148.644 17.4299L193.019 17.6049L211.33 11.777C211.377 11.7769 211.469 11.7285 211.515 11.7284L254.689 11.8597L270.878 6.32766C270.97 6.32732 271.016 6.27912 271.109 6.27879L355.148 6.54991L368.29 1.31697C368.659 1.1716 369.029 1.36231 369.169 1.7459C369.309 2.12948 369.126 2.51422 368.757 2.6596L355.476 7.94107C355.384 7.98941 355.338 7.98957 355.245 7.98991L271.16 7.71895L254.971 13.251C254.878 13.2514 254.832 13.2995 254.74 13.2999L211.566 13.1685L193.254 18.9964C193.208 18.9965 193.116 19.0449 193.07 19.045L148.649 18.8702L128.029 25.0425C127.983 25.0427 127.891 25.091 127.845 25.0912L82.1308 24.921L59.0192 31.4865C58.973 31.4866 58.8808 31.535 58.8346 31.5351L11.7356 31.37L3.66216 33.5118C3.56981 33.5121 3.52364 33.5123 3.47746 33.5125Z" fill="url(#paint66_linear_146_2081)"/>
<path d="M11.643 31.3223L3.47 31.304C3.10061 31.3053 2.77626 30.9704 2.77497 30.5863C2.77368 30.2023 3.04944 29.8172 3.46517 29.8637L11.5459 29.8823L36.1352 23.3596C36.1814 23.3594 36.2276 23.3592 36.3199 23.3589L82.0337 23.529L103.946 17.3521C103.992 17.3519 104.084 17.3035 104.131 17.3034L148.551 17.4302L168.064 11.598C168.11 11.5978 168.202 11.5495 168.248 11.5493L211.422 11.6807L245.279 0.851219C245.325 0.851051 245.417 0.802717 245.463 0.802549L327.517 1.08088C327.886 1.07954 328.211 1.41444 328.212 1.79853C328.213 2.18262 327.891 2.51987 327.522 2.52121L245.56 2.24254L211.704 13.072C211.658 13.0722 211.566 13.1205 211.52 13.1207L168.346 12.9893L148.833 18.8215C148.787 18.8217 148.695 18.87 148.649 18.8702L104.228 18.7434L82.3155 24.9204C82.2693 24.9205 82.2233 24.9687 82.1309 24.969L36.3709 24.7991L11.7817 31.3699C11.7816 31.3218 11.6892 31.3222 11.643 31.3223Z" fill="url(#paint67_linear_146_2081)"/>
<path d="M3.43092 47.1479C3.10769 47.1491 2.83 46.9581 2.7827 46.6221C2.68906 46.2384 2.91864 45.8535 3.28772 45.7561L7.71627 44.4917C7.76245 44.4916 7.80846 44.4434 7.90081 44.4431L57.955 44.5975L82.5877 37.2103C82.6338 37.2101 82.6798 37.162 82.7722 37.1616L131.256 37.3217L152.982 30.3772C153.028 30.3771 153.074 30.3289 153.166 30.3285L200.173 30.494L219.313 23.943C219.406 23.9427 219.452 23.8945 219.544 23.8942L265.166 24.0646L281.953 17.9063C282.045 17.8579 282.091 17.8577 282.183 17.8574L326.466 17.9848L341.13 12.1221C341.222 12.0738 341.314 12.0734 341.36 12.0733L384.442 12.205L409.34 1.40804C409.432 1.35969 409.525 1.35937 409.617 1.35903L491.532 1.63783C491.902 1.63649 492.226 1.9714 492.228 2.35549C492.229 2.73957 491.907 3.07682 491.537 3.07816L409.668 2.84719L384.77 13.6441C384.678 13.6925 384.585 13.6928 384.493 13.6932L341.411 13.5614L326.747 19.4241C326.655 19.4724 326.563 19.4727 326.517 19.4729L282.188 19.3457L265.401 25.5041C265.309 25.5525 265.263 25.5527 265.171 25.553L219.549 25.3825L200.455 31.9334C200.362 31.9337 200.316 31.9818 200.224 31.9822L153.217 31.8167L131.492 38.7612C131.446 38.7614 131.354 38.7617 131.308 38.8099L82.8234 38.6498L58.1907 46.037C58.1446 46.0371 58.0524 46.0855 58.0062 46.0857L7.95198 45.9312L3.61561 47.1473C3.52326 47.1476 3.47709 47.1478 3.43092 47.1479Z" fill="url(#paint68_linear_146_2081)"/>
<path d="M7.81325 45.8837L3.38034 45.8518C3.01095 45.8532 2.6866 45.5182 2.68531 45.1342C2.68402 44.7501 3.00611 44.4128 3.37551 44.4115L7.71606 44.4437L33.9186 37.0509C33.9648 37.0507 34.057 37.0024 34.1032 37.0022L82.5875 37.1623L105.79 30.2125C105.836 30.2123 105.929 30.2119 105.975 30.1637L153.028 30.3291L173.507 23.7732C173.553 23.773 173.646 23.7247 173.692 23.7245L219.313 23.895L237.393 17.7319C237.486 17.7316 237.532 17.6834 237.624 17.683L281.952 17.8582L297.817 12.0393C297.909 11.9909 297.955 11.9908 298.048 11.9904L341.13 12.1221L355.01 6.59845C355.102 6.5501 355.148 6.54992 355.24 6.54958L439.187 6.82104L450.16 1.59597C450.528 1.4506 450.898 1.5933 451.084 1.9287C451.224 2.31229 451.087 2.69688 450.764 2.8901L439.654 8.16366C439.562 8.21201 439.469 8.21236 439.377 8.2127L355.384 7.94141L341.503 13.4651C341.411 13.5134 341.319 13.5138 341.273 13.514L298.191 13.3822L282.326 19.2012C282.234 19.2495 282.188 19.2497 282.096 19.2501L237.767 19.0749L219.687 25.238C219.595 25.2383 219.549 25.2865 219.456 25.2868L173.789 25.1165L153.309 31.6724C153.263 31.6725 153.171 31.7209 153.125 31.7211L106.072 31.5557L82.9155 38.6015C82.8694 38.6016 82.777 38.602 82.731 38.6501L34.2005 38.4902L7.99795 45.8831C7.95177 45.8832 7.9056 45.8834 7.81325 45.8837Z" fill="url(#paint69_linear_146_2081)"/>
<path d="M1774.38 225.853C1774.29 225.853 1774.2 225.853 1774.1 225.806L1759.81 219.088L5.79548 215.084L2.93718 216.438C2.56827 216.584 2.19839 216.441 2.01257 216.106C1.87275 215.722 2.00999 215.338 2.33256 215.144L5.32923 213.741C5.42141 213.693 5.55994 213.692 5.60611 213.692L1759.95 217.647C1760.04 217.647 1760.13 217.647 1760.22 217.694L1774.61 224.46C1774.98 224.602 1775.12 225.034 1774.93 225.419C1774.89 225.659 1774.66 225.852 1774.38 225.853Z" fill="url(#paint70_linear_146_2081)"/>
<path d="M1774.4 219.131L1759.95 219.088C1759.86 219.088 1759.77 219.088 1759.67 219.041L1400.6 50.4309L358.331 47.0121L5.93383 215.035C5.84164 215.084 5.70312 215.084 5.65695 215.084L2.70178 215.095C2.33239 215.096 2.00804 214.761 2.00675 214.377C2.00546 213.993 2.32755 213.656 2.69695 213.655L5.51359 213.644L357.865 45.6215C357.957 45.5731 358.049 45.5728 358.142 45.5724L1400.74 48.942C1400.83 48.9417 1400.92 48.9414 1401.02 48.989L1760.08 217.599L1774.35 217.643C1774.72 217.642 1775.05 217.976 1775.05 218.361C1775.1 218.792 1774.77 219.13 1774.4 219.131Z" fill="url(#paint71_linear_146_2081)"/>
<path d="M56.9994 62.5573C56.9532 62.5574 56.9532 62.5574 56.9994 62.5573L3.62047 62.3669L3.57429 62.3671C3.20522 62.4645 2.83518 62.2738 2.69537 61.8902C2.60173 61.5064 2.78514 61.1216 3.15405 60.9763L3.29241 60.9278C3.33859 60.9276 3.43077 60.8792 3.47695 60.8791L56.8559 61.0694L83.1474 52.668C83.1936 52.6678 83.2858 52.6195 83.3319 52.6193L134.91 52.7682L157.879 44.907C157.971 44.9066 158.017 44.8584 158.109 44.8581L208.025 45.013L228.086 37.6424C228.179 37.5941 228.225 37.5939 228.317 37.5936L276.663 37.7542L294.094 30.8253C294.186 30.777 294.232 30.7288 294.324 30.7764L341.239 30.9423L356.27 24.4061C356.362 24.3578 356.455 24.3575 356.547 24.3571L402.076 24.5279L414.984 18.3836C415.077 18.3353 415.169 18.335 415.261 18.3346L459.451 18.4623L470.467 12.6609C470.56 12.6126 470.652 12.5642 470.79 12.5637L513.734 12.6959L522.996 7.18902C523.088 7.14068 523.181 7.09232 523.319 7.09182L607.035 7.36412L613.621 2.20297C613.943 1.96175 614.359 2.00824 614.591 2.34348C614.823 2.67872 614.778 3.11097 614.456 3.3522L607.686 8.65804C607.548 8.75457 607.409 8.80311 607.271 8.80361L523.509 8.53148L514.246 14.0384C514.154 14.0867 514.015 14.1353 513.923 14.1356L470.934 14.0036L459.917 19.8049C459.825 19.8533 459.733 19.9016 459.594 19.9021L415.405 19.7744L402.496 25.9188C402.404 25.9671 402.358 25.9673 402.219 25.9678L356.69 25.797L341.705 32.3809C341.613 32.4293 341.521 32.4296 341.429 32.4299L294.514 32.2641L277.083 39.193C276.991 39.2414 276.945 39.2415 276.853 39.2419L228.461 39.0814L208.446 46.4999C208.353 46.5482 208.307 46.5484 208.215 46.5487L158.299 46.3938L135.284 54.2552C135.192 54.2555 135.146 54.2557 135.054 54.304L83.4756 54.1552L57.1841 62.5566C57.0917 62.5569 57.0456 62.5571 56.9994 62.5573Z" fill="url(#paint72_linear_146_2081)"/>
<path d="M3.48194 62.3674L3.29724 62.3681C2.92785 62.3694 2.6035 62.0345 2.60221 61.6505C2.60092 61.2664 2.92302 60.9291 3.29241 60.9278L3.33858 60.9276L31.3386 52.52C31.3848 52.5198 31.4308 52.4716 31.5231 52.4713L83.1472 52.62L107.778 44.7527C107.824 44.7526 107.917 44.7042 107.963 44.7041L157.925 44.8588L179.51 37.4827C179.602 37.4824 179.648 37.4342 179.741 37.4338L228.132 37.5943L246.995 30.6602C247.087 30.6118 247.133 30.6116 247.225 30.6113L294.14 30.7771L310.556 24.236C310.648 24.1876 310.694 24.1875 310.787 24.1871L356.316 24.358L370.517 18.209C370.609 18.1606 370.702 18.1603 370.794 18.1599L415.03 18.2875L427.247 12.4817C427.339 12.4334 427.432 12.433 427.524 12.4327L470.513 12.5648L490.979 1.78391C491.071 1.73556 491.209 1.68704 491.302 1.68671L573.125 1.96587C573.494 1.96453 573.818 2.29944 573.82 2.68352C573.821 3.06761 573.499 3.40486 573.13 3.4062L491.491 3.12636L471.026 13.9072C470.934 13.9556 470.841 13.9559 470.703 14.0044L427.714 13.8724L415.497 19.6781C415.404 19.7264 415.266 19.727 415.22 19.7271L370.984 19.5996L356.782 25.7486C356.69 25.7969 356.598 25.7973 356.505 25.7976L310.93 25.627L294.514 32.1681C294.422 32.2165 294.376 32.2166 294.283 32.2169L247.323 32.0513L228.46 38.9854C228.368 39.0338 228.322 39.0339 228.23 39.0343L179.838 38.8738L158.253 46.2499C158.16 46.2503 158.114 46.2504 158.022 46.2988L108.06 46.1441L83.429 54.0113C83.3828 54.0115 83.2906 54.0598 83.2444 54.06L31.6203 53.9113L3.6203 62.3189C3.62046 62.3669 3.57429 62.3671 3.48194 62.3674Z" fill="url(#paint73_linear_146_2081)"/>
</g>
<defs>
<linearGradient id="paint0_linear_146_2081" x1="888" y1="44.1033" x2="888" y2="429.159" gradientUnits="userSpaceOnUse">
<stop stop-color="#EBEFF6" stop-opacity="0"/>
<stop offset="0.271888" stop-color="#EBEFF6"/>
<stop offset="1" stop-color="#EBEFF6" stop-opacity="0"/>
</linearGradient>
<linearGradient id="paint1_linear_146_2081" x1="888" y1="44.1033" x2="888" y2="429.159" gradientUnits="userSpaceOnUse">
<stop stop-color="#EBEFF6" stop-opacity="0"/>
<stop offset="0.271888" stop-color="#EBEFF6"/>
<stop offset="1" stop-color="#EBEFF6" stop-opacity="0"/>
</linearGradient>
<linearGradient id="paint2_linear_146_2081" x1="888" y1="44.1033" x2="888" y2="429.159" gradientUnits="userSpaceOnUse">
<stop stop-color="#EBEFF6" stop-opacity="0"/>
<stop offset="0.271888" stop-color="#EBEFF6"/>
<stop offset="1" stop-color="#EBEFF6" stop-opacity="0"/>
</linearGradient>
<linearGradient id="paint3_linear_146_2081" x1="888" y1="44.1033" x2="888" y2="429.159" gradientUnits="userSpaceOnUse">
<stop stop-color="#EBEFF6" stop-opacity="0"/>
<stop offset="0.271888" stop-color="#EBEFF6"/>
<stop offset="1" stop-color="#EBEFF6" stop-opacity="0"/>
</linearGradient>
<linearGradient id="paint4_linear_146_2081" x1="888" y1="44.1033" x2="888" y2="429.159" gradientUnits="userSpaceOnUse">
<stop stop-color="#EBEFF6" stop-opacity="0"/>
<stop offset="0.271888" stop-color="#EBEFF6"/>
<stop offset="1" stop-color="#EBEFF6" stop-opacity="0"/>
</linearGradient>
<linearGradient id="paint5_linear_146_2081" x1="888" y1="44.1033" x2="888" y2="429.159" gradientUnits="userSpaceOnUse">
<stop stop-color="#EBEFF6" stop-opacity="0"/>
<stop offset="0.271888" stop-color="#EBEFF6"/>
<stop offset="1" stop-color="#EBEFF6" stop-opacity="0"/>
</linearGradient>
<linearGradient id="paint6_linear_146_2081" x1="888" y1="44.1033" x2="888" y2="429.159" gradientUnits="userSpaceOnUse">
<stop stop-color="#EBEFF6" stop-opacity="0"/>
<stop offset="0.271888" stop-color="#EBEFF6"/>
<stop offset="1" stop-color="#EBEFF6" stop-opacity="0"/>
</linearGradient>
<linearGradient id="paint7_linear_146_2081" x1="888" y1="44.1033" x2="888" y2="429.159" gradientUnits="userSpaceOnUse">
<stop stop-color="#EBEFF6" stop-opacity="0"/>
<stop offset="0.271888" stop-color="#EBEFF6"/>
<stop offset="1" stop-color="#EBEFF6" stop-opacity="0"/>
</linearGradient>
<linearGradient id="paint8_linear_146_2081" x1="888" y1="44.1033" x2="888" y2="429.159" gradientUnits="userSpaceOnUse">
<stop stop-color="#EBEFF6" stop-opacity="0"/>
<stop offset="0.271888" stop-color="#EBEFF6"/>
<stop offset="1" stop-color="#EBEFF6" stop-opacity="0"/>
</linearGradient>
<linearGradient id="paint9_linear_146_2081" x1="888" y1="44.1033" x2="888" y2="429.159" gradientUnits="userSpaceOnUse">
<stop stop-color="#EBEFF6" stop-opacity="0"/>
<stop offset="0.271888" stop-color="#EBEFF6"/>
<stop offset="1" stop-color="#EBEFF6" stop-opacity="0"/>
</linearGradient>
<linearGradient id="paint10_linear_146_2081" x1="888" y1="44.1033" x2="888" y2="429.159" gradientUnits="userSpaceOnUse">
<stop stop-color="#EBEFF6" stop-opacity="0"/>
<stop offset="0.271888" stop-color="#EBEFF6"/>
<stop offset="1" stop-color="#EBEFF6" stop-opacity="0"/>
</linearGradient>
<linearGradient id="paint11_linear_146_2081" x1="888" y1="44.1033" x2="888" y2="429.159" gradientUnits="userSpaceOnUse">
<stop stop-color="#EBEFF6" stop-opacity="0"/>
<stop offset="0.271888" stop-color="#EBEFF6"/>
<stop offset="1" stop-color="#EBEFF6" stop-opacity="0"/>
</linearGradient>
<linearGradient id="paint12_linear_146_2081" x1="888" y1="44.1033" x2="888" y2="429.159" gradientUnits="userSpaceOnUse">
<stop stop-color="#EBEFF6" stop-opacity="0"/>
<stop offset="0.271888" stop-color="#EBEFF6"/>
<stop offset="1" stop-color="#EBEFF6" stop-opacity="0"/>
</linearGradient>
<linearGradient id="paint13_linear_146_2081" x1="888" y1="44.1033" x2="888" y2="429.159" gradientUnits="userSpaceOnUse">
<stop stop-color="#EBEFF6" stop-opacity="0"/>
<stop offset="0.271888" stop-color="#EBEFF6"/>
<stop offset="1" stop-color="#EBEFF6" stop-opacity="0"/>
</linearGradient>
<linearGradient id="paint14_linear_146_2081" x1="888" y1="44.1033" x2="888" y2="429.159" gradientUnits="userSpaceOnUse">
<stop stop-color="#EBEFF6" stop-opacity="0"/>
<stop offset="0.271888" stop-color="#EBEFF6"/>
<stop offset="1" stop-color="#EBEFF6" stop-opacity="0"/>
</linearGradient>
<linearGradient id="paint15_linear_146_2081" x1="888" y1="44.1033" x2="888" y2="429.159" gradientUnits="userSpaceOnUse">
<stop stop-color="#EBEFF6" stop-opacity="0"/>
<stop offset="0.271888" stop-color="#EBEFF6"/>
<stop offset="1" stop-color="#EBEFF6" stop-opacity="0"/>
</linearGradient>
<linearGradient id="paint16_linear_146_2081" x1="888" y1="44.1033" x2="888" y2="429.159" gradientUnits="userSpaceOnUse">
<stop stop-color="#EBEFF6" stop-opacity="0"/>
<stop offset="0.271888" stop-color="#EBEFF6"/>
<stop offset="1" stop-color="#EBEFF6" stop-opacity="0"/>
</linearGradient>
<linearGradient id="paint17_linear_146_2081" x1="888" y1="44.1033" x2="888" y2="429.159" gradientUnits="userSpaceOnUse">
<stop stop-color="#EBEFF6" stop-opacity="0"/>
<stop offset="0.271888" stop-color="#EBEFF6"/>
<stop offset="1" stop-color="#EBEFF6" stop-opacity="0"/>
</linearGradient>
<linearGradient id="paint18_linear_146_2081" x1="888" y1="44.1033" x2="888" y2="429.159" gradientUnits="userSpaceOnUse">
<stop stop-color="#EBEFF6" stop-opacity="0"/>
<stop offset="0.271888" stop-color="#EBEFF6"/>
<stop offset="1" stop-color="#EBEFF6" stop-opacity="0"/>
</linearGradient>
<linearGradient id="paint19_linear_146_2081" x1="888" y1="44.1033" x2="888" y2="429.159" gradientUnits="userSpaceOnUse">
<stop stop-color="#EBEFF6" stop-opacity="0"/>
<stop offset="0.271888" stop-color="#EBEFF6"/>
<stop offset="1" stop-color="#EBEFF6" stop-opacity="0"/>
</linearGradient>
<linearGradient id="paint20_linear_146_2081" x1="888" y1="44.1033" x2="888" y2="429.159" gradientUnits="userSpaceOnUse">
<stop stop-color="#EBEFF6" stop-opacity="0"/>
<stop offset="0.271888" stop-color="#EBEFF6"/>
<stop offset="1" stop-color="#EBEFF6" stop-opacity="0"/>
</linearGradient>
<linearGradient id="paint21_linear_146_2081" x1="888" y1="44.1033" x2="888" y2="429.159" gradientUnits="userSpaceOnUse">
<stop stop-color="#EBEFF6" stop-opacity="0"/>
<stop offset="0.271888" stop-color="#EBEFF6"/>
<stop offset="1" stop-color="#EBEFF6" stop-opacity="0"/>
</linearGradient>
<linearGradient id="paint22_linear_146_2081" x1="888" y1="44.1033" x2="888" y2="429.159" gradientUnits="userSpaceOnUse">
<stop stop-color="#EBEFF6" stop-opacity="0"/>
<stop offset="0.271888" stop-color="#EBEFF6"/>
<stop offset="1" stop-color="#EBEFF6" stop-opacity="0"/>
</linearGradient>
<linearGradient id="paint23_linear_146_2081" x1="888" y1="44.1033" x2="888" y2="429.159" gradientUnits="userSpaceOnUse">
<stop stop-color="#EBEFF6" stop-opacity="0"/>
<stop offset="0.271888" stop-color="#EBEFF6"/>
<stop offset="1" stop-color="#EBEFF6" stop-opacity="0"/>
</linearGradient>
<linearGradient id="paint24_linear_146_2081" x1="888" y1="44.1033" x2="888" y2="429.159" gradientUnits="userSpaceOnUse">
<stop stop-color="#EBEFF6" stop-opacity="0"/>
<stop offset="0.271888" stop-color="#EBEFF6"/>
<stop offset="1" stop-color="#EBEFF6" stop-opacity="0"/>
</linearGradient>
<linearGradient id="paint25_linear_146_2081" x1="888" y1="44.1033" x2="888" y2="429.159" gradientUnits="userSpaceOnUse">
<stop stop-color="#EBEFF6" stop-opacity="0"/>
<stop offset="0.271888" stop-color="#EBEFF6"/>
<stop offset="1" stop-color="#EBEFF6" stop-opacity="0"/>
</linearGradient>
<linearGradient id="paint26_linear_146_2081" x1="888" y1="44.1033" x2="888" y2="429.159" gradientUnits="userSpaceOnUse">
<stop stop-color="#EBEFF6" stop-opacity="0"/>
<stop offset="0.271888" stop-color="#EBEFF6"/>
<stop offset="1" stop-color="#EBEFF6" stop-opacity="0"/>
</linearGradient>
<linearGradient id="paint27_linear_146_2081" x1="888" y1="44.1033" x2="888" y2="429.159" gradientUnits="userSpaceOnUse">
<stop stop-color="#EBEFF6" stop-opacity="0"/>
<stop offset="0.271888" stop-color="#EBEFF6"/>
<stop offset="1" stop-color="#EBEFF6" stop-opacity="0"/>
</linearGradient>
<linearGradient id="paint28_linear_146_2081" x1="888" y1="44.1033" x2="888" y2="429.159" gradientUnits="userSpaceOnUse">
<stop stop-color="#EBEFF6" stop-opacity="0"/>
<stop offset="0.271888" stop-color="#EBEFF6"/>
<stop offset="1" stop-color="#EBEFF6" stop-opacity="0"/>
</linearGradient>
<linearGradient id="paint29_linear_146_2081" x1="888" y1="44.1033" x2="888" y2="429.159" gradientUnits="userSpaceOnUse">
<stop stop-color="#EBEFF6" stop-opacity="0"/>
<stop offset="0.271888" stop-color="#EBEFF6"/>
<stop offset="1" stop-color="#EBEFF6" stop-opacity="0"/>
</linearGradient>
<linearGradient id="paint30_linear_146_2081" x1="888" y1="44.1033" x2="888" y2="429.159" gradientUnits="userSpaceOnUse">
<stop stop-color="#EBEFF6" stop-opacity="0"/>
<stop offset="0.271888" stop-color="#EBEFF6"/>
<stop offset="1" stop-color="#EBEFF6" stop-opacity="0"/>
</linearGradient>
<linearGradient id="paint31_linear_146_2081" x1="888" y1="44.1033" x2="888" y2="429.159" gradientUnits="userSpaceOnUse">
<stop stop-color="#EBEFF6" stop-opacity="0"/>
<stop offset="0.271888" stop-color="#EBEFF6"/>
<stop offset="1" stop-color="#EBEFF6" stop-opacity="0"/>
</linearGradient>
<linearGradient id="paint32_linear_146_2081" x1="888" y1="44.1033" x2="888" y2="429.159" gradientUnits="userSpaceOnUse">
<stop stop-color="#EBEFF6" stop-opacity="0"/>
<stop offset="0.271888" stop-color="#EBEFF6"/>
<stop offset="1" stop-color="#EBEFF6" stop-opacity="0"/>
</linearGradient>
<linearGradient id="paint33_linear_146_2081" x1="888" y1="44.1033" x2="888" y2="429.159" gradientUnits="userSpaceOnUse">
<stop stop-color="#EBEFF6" stop-opacity="0"/>
<stop offset="0.271888" stop-color="#EBEFF6"/>
<stop offset="1" stop-color="#EBEFF6" stop-opacity="0"/>
</linearGradient>
<linearGradient id="paint34_linear_146_2081" x1="888" y1="44.1033" x2="888" y2="429.159" gradientUnits="userSpaceOnUse">
<stop stop-color="#EBEFF6" stop-opacity="0"/>
<stop offset="0.271888" stop-color="#EBEFF6"/>
<stop offset="1" stop-color="#EBEFF6" stop-opacity="0"/>
</linearGradient>
<linearGradient id="paint35_linear_146_2081" x1="888" y1="44.1033" x2="888" y2="429.159" gradientUnits="userSpaceOnUse">
<stop stop-color="#EBEFF6" stop-opacity="0"/>
<stop offset="0.271888" stop-color="#EBEFF6"/>
<stop offset="1" stop-color="#EBEFF6" stop-opacity="0"/>
</linearGradient>
<linearGradient id="paint36_linear_146_2081" x1="888" y1="44.1033" x2="888" y2="429.159" gradientUnits="userSpaceOnUse">
<stop stop-color="#EBEFF6" stop-opacity="0"/>
<stop offset="0.271888" stop-color="#EBEFF6"/>
<stop offset="1" stop-color="#EBEFF6" stop-opacity="0"/>
</linearGradient>
<linearGradient id="paint37_linear_146_2081" x1="888" y1="44.1033" x2="888" y2="429.159" gradientUnits="userSpaceOnUse">
<stop stop-color="#EBEFF6" stop-opacity="0"/>
<stop offset="0.271888" stop-color="#EBEFF6"/>
<stop offset="1" stop-color="#EBEFF6" stop-opacity="0"/>
</linearGradient>
<linearGradient id="paint38_linear_146_2081" x1="888" y1="44.1033" x2="888" y2="429.159" gradientUnits="userSpaceOnUse">
<stop stop-color="#EBEFF6" stop-opacity="0"/>
<stop offset="0.271888" stop-color="#EBEFF6"/>
<stop offset="1" stop-color="#EBEFF6" stop-opacity="0"/>
</linearGradient>
<linearGradient id="paint39_linear_146_2081" x1="888" y1="44.1033" x2="888" y2="429.159" gradientUnits="userSpaceOnUse">
<stop stop-color="#EBEFF6" stop-opacity="0"/>
<stop offset="0.271888" stop-color="#EBEFF6"/>
<stop offset="1" stop-color="#EBEFF6" stop-opacity="0"/>
</linearGradient>
<linearGradient id="paint40_linear_146_2081" x1="888" y1="44.1033" x2="888" y2="429.159" gradientUnits="userSpaceOnUse">
<stop stop-color="#EBEFF6" stop-opacity="0"/>
<stop offset="0.271888" stop-color="#EBEFF6"/>
<stop offset="1" stop-color="#EBEFF6" stop-opacity="0"/>
</linearGradient>
<linearGradient id="paint41_linear_146_2081" x1="888" y1="44.1033" x2="888" y2="429.159" gradientUnits="userSpaceOnUse">
<stop stop-color="#EBEFF6" stop-opacity="0"/>
<stop offset="0.271888" stop-color="#EBEFF6"/>
<stop offset="1" stop-color="#EBEFF6" stop-opacity="0"/>
</linearGradient>
<linearGradient id="paint42_linear_146_2081" x1="888" y1="44.1033" x2="888" y2="429.159" gradientUnits="userSpaceOnUse">
<stop stop-color="#EBEFF6" stop-opacity="0"/>
<stop offset="0.271888" stop-color="#EBEFF6"/>
<stop offset="1" stop-color="#EBEFF6" stop-opacity="0"/>
</linearGradient>
<linearGradient id="paint43_linear_146_2081" x1="888" y1="44.1033" x2="888" y2="429.159" gradientUnits="userSpaceOnUse">
<stop stop-color="#EBEFF6" stop-opacity="0"/>
<stop offset="0.271888" stop-color="#EBEFF6"/>
<stop offset="1" stop-color="#EBEFF6" stop-opacity="0"/>
</linearGradient>
<linearGradient id="paint44_linear_146_2081" x1="888" y1="44.1033" x2="888" y2="429.159" gradientUnits="userSpaceOnUse">
<stop stop-color="#EBEFF6" stop-opacity="0"/>
<stop offset="0.271888" stop-color="#EBEFF6"/>
<stop offset="1" stop-color="#EBEFF6" stop-opacity="0"/>
</linearGradient>
<linearGradient id="paint45_linear_146_2081" x1="888" y1="44.1033" x2="888" y2="429.159" gradientUnits="userSpaceOnUse">
<stop stop-color="#EBEFF6" stop-opacity="0"/>
<stop offset="0.271888" stop-color="#EBEFF6"/>
<stop offset="1" stop-color="#EBEFF6" stop-opacity="0"/>
</linearGradient>
<linearGradient id="paint46_linear_146_2081" x1="888" y1="44.1033" x2="888" y2="429.159" gradientUnits="userSpaceOnUse">
<stop stop-color="#EBEFF6" stop-opacity="0"/>
<stop offset="0.271888" stop-color="#EBEFF6"/>
<stop offset="1" stop-color="#EBEFF6" stop-opacity="0"/>
</linearGradient>
<linearGradient id="paint47_linear_146_2081" x1="888" y1="44.1033" x2="888" y2="429.159" gradientUnits="userSpaceOnUse">
<stop stop-color="#EBEFF6" stop-opacity="0"/>
<stop offset="0.271888" stop-color="#EBEFF6"/>
<stop offset="1" stop-color="#EBEFF6" stop-opacity="0"/>
</linearGradient>
<linearGradient id="paint48_linear_146_2081" x1="888" y1="44.1033" x2="888" y2="429.159" gradientUnits="userSpaceOnUse">
<stop stop-color="#EBEFF6" stop-opacity="0"/>
<stop offset="0.271888" stop-color="#EBEFF6"/>
<stop offset="1" stop-color="#EBEFF6" stop-opacity="0"/>
</linearGradient>
<linearGradient id="paint49_linear_146_2081" x1="888" y1="44.1033" x2="888" y2="429.159" gradientUnits="userSpaceOnUse">
<stop stop-color="#EBEFF6" stop-opacity="0"/>
<stop offset="0.271888" stop-color="#EBEFF6"/>
<stop offset="1" stop-color="#EBEFF6" stop-opacity="0"/>
</linearGradient>
<linearGradient id="paint50_linear_146_2081" x1="888" y1="44.1033" x2="888" y2="429.159" gradientUnits="userSpaceOnUse">
<stop stop-color="#EBEFF6" stop-opacity="0"/>
<stop offset="0.271888" stop-color="#EBEFF6"/>
<stop offset="1" stop-color="#EBEFF6" stop-opacity="0"/>
</linearGradient>
<linearGradient id="paint51_linear_146_2081" x1="888" y1="44.1033" x2="888" y2="429.159" gradientUnits="userSpaceOnUse">
<stop stop-color="#EBEFF6" stop-opacity="0"/>
<stop offset="0.271888" stop-color="#EBEFF6"/>
<stop offset="1" stop-color="#EBEFF6" stop-opacity="0"/>
</linearGradient>
<linearGradient id="paint52_linear_146_2081" x1="888" y1="44.1033" x2="888" y2="429.159" gradientUnits="userSpaceOnUse">
<stop stop-color="#EBEFF6" stop-opacity="0"/>
<stop offset="0.271888" stop-color="#EBEFF6"/>
<stop offset="1" stop-color="#EBEFF6" stop-opacity="0"/>
</linearGradient>
<linearGradient id="paint53_linear_146_2081" x1="888" y1="44.1033" x2="888" y2="429.159" gradientUnits="userSpaceOnUse">
<stop stop-color="#EBEFF6" stop-opacity="0"/>
<stop offset="0.271888" stop-color="#EBEFF6"/>
<stop offset="1" stop-color="#EBEFF6" stop-opacity="0"/>
</linearGradient>
<linearGradient id="paint54_linear_146_2081" x1="888" y1="44.1033" x2="888" y2="429.159" gradientUnits="userSpaceOnUse">
<stop stop-color="#EBEFF6" stop-opacity="0"/>
<stop offset="0.271888" stop-color="#EBEFF6"/>
<stop offset="1" stop-color="#EBEFF6" stop-opacity="0"/>
</linearGradient>
<linearGradient id="paint55_linear_146_2081" x1="888" y1="44.1033" x2="888" y2="429.159" gradientUnits="userSpaceOnUse">
<stop stop-color="#EBEFF6" stop-opacity="0"/>
<stop offset="0.271888" stop-color="#EBEFF6"/>
<stop offset="1" stop-color="#EBEFF6" stop-opacity="0"/>
</linearGradient>
<linearGradient id="paint56_linear_146_2081" x1="888" y1="44.1033" x2="888" y2="429.159" gradientUnits="userSpaceOnUse">
<stop stop-color="#EBEFF6" stop-opacity="0"/>
<stop offset="0.271888" stop-color="#EBEFF6"/>
<stop offset="1" stop-color="#EBEFF6" stop-opacity="0"/>
</linearGradient>
<linearGradient id="paint57_linear_146_2081" x1="888" y1="44.1033" x2="888" y2="429.159" gradientUnits="userSpaceOnUse">
<stop stop-color="#EBEFF6" stop-opacity="0"/>
<stop offset="0.271888" stop-color="#EBEFF6"/>
<stop offset="1" stop-color="#EBEFF6" stop-opacity="0"/>
</linearGradient>
<linearGradient id="paint58_linear_146_2081" x1="888" y1="44.1033" x2="888" y2="429.159" gradientUnits="userSpaceOnUse">
<stop stop-color="#EBEFF6" stop-opacity="0"/>
<stop offset="0.271888" stop-color="#EBEFF6"/>
<stop offset="1" stop-color="#EBEFF6" stop-opacity="0"/>
</linearGradient>
<linearGradient id="paint59_linear_146_2081" x1="888" y1="44.1033" x2="888" y2="429.159" gradientUnits="userSpaceOnUse">
<stop stop-color="#EBEFF6" stop-opacity="0"/>
<stop offset="0.271888" stop-color="#EBEFF6"/>
<stop offset="1" stop-color="#EBEFF6" stop-opacity="0"/>
</linearGradient>
<linearGradient id="paint60_linear_146_2081" x1="888" y1="44.1033" x2="888" y2="429.159" gradientUnits="userSpaceOnUse">
<stop stop-color="#EBEFF6" stop-opacity="0"/>
<stop offset="0.271888" stop-color="#EBEFF6"/>
<stop offset="1" stop-color="#EBEFF6" stop-opacity="0"/>
</linearGradient>
<linearGradient id="paint61_linear_146_2081" x1="888" y1="44.1033" x2="888" y2="429.159" gradientUnits="userSpaceOnUse">
<stop stop-color="#EBEFF6" stop-opacity="0"/>
<stop offset="0.271888" stop-color="#EBEFF6"/>
<stop offset="1" stop-color="#EBEFF6" stop-opacity="0"/>
</linearGradient>
<linearGradient id="paint62_linear_146_2081" x1="888" y1="44.1033" x2="888" y2="429.159" gradientUnits="userSpaceOnUse">
<stop stop-color="#EBEFF6" stop-opacity="0"/>
<stop offset="0.271888" stop-color="#EBEFF6"/>
<stop offset="1" stop-color="#EBEFF6" stop-opacity="0"/>
</linearGradient>
<linearGradient id="paint63_linear_146_2081" x1="888" y1="44.1033" x2="888" y2="429.159" gradientUnits="userSpaceOnUse">
<stop stop-color="#EBEFF6" stop-opacity="0"/>
<stop offset="0.271888" stop-color="#EBEFF6"/>
<stop offset="1" stop-color="#EBEFF6" stop-opacity="0"/>
</linearGradient>
<linearGradient id="paint64_linear_146_2081" x1="888" y1="44.1033" x2="888" y2="429.159" gradientUnits="userSpaceOnUse">
<stop stop-color="#EBEFF6" stop-opacity="0"/>
<stop offset="0.271888" stop-color="#EBEFF6"/>
<stop offset="1" stop-color="#EBEFF6" stop-opacity="0"/>
</linearGradient>
<linearGradient id="paint65_linear_146_2081" x1="888" y1="44.1033" x2="888" y2="429.159" gradientUnits="userSpaceOnUse">
<stop stop-color="#EBEFF6" stop-opacity="0"/>
<stop offset="0.271888" stop-color="#EBEFF6"/>
<stop offset="1" stop-color="#EBEFF6" stop-opacity="0"/>
</linearGradient>
<linearGradient id="paint66_linear_146_2081" x1="888" y1="44.1033" x2="888" y2="429.159" gradientUnits="userSpaceOnUse">
<stop stop-color="#EBEFF6" stop-opacity="0"/>
<stop offset="0.271888" stop-color="#EBEFF6"/>
<stop offset="1" stop-color="#EBEFF6" stop-opacity="0"/>
</linearGradient>
<linearGradient id="paint67_linear_146_2081" x1="888" y1="44.1033" x2="888" y2="429.159" gradientUnits="userSpaceOnUse">
<stop stop-color="#EBEFF6" stop-opacity="0"/>
<stop offset="0.271888" stop-color="#EBEFF6"/>
<stop offset="1" stop-color="#EBEFF6" stop-opacity="0"/>
</linearGradient>
<linearGradient id="paint68_linear_146_2081" x1="888" y1="44.1033" x2="888" y2="429.159" gradientUnits="userSpaceOnUse">
<stop stop-color="#EBEFF6" stop-opacity="0"/>
<stop offset="0.271888" stop-color="#EBEFF6"/>
<stop offset="1" stop-color="#EBEFF6" stop-opacity="0"/>
</linearGradient>
<linearGradient id="paint69_linear_146_2081" x1="888" y1="44.1033" x2="888" y2="429.159" gradientUnits="userSpaceOnUse">
<stop stop-color="#EBEFF6" stop-opacity="0"/>
<stop offset="0.271888" stop-color="#EBEFF6"/>
<stop offset="1" stop-color="#EBEFF6" stop-opacity="0"/>
</linearGradient>
<linearGradient id="paint70_linear_146_2081" x1="888" y1="44.1033" x2="888" y2="429.159" gradientUnits="userSpaceOnUse">
<stop stop-color="#EBEFF6" stop-opacity="0"/>
<stop offset="0.271888" stop-color="#EBEFF6"/>
<stop offset="1" stop-color="#EBEFF6" stop-opacity="0"/>
</linearGradient>
<linearGradient id="paint71_linear_146_2081" x1="888" y1="44.1033" x2="888" y2="429.159" gradientUnits="userSpaceOnUse">
<stop stop-color="#EBEFF6" stop-opacity="0"/>
<stop offset="0.271888" stop-color="#EBEFF6"/>
<stop offset="1" stop-color="#EBEFF6" stop-opacity="0"/>
</linearGradient>
<linearGradient id="paint72_linear_146_2081" x1="888" y1="44.1033" x2="888" y2="429.159" gradientUnits="userSpaceOnUse">
<stop stop-color="#EBEFF6" stop-opacity="0"/>
<stop offset="0.271888" stop-color="#EBEFF6"/>
<stop offset="1" stop-color="#EBEFF6" stop-opacity="0"/>
</linearGradient>
<linearGradient id="paint73_linear_146_2081" x1="888" y1="44.1033" x2="888" y2="429.159" gradientUnits="userSpaceOnUse">
<stop stop-color="#EBEFF6" stop-opacity="0"/>
<stop offset="0.271888" stop-color="#EBEFF6"/>
<stop offset="1" stop-color="#EBEFF6" stop-opacity="0"/>
</linearGradient>
</defs>
</svg>
